<mxfile host="app.diagrams.net" modified="2024-01-22T08:45:43.687Z" agent="5.0 (Windows NT 10.0; Win64; x64) AppleWebKit/537.36 (KHTML, like Gecko) Chrome/120.0.0.0 Safari/537.36" etag="Ez09GaQbf3AcrPK6C2YF" version="20.8.0" type="github" pages="7">
  <diagram id="kgpKYQtTHZ0yAKxKKP6v" name="Page-1">
    <mxGraphModel dx="1152" dy="628" grid="0" gridSize="10" guides="1" tooltips="1" connect="1" arrows="1" fold="1" page="1" pageScale="1" pageWidth="850" pageHeight="1100" math="0" shadow="0">
      <root>
        <mxCell id="0" />
        <mxCell id="1" parent="0" />
        <mxCell id="3nuBFxr9cyL0pnOWT2aG-1" value="Log QC Techlog Plug-In Solution - Depth Matching Workflow" style="shape=table;childLayout=tableLayout;startSize=40;collapsible=0;recursiveResize=0;expand=0;fillColor=none;fontStyle=1" parent="1" vertex="1">
          <mxGeometry x="45" y="63" width="761" height="383" as="geometry" />
        </mxCell>
        <mxCell id="3nuBFxr9cyL0pnOWT2aG-3" value="Techlog" style="shape=tableRow;horizontal=0;swimlaneHead=0;swimlaneBody=0;top=0;left=0;bottom=0;right=0;fillColor=none;points=[[0,0.5],[1,0.5]];portConstraint=eastwest;startSize=40;collapsible=0;recursiveResize=0;expand=0;fontStyle=1;" parent="3nuBFxr9cyL0pnOWT2aG-1" vertex="1">
          <mxGeometry y="40" width="761" height="199" as="geometry" />
        </mxCell>
        <mxCell id="3nuBFxr9cyL0pnOWT2aG-4" value="" style="swimlane;swimlaneHead=0;swimlaneBody=0;connectable=0;fillColor=none;startSize=18;collapsible=0;recursiveResize=0;expand=0;fontStyle=1;opacity=0;" parent="3nuBFxr9cyL0pnOWT2aG-3" vertex="1">
          <mxGeometry x="40" width="143" height="199" as="geometry">
            <mxRectangle width="143" height="199" as="alternateBounds" />
          </mxGeometry>
        </mxCell>
        <mxCell id="3nuBFxr9cyL0pnOWT2aG-6" value="Wells, Datasets and logs" style="rounded=1;whiteSpace=wrap;html=1;arcSize=50;" parent="3nuBFxr9cyL0pnOWT2aG-4" vertex="1">
          <mxGeometry x="15" y="10" width="110" height="60" as="geometry" />
        </mxCell>
        <mxCell id="3nuBFxr9cyL0pnOWT2aG-8" value="" style="swimlane;swimlaneHead=0;swimlaneBody=0;connectable=0;fillColor=none;startSize=18;collapsible=0;recursiveResize=0;expand=0;fontStyle=1;opacity=0;" parent="3nuBFxr9cyL0pnOWT2aG-3" vertex="1">
          <mxGeometry x="183" width="430" height="199" as="geometry">
            <mxRectangle width="430" height="199" as="alternateBounds" />
          </mxGeometry>
        </mxCell>
        <mxCell id="3nuBFxr9cyL0pnOWT2aG-9" value="Parquet Files" style="rounded=0;whiteSpace=wrap;html=1;" parent="3nuBFxr9cyL0pnOWT2aG-8" vertex="1">
          <mxGeometry x="30" y="110" width="90" height="40" as="geometry" />
        </mxCell>
        <mxCell id="IavI20LvnIlcKx4unQa--12" value="" style="edgeStyle=orthogonalEdgeStyle;rounded=0;orthogonalLoop=1;jettySize=auto;html=1;" edge="1" parent="3nuBFxr9cyL0pnOWT2aG-8" source="IavI20LvnIlcKx4unQa--5" target="IavI20LvnIlcKx4unQa--11">
          <mxGeometry relative="1" as="geometry" />
        </mxCell>
        <mxCell id="IavI20LvnIlcKx4unQa--5" value="Set up reference log and to-sync log for each well" style="whiteSpace=wrap;html=1;rounded=1;arcSize=50;" vertex="1" parent="3nuBFxr9cyL0pnOWT2aG-8">
          <mxGeometry x="20" y="10" width="120" height="60" as="geometry" />
        </mxCell>
        <mxCell id="IavI20LvnIlcKx4unQa--14" value="" style="edgeStyle=orthogonalEdgeStyle;rounded=0;orthogonalLoop=1;jettySize=auto;html=1;" edge="1" parent="3nuBFxr9cyL0pnOWT2aG-8" source="IavI20LvnIlcKx4unQa--11">
          <mxGeometry relative="1" as="geometry">
            <mxPoint x="280" y="239" as="targetPoint" />
          </mxGeometry>
        </mxCell>
        <mxCell id="IavI20LvnIlcKx4unQa--11" value="Run Dataiku Workflow" style="whiteSpace=wrap;html=1;rounded=1;arcSize=50;" vertex="1" parent="3nuBFxr9cyL0pnOWT2aG-8">
          <mxGeometry x="220" y="10" width="120" height="60" as="geometry" />
        </mxCell>
        <mxCell id="qtTwddTqzELyS3K5rnXr-1" value="Log QC Techlog Plug-In Solution - Depth Matching Workflow" style="shape=table;childLayout=tableLayout;startSize=40;collapsible=0;recursiveResize=0;expand=0;fillColor=none;fontStyle=1" vertex="1" parent="3nuBFxr9cyL0pnOWT2aG-8">
          <mxGeometry x="-183" y="-40" width="761" height="383" as="geometry" />
        </mxCell>
        <mxCell id="qtTwddTqzELyS3K5rnXr-2" value="Techlog" style="shape=tableRow;horizontal=0;swimlaneHead=0;swimlaneBody=0;top=0;left=0;bottom=0;right=0;fillColor=none;points=[[0,0.5],[1,0.5]];portConstraint=eastwest;startSize=40;collapsible=0;recursiveResize=0;expand=0;fontStyle=1;" vertex="1" parent="qtTwddTqzELyS3K5rnXr-1">
          <mxGeometry y="40" width="761" height="199" as="geometry" />
        </mxCell>
        <mxCell id="qtTwddTqzELyS3K5rnXr-3" value="" style="swimlane;swimlaneHead=0;swimlaneBody=0;connectable=0;fillColor=none;startSize=18;collapsible=0;recursiveResize=0;expand=0;fontStyle=1;opacity=0;" vertex="1" parent="qtTwddTqzELyS3K5rnXr-2">
          <mxGeometry x="40" width="143" height="199" as="geometry">
            <mxRectangle width="143" height="199" as="alternateBounds" />
          </mxGeometry>
        </mxCell>
        <mxCell id="qtTwddTqzELyS3K5rnXr-4" value="Wells, Datasets and logs" style="rounded=1;whiteSpace=wrap;html=1;arcSize=50;" vertex="1" parent="qtTwddTqzELyS3K5rnXr-3">
          <mxGeometry x="15" y="10" width="110" height="60" as="geometry" />
        </mxCell>
        <mxCell id="qtTwddTqzELyS3K5rnXr-5" value="" style="swimlane;swimlaneHead=0;swimlaneBody=0;connectable=0;fillColor=none;startSize=18;collapsible=0;recursiveResize=0;expand=0;fontStyle=1;opacity=0;" vertex="1" parent="qtTwddTqzELyS3K5rnXr-2">
          <mxGeometry x="183" width="430" height="199" as="geometry">
            <mxRectangle width="430" height="199" as="alternateBounds" />
          </mxGeometry>
        </mxCell>
        <mxCell id="qtTwddTqzELyS3K5rnXr-6" value="Parquet Files" style="rounded=0;whiteSpace=wrap;html=1;" vertex="1" parent="qtTwddTqzELyS3K5rnXr-5">
          <mxGeometry x="30" y="110" width="90" height="40" as="geometry" />
        </mxCell>
        <mxCell id="qtTwddTqzELyS3K5rnXr-7" value="" style="edgeStyle=orthogonalEdgeStyle;rounded=0;orthogonalLoop=1;jettySize=auto;html=1;" edge="1" parent="qtTwddTqzELyS3K5rnXr-5" source="qtTwddTqzELyS3K5rnXr-8" target="qtTwddTqzELyS3K5rnXr-10">
          <mxGeometry relative="1" as="geometry" />
        </mxCell>
        <mxCell id="qtTwddTqzELyS3K5rnXr-8" value="Set up reference log and to-sync log for each well" style="whiteSpace=wrap;html=1;rounded=1;arcSize=50;" vertex="1" parent="qtTwddTqzELyS3K5rnXr-5">
          <mxGeometry x="20" y="10" width="120" height="60" as="geometry" />
        </mxCell>
        <mxCell id="qtTwddTqzELyS3K5rnXr-9" value="" style="edgeStyle=orthogonalEdgeStyle;rounded=0;orthogonalLoop=1;jettySize=auto;html=1;" edge="1" parent="qtTwddTqzELyS3K5rnXr-5" source="qtTwddTqzELyS3K5rnXr-10">
          <mxGeometry relative="1" as="geometry">
            <mxPoint x="280" y="239" as="targetPoint" />
          </mxGeometry>
        </mxCell>
        <mxCell id="qtTwddTqzELyS3K5rnXr-10" value="Run Dataiku Workflow" style="whiteSpace=wrap;html=1;rounded=1;arcSize=50;" vertex="1" parent="qtTwddTqzELyS3K5rnXr-5">
          <mxGeometry x="220" y="10" width="120" height="60" as="geometry" />
        </mxCell>
        <mxCell id="qtTwddTqzELyS3K5rnXr-32" value="Input Folder" style="shape=document;whiteSpace=wrap;html=1;boundedLbl=1;" vertex="1" parent="qtTwddTqzELyS3K5rnXr-5">
          <mxGeometry x="30" y="239" width="90" height="60" as="geometry" />
        </mxCell>
        <mxCell id="qtTwddTqzELyS3K5rnXr-33" value="Trigger the scenario generating synced logs, shift table,&lt;br&gt;and sending email notification" style="text;html=1;align=center;verticalAlign=middle;resizable=0;points=[];autosize=1;strokeColor=none;fillColor=none;" vertex="1" parent="qtTwddTqzELyS3K5rnXr-5">
          <mxGeometry x="122" y="231" width="312" height="41" as="geometry" />
        </mxCell>
        <mxCell id="qtTwddTqzELyS3K5rnXr-34" value="Output Folder" style="shape=document;whiteSpace=wrap;html=1;boundedLbl=1;" vertex="1" parent="qtTwddTqzELyS3K5rnXr-5">
          <mxGeometry x="475" y="239" width="90" height="60" as="geometry" />
        </mxCell>
        <mxCell id="qtTwddTqzELyS3K5rnXr-35" value="Parquet Files" style="whiteSpace=wrap;html=1;" vertex="1" parent="qtTwddTqzELyS3K5rnXr-5">
          <mxGeometry x="448" y="108" width="120" height="60" as="geometry" />
        </mxCell>
        <mxCell id="qtTwddTqzELyS3K5rnXr-36" value="Download depth matched logs" style="whiteSpace=wrap;html=1;rounded=1;arcSize=50;" vertex="1" parent="qtTwddTqzELyS3K5rnXr-5">
          <mxGeometry x="448" y="10" width="120" height="60" as="geometry" />
        </mxCell>
        <mxCell id="qtTwddTqzELyS3K5rnXr-37" value="Run Dataiku Workflow" style="whiteSpace=wrap;html=1;rounded=1;arcSize=50;" vertex="1" parent="qtTwddTqzELyS3K5rnXr-5">
          <mxGeometry x="220" y="10" width="120" height="60" as="geometry" />
        </mxCell>
        <mxCell id="qtTwddTqzELyS3K5rnXr-11" value="" style="swimlane;swimlaneHead=0;swimlaneBody=0;connectable=0;fillColor=none;startSize=18;collapsible=0;recursiveResize=0;expand=0;fontStyle=1;opacity=0;swimlaneLine=0;" vertex="1" parent="qtTwddTqzELyS3K5rnXr-2">
          <mxGeometry x="613" width="148" height="199" as="geometry">
            <mxRectangle width="148" height="199" as="alternateBounds" />
          </mxGeometry>
        </mxCell>
        <mxCell id="qtTwddTqzELyS3K5rnXr-12" value="Parquet Files" style="whiteSpace=wrap;html=1;" vertex="1" parent="qtTwddTqzELyS3K5rnXr-11">
          <mxGeometry x="18" y="108" width="120" height="60" as="geometry" />
        </mxCell>
        <mxCell id="qtTwddTqzELyS3K5rnXr-13" value="" style="edgeStyle=orthogonalEdgeStyle;rounded=0;orthogonalLoop=1;jettySize=auto;html=1;" edge="1" parent="qtTwddTqzELyS3K5rnXr-11">
          <mxGeometry relative="1" as="geometry">
            <mxPoint x="77.5" y="106" as="sourcePoint" />
            <mxPoint x="77.5" y="70" as="targetPoint" />
          </mxGeometry>
        </mxCell>
        <mxCell id="qtTwddTqzELyS3K5rnXr-14" value="Download depth matched logs" style="whiteSpace=wrap;html=1;rounded=1;arcSize=50;" vertex="1" parent="qtTwddTqzELyS3K5rnXr-11">
          <mxGeometry x="18" y="10" width="120" height="60" as="geometry" />
        </mxCell>
        <mxCell id="qtTwddTqzELyS3K5rnXr-15" value="" style="edgeStyle=orthogonalEdgeStyle;rounded=0;orthogonalLoop=1;jettySize=auto;html=1;" edge="1" parent="qtTwddTqzELyS3K5rnXr-2" source="qtTwddTqzELyS3K5rnXr-4" target="qtTwddTqzELyS3K5rnXr-8">
          <mxGeometry relative="1" as="geometry" />
        </mxCell>
        <mxCell id="qtTwddTqzELyS3K5rnXr-16" value="" style="edgeStyle=orthogonalEdgeStyle;rounded=0;orthogonalLoop=1;jettySize=auto;html=1;" edge="1" parent="qtTwddTqzELyS3K5rnXr-2" source="qtTwddTqzELyS3K5rnXr-10" target="qtTwddTqzELyS3K5rnXr-14">
          <mxGeometry relative="1" as="geometry" />
        </mxCell>
        <mxCell id="qtTwddTqzELyS3K5rnXr-17" value="Dataiku" style="shape=tableRow;horizontal=0;swimlaneHead=0;swimlaneBody=0;top=0;left=0;bottom=0;right=0;fillColor=none;points=[[0,0.5],[1,0.5]];portConstraint=eastwest;startSize=40;collapsible=0;recursiveResize=0;expand=0;fontStyle=1;" vertex="1" parent="qtTwddTqzELyS3K5rnXr-1">
          <mxGeometry y="239" width="761" height="144" as="geometry" />
        </mxCell>
        <mxCell id="qtTwddTqzELyS3K5rnXr-18" value="" style="swimlane;swimlaneHead=0;swimlaneBody=0;connectable=0;fillColor=none;startSize=0;collapsible=0;recursiveResize=0;expand=0;fontStyle=1;" vertex="1" parent="qtTwddTqzELyS3K5rnXr-17">
          <mxGeometry x="40" width="143" height="144" as="geometry">
            <mxRectangle width="143" height="144" as="alternateBounds" />
          </mxGeometry>
        </mxCell>
        <mxCell id="qtTwddTqzELyS3K5rnXr-19" value="" style="swimlane;swimlaneHead=0;swimlaneBody=0;connectable=0;fillColor=none;startSize=0;collapsible=0;recursiveResize=0;expand=0;fontStyle=1;" vertex="1" parent="qtTwddTqzELyS3K5rnXr-17">
          <mxGeometry x="183" width="430" height="144" as="geometry">
            <mxRectangle width="430" height="144" as="alternateBounds" />
          </mxGeometry>
        </mxCell>
        <mxCell id="qtTwddTqzELyS3K5rnXr-20" value="Input Folder" style="shape=document;whiteSpace=wrap;html=1;boundedLbl=1;" vertex="1" parent="qtTwddTqzELyS3K5rnXr-19">
          <mxGeometry x="30" y="40" width="90" height="60" as="geometry" />
        </mxCell>
        <mxCell id="qtTwddTqzELyS3K5rnXr-21" value="Trigger the scenario generating synced logs, shift table,&lt;br&gt;and sending email notification" style="text;html=1;align=center;verticalAlign=middle;resizable=0;points=[];autosize=1;strokeColor=none;fillColor=none;" vertex="1" parent="qtTwddTqzELyS3K5rnXr-19">
          <mxGeometry x="122" y="32" width="312" height="41" as="geometry" />
        </mxCell>
        <mxCell id="qtTwddTqzELyS3K5rnXr-22" value="" style="swimlane;swimlaneHead=0;swimlaneBody=0;connectable=0;fillColor=none;startSize=0;collapsible=0;recursiveResize=0;expand=0;fontStyle=1;" vertex="1" parent="qtTwddTqzELyS3K5rnXr-17">
          <mxGeometry x="613" width="148" height="144" as="geometry">
            <mxRectangle width="148" height="144" as="alternateBounds" />
          </mxGeometry>
        </mxCell>
        <mxCell id="qtTwddTqzELyS3K5rnXr-23" value="Output Folder" style="shape=document;whiteSpace=wrap;html=1;boundedLbl=1;" vertex="1" parent="qtTwddTqzELyS3K5rnXr-22">
          <mxGeometry x="45" y="40" width="90" height="60" as="geometry" />
        </mxCell>
        <mxCell id="qtTwddTqzELyS3K5rnXr-24" value="" style="edgeStyle=orthogonalEdgeStyle;rounded=0;orthogonalLoop=1;jettySize=auto;html=1;" edge="1" parent="qtTwddTqzELyS3K5rnXr-17" source="qtTwddTqzELyS3K5rnXr-20" target="qtTwddTqzELyS3K5rnXr-23">
          <mxGeometry relative="1" as="geometry">
            <Array as="points">
              <mxPoint x="526" y="70" />
              <mxPoint x="526" y="70" />
            </Array>
          </mxGeometry>
        </mxCell>
        <mxCell id="qtTwddTqzELyS3K5rnXr-25" value="" style="edgeStyle=orthogonalEdgeStyle;rounded=0;orthogonalLoop=1;jettySize=auto;html=1;" edge="1" parent="qtTwddTqzELyS3K5rnXr-1" source="qtTwddTqzELyS3K5rnXr-6" target="qtTwddTqzELyS3K5rnXr-20">
          <mxGeometry relative="1" as="geometry" />
        </mxCell>
        <mxCell id="qtTwddTqzELyS3K5rnXr-26" value="" style="edgeStyle=orthogonalEdgeStyle;rounded=0;orthogonalLoop=1;jettySize=auto;html=1;" edge="1" parent="qtTwddTqzELyS3K5rnXr-1">
          <mxGeometry relative="1" as="geometry">
            <mxPoint x="260" y="120" as="sourcePoint" />
            <mxPoint x="260" y="150" as="targetPoint" />
            <Array as="points">
              <mxPoint x="260" y="110" />
              <mxPoint x="260" y="110" />
            </Array>
          </mxGeometry>
        </mxCell>
        <mxCell id="qtTwddTqzELyS3K5rnXr-27" value="" style="edgeStyle=orthogonalEdgeStyle;rounded=0;orthogonalLoop=1;jettySize=auto;html=1;" edge="1" parent="qtTwddTqzELyS3K5rnXr-1" source="qtTwddTqzELyS3K5rnXr-23" target="qtTwddTqzELyS3K5rnXr-12">
          <mxGeometry relative="1" as="geometry">
            <Array as="points">
              <mxPoint x="691" y="251" />
              <mxPoint x="691" y="251" />
            </Array>
          </mxGeometry>
        </mxCell>
        <mxCell id="3nuBFxr9cyL0pnOWT2aG-11" value="" style="swimlane;swimlaneHead=0;swimlaneBody=0;connectable=0;fillColor=none;startSize=18;collapsible=0;recursiveResize=0;expand=0;fontStyle=1;opacity=0;swimlaneLine=0;" parent="3nuBFxr9cyL0pnOWT2aG-3" vertex="1">
          <mxGeometry x="613" width="148" height="199" as="geometry">
            <mxRectangle width="148" height="199" as="alternateBounds" />
          </mxGeometry>
        </mxCell>
        <mxCell id="IavI20LvnIlcKx4unQa--16" value="Parquet Files" style="whiteSpace=wrap;html=1;" vertex="1" parent="3nuBFxr9cyL0pnOWT2aG-11">
          <mxGeometry x="18" y="108" width="120" height="60" as="geometry" />
        </mxCell>
        <mxCell id="IavI20LvnIlcKx4unQa--20" value="" style="edgeStyle=orthogonalEdgeStyle;rounded=0;orthogonalLoop=1;jettySize=auto;html=1;" edge="1" parent="3nuBFxr9cyL0pnOWT2aG-11">
          <mxGeometry relative="1" as="geometry">
            <mxPoint x="77.5" y="106" as="sourcePoint" />
            <mxPoint x="77.5" y="70" as="targetPoint" />
          </mxGeometry>
        </mxCell>
        <mxCell id="IavI20LvnIlcKx4unQa--18" value="Download depth matched logs" style="whiteSpace=wrap;html=1;rounded=1;arcSize=50;" vertex="1" parent="3nuBFxr9cyL0pnOWT2aG-11">
          <mxGeometry x="18" y="10" width="120" height="60" as="geometry" />
        </mxCell>
        <mxCell id="IavI20LvnIlcKx4unQa--6" value="" style="edgeStyle=orthogonalEdgeStyle;rounded=0;orthogonalLoop=1;jettySize=auto;html=1;" edge="1" parent="3nuBFxr9cyL0pnOWT2aG-3" source="3nuBFxr9cyL0pnOWT2aG-6" target="IavI20LvnIlcKx4unQa--5">
          <mxGeometry relative="1" as="geometry" />
        </mxCell>
        <mxCell id="IavI20LvnIlcKx4unQa--19" value="" style="edgeStyle=orthogonalEdgeStyle;rounded=0;orthogonalLoop=1;jettySize=auto;html=1;" edge="1" parent="3nuBFxr9cyL0pnOWT2aG-3" source="IavI20LvnIlcKx4unQa--11" target="IavI20LvnIlcKx4unQa--18">
          <mxGeometry relative="1" as="geometry" />
        </mxCell>
        <mxCell id="3nuBFxr9cyL0pnOWT2aG-15" value="Dataiku" style="shape=tableRow;horizontal=0;swimlaneHead=0;swimlaneBody=0;top=0;left=0;bottom=0;right=0;fillColor=none;points=[[0,0.5],[1,0.5]];portConstraint=eastwest;startSize=40;collapsible=0;recursiveResize=0;expand=0;fontStyle=1;" parent="3nuBFxr9cyL0pnOWT2aG-1" vertex="1">
          <mxGeometry y="239" width="761" height="144" as="geometry" />
        </mxCell>
        <mxCell id="3nuBFxr9cyL0pnOWT2aG-16" value="" style="swimlane;swimlaneHead=0;swimlaneBody=0;connectable=0;fillColor=none;startSize=0;collapsible=0;recursiveResize=0;expand=0;fontStyle=1;" parent="3nuBFxr9cyL0pnOWT2aG-15" vertex="1">
          <mxGeometry x="40" width="143" height="144" as="geometry">
            <mxRectangle width="143" height="144" as="alternateBounds" />
          </mxGeometry>
        </mxCell>
        <mxCell id="3nuBFxr9cyL0pnOWT2aG-18" value="" style="swimlane;swimlaneHead=0;swimlaneBody=0;connectable=0;fillColor=none;startSize=0;collapsible=0;recursiveResize=0;expand=0;fontStyle=1;" parent="3nuBFxr9cyL0pnOWT2aG-15" vertex="1">
          <mxGeometry x="183" width="430" height="144" as="geometry">
            <mxRectangle width="430" height="144" as="alternateBounds" />
          </mxGeometry>
        </mxCell>
        <mxCell id="3nuBFxr9cyL0pnOWT2aG-21" value="Input Folder" style="shape=document;whiteSpace=wrap;html=1;boundedLbl=1;" parent="3nuBFxr9cyL0pnOWT2aG-18" vertex="1">
          <mxGeometry x="30" y="40" width="90" height="60" as="geometry" />
        </mxCell>
        <mxCell id="IavI20LvnIlcKx4unQa--15" value="Trigger the scenario generating synced logs, shift table,&lt;br&gt;and sending email notification" style="text;html=1;align=center;verticalAlign=middle;resizable=0;points=[];autosize=1;strokeColor=none;fillColor=none;" vertex="1" parent="3nuBFxr9cyL0pnOWT2aG-18">
          <mxGeometry x="122" y="32" width="312" height="41" as="geometry" />
        </mxCell>
        <mxCell id="3nuBFxr9cyL0pnOWT2aG-23" value="" style="swimlane;swimlaneHead=0;swimlaneBody=0;connectable=0;fillColor=none;startSize=0;collapsible=0;recursiveResize=0;expand=0;fontStyle=1;" parent="3nuBFxr9cyL0pnOWT2aG-15" vertex="1">
          <mxGeometry x="613" width="148" height="144" as="geometry">
            <mxRectangle width="148" height="144" as="alternateBounds" />
          </mxGeometry>
        </mxCell>
        <mxCell id="IavI20LvnIlcKx4unQa--9" value="Output Folder" style="shape=document;whiteSpace=wrap;html=1;boundedLbl=1;" vertex="1" parent="3nuBFxr9cyL0pnOWT2aG-23">
          <mxGeometry x="45" y="40" width="90" height="60" as="geometry" />
        </mxCell>
        <mxCell id="IavI20LvnIlcKx4unQa--10" value="" style="edgeStyle=orthogonalEdgeStyle;rounded=0;orthogonalLoop=1;jettySize=auto;html=1;" edge="1" parent="3nuBFxr9cyL0pnOWT2aG-15" source="3nuBFxr9cyL0pnOWT2aG-21" target="IavI20LvnIlcKx4unQa--9">
          <mxGeometry relative="1" as="geometry">
            <Array as="points">
              <mxPoint x="526" y="70" />
              <mxPoint x="526" y="70" />
            </Array>
          </mxGeometry>
        </mxCell>
        <mxCell id="3nuBFxr9cyL0pnOWT2aG-25" value="" style="edgeStyle=orthogonalEdgeStyle;rounded=0;orthogonalLoop=1;jettySize=auto;html=1;" parent="3nuBFxr9cyL0pnOWT2aG-1" source="3nuBFxr9cyL0pnOWT2aG-9" target="3nuBFxr9cyL0pnOWT2aG-21" edge="1">
          <mxGeometry relative="1" as="geometry" />
        </mxCell>
        <mxCell id="IavI20LvnIlcKx4unQa--7" value="" style="edgeStyle=orthogonalEdgeStyle;rounded=0;orthogonalLoop=1;jettySize=auto;html=1;" edge="1" parent="3nuBFxr9cyL0pnOWT2aG-1">
          <mxGeometry relative="1" as="geometry">
            <mxPoint x="260" y="120" as="sourcePoint" />
            <mxPoint x="260" y="150" as="targetPoint" />
            <Array as="points">
              <mxPoint x="260" y="110" />
              <mxPoint x="260" y="110" />
            </Array>
          </mxGeometry>
        </mxCell>
        <mxCell id="IavI20LvnIlcKx4unQa--17" value="" style="edgeStyle=orthogonalEdgeStyle;rounded=0;orthogonalLoop=1;jettySize=auto;html=1;" edge="1" parent="3nuBFxr9cyL0pnOWT2aG-1" source="IavI20LvnIlcKx4unQa--9" target="IavI20LvnIlcKx4unQa--16">
          <mxGeometry relative="1" as="geometry">
            <Array as="points">
              <mxPoint x="691" y="251" />
              <mxPoint x="691" y="251" />
            </Array>
          </mxGeometry>
        </mxCell>
        <mxCell id="IavI20LvnIlcKx4unQa--22" value="Table" style="shape=table;startSize=30;container=1;collapsible=1;childLayout=tableLayout;fixedRows=1;rowLines=0;fontStyle=1;align=center;resizeLast=1;opacity=0;" vertex="1" parent="1">
          <mxGeometry x="149" y="590" width="180" height="150" as="geometry" />
        </mxCell>
        <mxCell id="IavI20LvnIlcKx4unQa--23" value="" style="shape=tableRow;horizontal=0;startSize=0;swimlaneHead=0;swimlaneBody=0;fillColor=none;collapsible=0;dropTarget=0;points=[[0,0.5],[1,0.5]];portConstraint=eastwest;top=0;left=0;right=0;bottom=0;opacity=0;" vertex="1" parent="IavI20LvnIlcKx4unQa--22">
          <mxGeometry y="30" width="180" height="30" as="geometry" />
        </mxCell>
        <mxCell id="IavI20LvnIlcKx4unQa--24" value="PK,FK1" style="shape=partialRectangle;connectable=0;fillColor=none;top=0;left=0;bottom=0;right=0;fontStyle=1;overflow=hidden;opacity=0;" vertex="1" parent="IavI20LvnIlcKx4unQa--23">
          <mxGeometry width="60" height="30" as="geometry">
            <mxRectangle width="60" height="30" as="alternateBounds" />
          </mxGeometry>
        </mxCell>
        <mxCell id="IavI20LvnIlcKx4unQa--25" value="Row 1" style="shape=partialRectangle;connectable=0;fillColor=none;top=0;left=0;bottom=0;right=0;align=left;spacingLeft=6;fontStyle=5;overflow=hidden;opacity=0;" vertex="1" parent="IavI20LvnIlcKx4unQa--23">
          <mxGeometry x="60" width="120" height="30" as="geometry">
            <mxRectangle width="120" height="30" as="alternateBounds" />
          </mxGeometry>
        </mxCell>
        <mxCell id="IavI20LvnIlcKx4unQa--26" value="" style="shape=tableRow;horizontal=0;startSize=0;swimlaneHead=0;swimlaneBody=0;fillColor=none;collapsible=0;dropTarget=0;points=[[0,0.5],[1,0.5]];portConstraint=eastwest;top=0;left=0;right=0;bottom=1;opacity=0;" vertex="1" parent="IavI20LvnIlcKx4unQa--22">
          <mxGeometry y="60" width="180" height="30" as="geometry" />
        </mxCell>
        <mxCell id="IavI20LvnIlcKx4unQa--27" value="PK,FK2" style="shape=partialRectangle;connectable=0;fillColor=none;top=0;left=0;bottom=0;right=0;fontStyle=1;overflow=hidden;opacity=0;" vertex="1" parent="IavI20LvnIlcKx4unQa--26">
          <mxGeometry width="60" height="30" as="geometry">
            <mxRectangle width="60" height="30" as="alternateBounds" />
          </mxGeometry>
        </mxCell>
        <mxCell id="IavI20LvnIlcKx4unQa--28" value="Row 2" style="shape=partialRectangle;connectable=0;fillColor=none;top=0;left=0;bottom=0;right=0;align=left;spacingLeft=6;fontStyle=5;overflow=hidden;opacity=0;" vertex="1" parent="IavI20LvnIlcKx4unQa--26">
          <mxGeometry x="60" width="120" height="30" as="geometry">
            <mxRectangle width="120" height="30" as="alternateBounds" />
          </mxGeometry>
        </mxCell>
        <mxCell id="IavI20LvnIlcKx4unQa--29" value="" style="shape=tableRow;horizontal=0;startSize=0;swimlaneHead=0;swimlaneBody=0;fillColor=none;collapsible=0;dropTarget=0;points=[[0,0.5],[1,0.5]];portConstraint=eastwest;top=0;left=0;right=0;bottom=0;opacity=0;" vertex="1" parent="IavI20LvnIlcKx4unQa--22">
          <mxGeometry y="90" width="180" height="30" as="geometry" />
        </mxCell>
        <mxCell id="IavI20LvnIlcKx4unQa--30" value="" style="shape=partialRectangle;connectable=0;fillColor=none;top=0;left=0;bottom=0;right=0;editable=1;overflow=hidden;opacity=0;" vertex="1" parent="IavI20LvnIlcKx4unQa--29">
          <mxGeometry width="60" height="30" as="geometry">
            <mxRectangle width="60" height="30" as="alternateBounds" />
          </mxGeometry>
        </mxCell>
        <mxCell id="IavI20LvnIlcKx4unQa--31" value="Row 3" style="shape=partialRectangle;connectable=0;fillColor=none;top=0;left=0;bottom=0;right=0;align=left;spacingLeft=6;overflow=hidden;opacity=0;" vertex="1" parent="IavI20LvnIlcKx4unQa--29">
          <mxGeometry x="60" width="120" height="30" as="geometry">
            <mxRectangle width="120" height="30" as="alternateBounds" />
          </mxGeometry>
        </mxCell>
        <mxCell id="IavI20LvnIlcKx4unQa--32" value="" style="shape=tableRow;horizontal=0;startSize=0;swimlaneHead=0;swimlaneBody=0;fillColor=none;collapsible=0;dropTarget=0;points=[[0,0.5],[1,0.5]];portConstraint=eastwest;top=0;left=0;right=0;bottom=0;opacity=0;" vertex="1" parent="IavI20LvnIlcKx4unQa--22">
          <mxGeometry y="120" width="180" height="30" as="geometry" />
        </mxCell>
        <mxCell id="IavI20LvnIlcKx4unQa--33" value="" style="shape=partialRectangle;connectable=0;fillColor=none;top=0;left=0;bottom=0;right=0;editable=1;overflow=hidden;opacity=0;" vertex="1" parent="IavI20LvnIlcKx4unQa--32">
          <mxGeometry width="60" height="30" as="geometry">
            <mxRectangle width="60" height="30" as="alternateBounds" />
          </mxGeometry>
        </mxCell>
        <mxCell id="IavI20LvnIlcKx4unQa--34" value="Row 4" style="shape=partialRectangle;connectable=0;fillColor=none;top=0;left=0;bottom=0;right=0;align=left;spacingLeft=6;overflow=hidden;opacity=0;" vertex="1" parent="IavI20LvnIlcKx4unQa--32">
          <mxGeometry x="60" width="120" height="30" as="geometry">
            <mxRectangle width="120" height="30" as="alternateBounds" />
          </mxGeometry>
        </mxCell>
        <mxCell id="IavI20LvnIlcKx4unQa--35" value="" style="rounded=1;absoluteArcSize=1;html=1;arcSize=10;opacity=0;" vertex="1" parent="1">
          <mxGeometry x="432" y="631" width="100" height="100" as="geometry" />
        </mxCell>
        <mxCell id="IavI20LvnIlcKx4unQa--36" value="main" style="html=1;shape=mxgraph.er.anchor;whiteSpace=wrap;opacity=0;" vertex="1" parent="IavI20LvnIlcKx4unQa--35">
          <mxGeometry width="50" height="100" as="geometry" />
        </mxCell>
        <mxCell id="IavI20LvnIlcKx4unQa--37" value="sub" style="rounded=1;absoluteArcSize=1;html=1;arcSize=10;whiteSpace=wrap;points=[];strokeColor=inherit;fillColor=inherit;opacity=0;" vertex="1" parent="IavI20LvnIlcKx4unQa--35">
          <mxGeometry x="50" y="5" width="45" height="90" as="geometry" />
        </mxCell>
      </root>
    </mxGraphModel>
  </diagram>
  <diagram name="Copy of Page-1" id="x1eUpqV11jbP2CQyj7dx">
    <mxGraphModel dx="1152" dy="1728" grid="0" gridSize="10" guides="1" tooltips="1" connect="1" arrows="1" fold="1" page="1" pageScale="1" pageWidth="850" pageHeight="1100" math="0" shadow="0">
      <root>
        <mxCell id="WIxS13H4lVwMlJwwGs9I-0" />
        <mxCell id="WIxS13H4lVwMlJwwGs9I-1" parent="WIxS13H4lVwMlJwwGs9I-0" />
        <mxCell id="WIxS13H4lVwMlJwwGs9I-2" value="Log QC Techlog Plug-In Solution - Depth Matching Workflow" style="shape=table;childLayout=tableLayout;startSize=40;collapsible=0;recursiveResize=0;expand=0;fillColor=#dae8fc;fontStyle=1;strokeColor=#6c8ebf;fillStyle=dots;" vertex="1" parent="WIxS13H4lVwMlJwwGs9I-1">
          <mxGeometry x="63" y="-213" width="761" height="463" as="geometry" />
        </mxCell>
        <mxCell id="WIxS13H4lVwMlJwwGs9I-3" value="Techlog" style="shape=tableRow;horizontal=0;swimlaneHead=0;swimlaneBody=0;top=0;left=0;bottom=0;right=0;fillColor=none;points=[[0,0.5],[1,0.5]];portConstraint=eastwest;startSize=40;collapsible=0;recursiveResize=0;expand=0;fontStyle=1;" vertex="1" parent="WIxS13H4lVwMlJwwGs9I-2">
          <mxGeometry y="40" width="761" height="181" as="geometry" />
        </mxCell>
        <mxCell id="WIxS13H4lVwMlJwwGs9I-4" value="" style="swimlane;swimlaneHead=0;swimlaneBody=0;connectable=0;fillColor=none;startSize=18;collapsible=0;recursiveResize=0;expand=0;fontStyle=1;opacity=0;" vertex="1" parent="WIxS13H4lVwMlJwwGs9I-3">
          <mxGeometry x="40" width="152" height="181" as="geometry">
            <mxRectangle width="152" height="181" as="alternateBounds" />
          </mxGeometry>
        </mxCell>
        <mxCell id="WIxS13H4lVwMlJwwGs9I-5" value="Wells, Datasets and logs" style="rounded=1;whiteSpace=wrap;html=1;arcSize=50;" vertex="1" parent="WIxS13H4lVwMlJwwGs9I-4">
          <mxGeometry x="15" y="10" width="110" height="60" as="geometry" />
        </mxCell>
        <mxCell id="WIxS13H4lVwMlJwwGs9I-6" value="" style="swimlane;swimlaneHead=0;swimlaneBody=0;connectable=0;fillColor=none;startSize=18;collapsible=0;recursiveResize=0;expand=0;fontStyle=1;opacity=0;" vertex="1" parent="WIxS13H4lVwMlJwwGs9I-3">
          <mxGeometry x="192" width="421" height="181" as="geometry">
            <mxRectangle width="421" height="181" as="alternateBounds" />
          </mxGeometry>
        </mxCell>
        <mxCell id="WIxS13H4lVwMlJwwGs9I-7" value="Parquet Files" style="rounded=0;whiteSpace=wrap;html=1;" vertex="1" parent="WIxS13H4lVwMlJwwGs9I-6">
          <mxGeometry x="30" y="110" width="90" height="40" as="geometry" />
        </mxCell>
        <mxCell id="WIxS13H4lVwMlJwwGs9I-8" value="" style="edgeStyle=orthogonalEdgeStyle;rounded=0;orthogonalLoop=1;jettySize=auto;html=1;" edge="1" parent="WIxS13H4lVwMlJwwGs9I-6" source="WIxS13H4lVwMlJwwGs9I-9" target="WIxS13H4lVwMlJwwGs9I-11">
          <mxGeometry relative="1" as="geometry" />
        </mxCell>
        <mxCell id="WIxS13H4lVwMlJwwGs9I-9" value="Set up reference log and to-sync log for each well" style="whiteSpace=wrap;html=1;rounded=1;arcSize=50;" vertex="1" parent="WIxS13H4lVwMlJwwGs9I-6">
          <mxGeometry x="20" y="10" width="120" height="60" as="geometry" />
        </mxCell>
        <mxCell id="WIxS13H4lVwMlJwwGs9I-10" value="" style="edgeStyle=orthogonalEdgeStyle;rounded=0;orthogonalLoop=1;jettySize=auto;html=1;" edge="1" parent="WIxS13H4lVwMlJwwGs9I-6" source="WIxS13H4lVwMlJwwGs9I-11">
          <mxGeometry relative="1" as="geometry">
            <mxPoint x="280" y="239" as="targetPoint" />
          </mxGeometry>
        </mxCell>
        <mxCell id="WIxS13H4lVwMlJwwGs9I-11" value="Run Dataiku Workflow" style="whiteSpace=wrap;html=1;rounded=1;arcSize=50;" vertex="1" parent="WIxS13H4lVwMlJwwGs9I-6">
          <mxGeometry x="220" y="10" width="120" height="60" as="geometry" />
        </mxCell>
        <mxCell id="WIxS13H4lVwMlJwwGs9I-12" value="" style="swimlane;swimlaneHead=0;swimlaneBody=0;connectable=0;fillColor=none;startSize=18;collapsible=0;recursiveResize=0;expand=0;fontStyle=1;opacity=0;swimlaneLine=0;" vertex="1" parent="WIxS13H4lVwMlJwwGs9I-3">
          <mxGeometry x="613" width="148" height="181" as="geometry">
            <mxRectangle width="148" height="181" as="alternateBounds" />
          </mxGeometry>
        </mxCell>
        <mxCell id="WIxS13H4lVwMlJwwGs9I-13" value="Parquet Files" style="whiteSpace=wrap;html=1;" vertex="1" parent="WIxS13H4lVwMlJwwGs9I-12">
          <mxGeometry x="18" y="108" width="120" height="60" as="geometry" />
        </mxCell>
        <mxCell id="WIxS13H4lVwMlJwwGs9I-14" value="" style="edgeStyle=orthogonalEdgeStyle;rounded=0;orthogonalLoop=1;jettySize=auto;html=1;" edge="1" parent="WIxS13H4lVwMlJwwGs9I-12">
          <mxGeometry relative="1" as="geometry">
            <mxPoint x="77.5" y="106" as="sourcePoint" />
            <mxPoint x="77.5" y="70" as="targetPoint" />
          </mxGeometry>
        </mxCell>
        <mxCell id="WIxS13H4lVwMlJwwGs9I-15" value="Download depth matched logs" style="whiteSpace=wrap;html=1;rounded=1;arcSize=50;" vertex="1" parent="WIxS13H4lVwMlJwwGs9I-12">
          <mxGeometry x="18" y="10" width="120" height="60" as="geometry" />
        </mxCell>
        <mxCell id="WIxS13H4lVwMlJwwGs9I-16" value="" style="edgeStyle=orthogonalEdgeStyle;rounded=0;orthogonalLoop=1;jettySize=auto;html=1;" edge="1" parent="WIxS13H4lVwMlJwwGs9I-3" source="WIxS13H4lVwMlJwwGs9I-5" target="WIxS13H4lVwMlJwwGs9I-9">
          <mxGeometry relative="1" as="geometry" />
        </mxCell>
        <mxCell id="WIxS13H4lVwMlJwwGs9I-17" value="" style="edgeStyle=orthogonalEdgeStyle;rounded=0;orthogonalLoop=1;jettySize=auto;html=1;" edge="1" parent="WIxS13H4lVwMlJwwGs9I-3" source="WIxS13H4lVwMlJwwGs9I-11" target="WIxS13H4lVwMlJwwGs9I-15">
          <mxGeometry relative="1" as="geometry" />
        </mxCell>
        <mxCell id="WIxS13H4lVwMlJwwGs9I-18" value="Dataiku" style="shape=tableRow;horizontal=0;swimlaneHead=0;swimlaneBody=0;top=0;left=0;bottom=0;right=0;fillColor=none;points=[[0,0.5],[1,0.5]];portConstraint=eastwest;startSize=40;collapsible=0;recursiveResize=0;expand=0;fontStyle=1;strokeColor=none;" vertex="1" parent="WIxS13H4lVwMlJwwGs9I-2">
          <mxGeometry y="221" width="761" height="242" as="geometry" />
        </mxCell>
        <mxCell id="WIxS13H4lVwMlJwwGs9I-19" value="" style="swimlane;swimlaneHead=0;swimlaneBody=0;connectable=0;fillColor=none;startSize=0;collapsible=0;recursiveResize=0;expand=0;fontStyle=1;" vertex="1" parent="WIxS13H4lVwMlJwwGs9I-18">
          <mxGeometry x="40" width="152" height="242" as="geometry">
            <mxRectangle width="152" height="242" as="alternateBounds" />
          </mxGeometry>
        </mxCell>
        <mxCell id="WIxS13H4lVwMlJwwGs9I-20" value="" style="swimlane;swimlaneHead=0;swimlaneBody=0;connectable=0;fillColor=none;startSize=0;collapsible=0;recursiveResize=0;expand=0;fontStyle=1;" vertex="1" parent="WIxS13H4lVwMlJwwGs9I-18">
          <mxGeometry x="192" width="421" height="242" as="geometry">
            <mxRectangle width="421" height="242" as="alternateBounds" />
          </mxGeometry>
        </mxCell>
        <mxCell id="WIxS13H4lVwMlJwwGs9I-21" value="Input Folder" style="shape=document;whiteSpace=wrap;html=1;boundedLbl=1;" vertex="1" parent="WIxS13H4lVwMlJwwGs9I-20">
          <mxGeometry x="30" y="40" width="90" height="60" as="geometry" />
        </mxCell>
        <mxCell id="WIxS13H4lVwMlJwwGs9I-22" value="Trigger the scenario generating synced logs, shift table,&lt;br&gt;and sending email notification" style="text;html=1;align=center;verticalAlign=middle;resizable=0;points=[];autosize=1;strokeColor=none;fillColor=none;" vertex="1" parent="WIxS13H4lVwMlJwwGs9I-20">
          <mxGeometry x="122" y="32" width="312" height="41" as="geometry" />
        </mxCell>
        <mxCell id="WIxS13H4lVwMlJwwGs9I-23" value="" style="swimlane;swimlaneHead=0;swimlaneBody=0;connectable=0;fillColor=none;startSize=0;collapsible=0;recursiveResize=0;expand=0;fontStyle=1;" vertex="1" parent="WIxS13H4lVwMlJwwGs9I-18">
          <mxGeometry x="613" width="148" height="242" as="geometry">
            <mxRectangle width="148" height="242" as="alternateBounds" />
          </mxGeometry>
        </mxCell>
        <mxCell id="WIxS13H4lVwMlJwwGs9I-24" value="Output Folder" style="shape=document;whiteSpace=wrap;html=1;boundedLbl=1;" vertex="1" parent="WIxS13H4lVwMlJwwGs9I-23">
          <mxGeometry x="45" y="40" width="90" height="60" as="geometry" />
        </mxCell>
        <mxCell id="WIxS13H4lVwMlJwwGs9I-25" value="" style="edgeStyle=orthogonalEdgeStyle;rounded=0;orthogonalLoop=1;jettySize=auto;html=1;" edge="1" parent="WIxS13H4lVwMlJwwGs9I-18" source="WIxS13H4lVwMlJwwGs9I-21" target="WIxS13H4lVwMlJwwGs9I-24">
          <mxGeometry relative="1" as="geometry">
            <Array as="points">
              <mxPoint x="526" y="70" />
              <mxPoint x="526" y="70" />
            </Array>
          </mxGeometry>
        </mxCell>
        <mxCell id="WIxS13H4lVwMlJwwGs9I-26" value="" style="edgeStyle=orthogonalEdgeStyle;rounded=0;orthogonalLoop=1;jettySize=auto;html=1;" edge="1" parent="WIxS13H4lVwMlJwwGs9I-2" source="WIxS13H4lVwMlJwwGs9I-7" target="WIxS13H4lVwMlJwwGs9I-21">
          <mxGeometry relative="1" as="geometry" />
        </mxCell>
        <mxCell id="WIxS13H4lVwMlJwwGs9I-27" value="" style="edgeStyle=orthogonalEdgeStyle;rounded=0;orthogonalLoop=1;jettySize=auto;html=1;" edge="1" parent="WIxS13H4lVwMlJwwGs9I-2">
          <mxGeometry relative="1" as="geometry">
            <mxPoint x="260" y="120" as="sourcePoint" />
            <mxPoint x="260" y="150" as="targetPoint" />
            <Array as="points">
              <mxPoint x="260" y="110" />
              <mxPoint x="260" y="110" />
            </Array>
          </mxGeometry>
        </mxCell>
        <mxCell id="WIxS13H4lVwMlJwwGs9I-28" value="" style="edgeStyle=orthogonalEdgeStyle;rounded=0;orthogonalLoop=1;jettySize=auto;html=1;" edge="1" parent="WIxS13H4lVwMlJwwGs9I-2" source="WIxS13H4lVwMlJwwGs9I-24" target="WIxS13H4lVwMlJwwGs9I-13">
          <mxGeometry relative="1" as="geometry">
            <Array as="points">
              <mxPoint x="691" y="251" />
              <mxPoint x="691" y="251" />
            </Array>
          </mxGeometry>
        </mxCell>
        <mxCell id="r1xOB0gQgkMj9PUqhbcn-0" value="Techlog" style="shape=tableRow;horizontal=0;swimlaneHead=0;swimlaneBody=0;top=0;left=0;bottom=0;right=0;fillColor=none;points=[[0,0.5],[1,0.5]];portConstraint=eastwest;startSize=40;collapsible=0;recursiveResize=0;expand=0;fontStyle=1;" vertex="1" parent="WIxS13H4lVwMlJwwGs9I-1">
          <mxGeometry x="40" y="550" width="761" height="199" as="geometry" />
        </mxCell>
        <mxCell id="r1xOB0gQgkMj9PUqhbcn-1" value="" style="swimlane;swimlaneHead=0;swimlaneBody=0;connectable=0;fillColor=none;startSize=18;collapsible=0;recursiveResize=0;expand=0;fontStyle=1;opacity=0;" vertex="1" parent="r1xOB0gQgkMj9PUqhbcn-0">
          <mxGeometry x="40" width="143" height="199" as="geometry">
            <mxRectangle width="143" height="199" as="alternateBounds" />
          </mxGeometry>
        </mxCell>
        <mxCell id="r1xOB0gQgkMj9PUqhbcn-2" value="Wells, Datasets and logs" style="rounded=1;whiteSpace=wrap;html=1;arcSize=50;" vertex="1" parent="r1xOB0gQgkMj9PUqhbcn-1">
          <mxGeometry x="15" y="10" width="110" height="60" as="geometry" />
        </mxCell>
        <mxCell id="r1xOB0gQgkMj9PUqhbcn-3" value="" style="swimlane;swimlaneHead=0;swimlaneBody=0;connectable=0;fillColor=none;startSize=18;collapsible=0;recursiveResize=0;expand=0;fontStyle=1;opacity=0;" vertex="1" parent="r1xOB0gQgkMj9PUqhbcn-0">
          <mxGeometry x="183" width="430" height="199" as="geometry">
            <mxRectangle width="430" height="199" as="alternateBounds" />
          </mxGeometry>
        </mxCell>
        <mxCell id="r1xOB0gQgkMj9PUqhbcn-4" value="Parquet Files" style="rounded=0;whiteSpace=wrap;html=1;" vertex="1" parent="r1xOB0gQgkMj9PUqhbcn-3">
          <mxGeometry x="30" y="110" width="90" height="40" as="geometry" />
        </mxCell>
        <mxCell id="r1xOB0gQgkMj9PUqhbcn-5" value="" style="edgeStyle=orthogonalEdgeStyle;rounded=0;orthogonalLoop=1;jettySize=auto;html=1;" edge="1" parent="r1xOB0gQgkMj9PUqhbcn-3" source="r1xOB0gQgkMj9PUqhbcn-6" target="r1xOB0gQgkMj9PUqhbcn-8">
          <mxGeometry relative="1" as="geometry" />
        </mxCell>
        <mxCell id="r1xOB0gQgkMj9PUqhbcn-6" value="Set up reference log and to-sync log for each well" style="whiteSpace=wrap;html=1;rounded=1;arcSize=50;" vertex="1" parent="r1xOB0gQgkMj9PUqhbcn-3">
          <mxGeometry x="20" y="10" width="120" height="60" as="geometry" />
        </mxCell>
        <mxCell id="r1xOB0gQgkMj9PUqhbcn-7" value="" style="edgeStyle=orthogonalEdgeStyle;rounded=0;orthogonalLoop=1;jettySize=auto;html=1;" edge="1" parent="r1xOB0gQgkMj9PUqhbcn-3" source="r1xOB0gQgkMj9PUqhbcn-8">
          <mxGeometry relative="1" as="geometry">
            <mxPoint x="280" y="239" as="targetPoint" />
          </mxGeometry>
        </mxCell>
        <mxCell id="r1xOB0gQgkMj9PUqhbcn-8" value="Run Dataiku Workflow" style="whiteSpace=wrap;html=1;rounded=1;arcSize=50;" vertex="1" parent="r1xOB0gQgkMj9PUqhbcn-3">
          <mxGeometry x="220" y="10" width="120" height="60" as="geometry" />
        </mxCell>
        <mxCell id="r1xOB0gQgkMj9PUqhbcn-9" value="" style="swimlane;swimlaneHead=0;swimlaneBody=0;connectable=0;fillColor=none;startSize=18;collapsible=0;recursiveResize=0;expand=0;fontStyle=1;opacity=0;swimlaneLine=0;" vertex="1" parent="r1xOB0gQgkMj9PUqhbcn-0">
          <mxGeometry x="613" width="148" height="199" as="geometry">
            <mxRectangle width="148" height="199" as="alternateBounds" />
          </mxGeometry>
        </mxCell>
        <mxCell id="r1xOB0gQgkMj9PUqhbcn-10" value="Parquet Files" style="whiteSpace=wrap;html=1;" vertex="1" parent="r1xOB0gQgkMj9PUqhbcn-9">
          <mxGeometry x="18" y="108" width="120" height="60" as="geometry" />
        </mxCell>
        <mxCell id="r1xOB0gQgkMj9PUqhbcn-11" value="" style="edgeStyle=orthogonalEdgeStyle;rounded=0;orthogonalLoop=1;jettySize=auto;html=1;" edge="1" parent="r1xOB0gQgkMj9PUqhbcn-9">
          <mxGeometry relative="1" as="geometry">
            <mxPoint x="77.5" y="106" as="sourcePoint" />
            <mxPoint x="77.5" y="70" as="targetPoint" />
          </mxGeometry>
        </mxCell>
        <mxCell id="r1xOB0gQgkMj9PUqhbcn-12" value="Download depth matched logs" style="whiteSpace=wrap;html=1;rounded=1;arcSize=50;" vertex="1" parent="r1xOB0gQgkMj9PUqhbcn-9">
          <mxGeometry x="18" y="10" width="120" height="60" as="geometry" />
        </mxCell>
        <mxCell id="r1xOB0gQgkMj9PUqhbcn-13" value="" style="edgeStyle=orthogonalEdgeStyle;rounded=0;orthogonalLoop=1;jettySize=auto;html=1;" edge="1" parent="r1xOB0gQgkMj9PUqhbcn-0" source="r1xOB0gQgkMj9PUqhbcn-2" target="r1xOB0gQgkMj9PUqhbcn-6">
          <mxGeometry relative="1" as="geometry" />
        </mxCell>
        <mxCell id="r1xOB0gQgkMj9PUqhbcn-14" value="" style="edgeStyle=orthogonalEdgeStyle;rounded=0;orthogonalLoop=1;jettySize=auto;html=1;" edge="1" parent="r1xOB0gQgkMj9PUqhbcn-0" source="r1xOB0gQgkMj9PUqhbcn-8" target="r1xOB0gQgkMj9PUqhbcn-12">
          <mxGeometry relative="1" as="geometry" />
        </mxCell>
        <mxCell id="r1xOB0gQgkMj9PUqhbcn-15" value="Input Folder" style="shape=document;whiteSpace=wrap;html=1;boundedLbl=1;" vertex="1" parent="WIxS13H4lVwMlJwwGs9I-1">
          <mxGeometry x="253" y="789" width="90" height="60" as="geometry" />
        </mxCell>
        <mxCell id="r1xOB0gQgkMj9PUqhbcn-16" value="Trigger the scenario generating synced logs, shift table,&lt;br&gt;and sending email notification" style="text;html=1;align=center;verticalAlign=middle;resizable=0;points=[];autosize=1;strokeColor=none;fillColor=none;" vertex="1" parent="WIxS13H4lVwMlJwwGs9I-1">
          <mxGeometry x="345" y="781" width="312" height="41" as="geometry" />
        </mxCell>
        <mxCell id="r1xOB0gQgkMj9PUqhbcn-17" value="Output Folder" style="shape=document;whiteSpace=wrap;html=1;boundedLbl=1;" vertex="1" parent="WIxS13H4lVwMlJwwGs9I-1">
          <mxGeometry x="698" y="789" width="90" height="60" as="geometry" />
        </mxCell>
        <mxCell id="r1xOB0gQgkMj9PUqhbcn-18" value="" style="edgeStyle=orthogonalEdgeStyle;rounded=0;orthogonalLoop=1;jettySize=auto;html=1;" edge="1" parent="WIxS13H4lVwMlJwwGs9I-1" source="r1xOB0gQgkMj9PUqhbcn-15" target="r1xOB0gQgkMj9PUqhbcn-17">
          <mxGeometry relative="1" as="geometry">
            <Array as="points">
              <mxPoint x="566" y="819" />
              <mxPoint x="566" y="819" />
            </Array>
          </mxGeometry>
        </mxCell>
        <mxCell id="r1xOB0gQgkMj9PUqhbcn-19" value="" style="edgeStyle=orthogonalEdgeStyle;rounded=0;orthogonalLoop=1;jettySize=auto;html=1;" edge="1" parent="WIxS13H4lVwMlJwwGs9I-1" source="r1xOB0gQgkMj9PUqhbcn-4" target="r1xOB0gQgkMj9PUqhbcn-15">
          <mxGeometry relative="1" as="geometry" />
        </mxCell>
        <mxCell id="r1xOB0gQgkMj9PUqhbcn-20" value="" style="edgeStyle=orthogonalEdgeStyle;rounded=0;orthogonalLoop=1;jettySize=auto;html=1;" edge="1" parent="WIxS13H4lVwMlJwwGs9I-1">
          <mxGeometry relative="1" as="geometry">
            <mxPoint x="300" y="630" as="sourcePoint" />
            <mxPoint x="300" y="660" as="targetPoint" />
            <Array as="points">
              <mxPoint x="300" y="620" />
              <mxPoint x="300" y="620" />
            </Array>
          </mxGeometry>
        </mxCell>
        <mxCell id="r1xOB0gQgkMj9PUqhbcn-21" value="" style="edgeStyle=orthogonalEdgeStyle;rounded=0;orthogonalLoop=1;jettySize=auto;html=1;" edge="1" parent="WIxS13H4lVwMlJwwGs9I-1" source="r1xOB0gQgkMj9PUqhbcn-17" target="r1xOB0gQgkMj9PUqhbcn-10">
          <mxGeometry relative="1" as="geometry">
            <Array as="points">
              <mxPoint x="731" y="761" />
              <mxPoint x="731" y="761" />
            </Array>
          </mxGeometry>
        </mxCell>
        <mxCell id="r1xOB0gQgkMj9PUqhbcn-22" value="" style="rounded=0;whiteSpace=wrap;html=1;opacity=0;" vertex="1" parent="WIxS13H4lVwMlJwwGs9I-1">
          <mxGeometry x="50" y="477" width="864" height="60" as="geometry" />
        </mxCell>
        <mxCell id="wtPvfe_WalGM4SydwF8Y-0" value="Wells, Datasets and logs" style="rounded=1;whiteSpace=wrap;html=1;arcSize=50;" vertex="1" parent="WIxS13H4lVwMlJwwGs9I-1">
          <mxGeometry x="63" y="226" width="110" height="60" as="geometry" />
        </mxCell>
        <mxCell id="wtPvfe_WalGM4SydwF8Y-1" value="Parquet Files" style="rounded=0;whiteSpace=wrap;html=1;" vertex="1" parent="WIxS13H4lVwMlJwwGs9I-1">
          <mxGeometry x="221" y="326" width="90" height="40" as="geometry" />
        </mxCell>
        <mxCell id="wtPvfe_WalGM4SydwF8Y-2" value="Set up reference log and to-sync log for each well" style="whiteSpace=wrap;html=1;rounded=1;arcSize=50;" vertex="1" parent="WIxS13H4lVwMlJwwGs9I-1">
          <mxGeometry x="211" y="226" width="120" height="60" as="geometry" />
        </mxCell>
        <mxCell id="wtPvfe_WalGM4SydwF8Y-3" value="Input Folder" style="shape=document;whiteSpace=wrap;html=1;boundedLbl=1;" vertex="1" parent="WIxS13H4lVwMlJwwGs9I-1">
          <mxGeometry x="221" y="455" width="90" height="60" as="geometry" />
        </mxCell>
        <mxCell id="wtPvfe_WalGM4SydwF8Y-4" value="Trigger the scenario generating synced logs, shift table,&lt;br&gt;and sending email notification" style="text;html=1;align=center;verticalAlign=middle;resizable=0;points=[];autosize=1;strokeColor=none;fillColor=none;" vertex="1" parent="WIxS13H4lVwMlJwwGs9I-1">
          <mxGeometry x="313" y="447" width="312" height="41" as="geometry" />
        </mxCell>
        <mxCell id="wtPvfe_WalGM4SydwF8Y-5" value="Output Folder" style="shape=document;whiteSpace=wrap;html=1;boundedLbl=1;" vertex="1" parent="WIxS13H4lVwMlJwwGs9I-1">
          <mxGeometry x="666" y="455" width="90" height="60" as="geometry" />
        </mxCell>
        <mxCell id="wtPvfe_WalGM4SydwF8Y-6" value="Parquet Files" style="whiteSpace=wrap;html=1;" vertex="1" parent="WIxS13H4lVwMlJwwGs9I-1">
          <mxGeometry x="639" y="324" width="120" height="60" as="geometry" />
        </mxCell>
        <mxCell id="wtPvfe_WalGM4SydwF8Y-7" value="Download depth matched logs" style="whiteSpace=wrap;html=1;rounded=1;arcSize=50;" vertex="1" parent="WIxS13H4lVwMlJwwGs9I-1">
          <mxGeometry x="639" y="226" width="120" height="60" as="geometry" />
        </mxCell>
        <mxCell id="wtPvfe_WalGM4SydwF8Y-8" value="Run Dataiku Workflow" style="whiteSpace=wrap;html=1;rounded=1;arcSize=50;" vertex="1" parent="WIxS13H4lVwMlJwwGs9I-1">
          <mxGeometry x="411" y="226" width="120" height="60" as="geometry" />
        </mxCell>
        <mxCell id="EtSGZdcf6yUi64weC5u3-0" value="User&amp;nbsp;" style="shape=step;perimeter=stepPerimeter;whiteSpace=wrap;html=1;fixedSize=1;shadow=0;glass=0;labelBackgroundColor=#0014DB;sketch=0;fillStyle=solid;strokeColor=#0014DB;strokeWidth=1;fontSize=11;fontColor=#FFFFFF;fillColor=#0014DB;" vertex="1" parent="WIxS13H4lVwMlJwwGs9I-1">
          <mxGeometry x="399" y="986" width="223" height="80" as="geometry" />
        </mxCell>
      </root>
    </mxGraphModel>
  </diagram>
  <diagram id="gxSa5vPxi7qdCWVDuGr5" name="Page-3">
    <mxGraphModel dx="1562" dy="858" grid="0" gridSize="10" guides="1" tooltips="1" connect="1" arrows="1" fold="1" page="1" pageScale="1" pageWidth="1169" pageHeight="1654" math="0" shadow="0">
      <root>
        <mxCell id="0" />
        <mxCell id="1" parent="0" />
        <mxCell id="AdasjBB9pq6_NaWvRzlA-5" value="" style="rounded=1;whiteSpace=wrap;html=1;fillStyle=solid;strokeColor=#6c8ebf;strokeWidth=1;fontSize=11;fillColor=#dae8fc;shadow=0;glass=0;" vertex="1" parent="1">
          <mxGeometry x="80" y="473" width="748" height="74" as="geometry" />
        </mxCell>
        <mxCell id="xiwGCx_ZQ6LVl-j6pgHv-1" value="Wells, Datasets and logs" style="rounded=1;whiteSpace=wrap;html=1;arcSize=50;" vertex="1" parent="1">
          <mxGeometry x="100" y="113" width="110" height="60" as="geometry" />
        </mxCell>
        <mxCell id="xiwGCx_ZQ6LVl-j6pgHv-2" value="Parquet Files" style="rounded=0;whiteSpace=wrap;html=1;" vertex="1" parent="1">
          <mxGeometry x="258" y="213" width="90" height="40" as="geometry" />
        </mxCell>
        <mxCell id="xiwGCx_ZQ6LVl-j6pgHv-3" value="Set up reference log and to-sync log for each well" style="whiteSpace=wrap;html=1;rounded=1;arcSize=50;" vertex="1" parent="1">
          <mxGeometry x="248" y="113" width="124" height="63" as="geometry" />
        </mxCell>
        <mxCell id="xiwGCx_ZQ6LVl-j6pgHv-4" value="Input Folder" style="shape=document;whiteSpace=wrap;html=1;boundedLbl=1;" vertex="1" parent="1">
          <mxGeometry x="258" y="342" width="90" height="60" as="geometry" />
        </mxCell>
        <mxCell id="xiwGCx_ZQ6LVl-j6pgHv-5" value="Trigger the scenario generating synced logs, shift table,&lt;br&gt;and sending email notification" style="text;html=1;align=center;verticalAlign=middle;resizable=0;points=[];autosize=1;strokeColor=none;fillColor=none;" vertex="1" parent="1">
          <mxGeometry x="350" y="334" width="312" height="41" as="geometry" />
        </mxCell>
        <mxCell id="xiwGCx_ZQ6LVl-j6pgHv-6" value="Output Folder" style="shape=document;whiteSpace=wrap;html=1;boundedLbl=1;" vertex="1" parent="1">
          <mxGeometry x="703" y="342" width="90" height="60" as="geometry" />
        </mxCell>
        <mxCell id="xiwGCx_ZQ6LVl-j6pgHv-7" value="Parquet Files" style="whiteSpace=wrap;html=1;" vertex="1" parent="1">
          <mxGeometry x="676" y="211" width="120" height="60" as="geometry" />
        </mxCell>
        <mxCell id="xiwGCx_ZQ6LVl-j6pgHv-8" value="Download depth matched logs" style="whiteSpace=wrap;html=1;rounded=1;arcSize=50;" vertex="1" parent="1">
          <mxGeometry x="676" y="113" width="120" height="60" as="geometry" />
        </mxCell>
        <mxCell id="xiwGCx_ZQ6LVl-j6pgHv-9" value="Run Dataiku Workflow" style="whiteSpace=wrap;html=1;rounded=1;arcSize=50;" vertex="1" parent="1">
          <mxGeometry x="448" y="113" width="120" height="60" as="geometry" />
        </mxCell>
        <mxCell id="TAoAWtX_m3iu3qA7PqV7-1" value="Techlog" style="shape=tableRow;horizontal=0;swimlaneHead=0;swimlaneBody=0;top=0;left=0;bottom=0;right=0;fillColor=none;points=[[0,0.5],[1,0.5]];portConstraint=eastwest;startSize=40;collapsible=0;recursiveResize=0;expand=0;fontStyle=1;" vertex="1" parent="1">
          <mxGeometry x="32" y="469" width="761" height="199" as="geometry" />
        </mxCell>
        <mxCell id="TAoAWtX_m3iu3qA7PqV7-2" value="" style="swimlane;swimlaneHead=0;swimlaneBody=0;connectable=0;fillColor=none;startSize=18;collapsible=0;recursiveResize=0;expand=0;fontStyle=1;opacity=0;" vertex="1" parent="TAoAWtX_m3iu3qA7PqV7-1">
          <mxGeometry x="40" width="143" height="199" as="geometry">
            <mxRectangle width="143" height="199" as="alternateBounds" />
          </mxGeometry>
        </mxCell>
        <mxCell id="TAoAWtX_m3iu3qA7PqV7-3" value="Users upload Wellbores, Datasets and logs" style="rounded=1;whiteSpace=wrap;html=1;arcSize=50;" vertex="1" parent="TAoAWtX_m3iu3qA7PqV7-2">
          <mxGeometry x="13" y="8" width="112" height="62" as="geometry" />
        </mxCell>
        <mxCell id="TAoAWtX_m3iu3qA7PqV7-4" value="" style="swimlane;swimlaneHead=0;swimlaneBody=0;connectable=0;fillColor=none;startSize=18;collapsible=0;recursiveResize=0;expand=0;fontStyle=1;opacity=0;" vertex="1" parent="TAoAWtX_m3iu3qA7PqV7-1">
          <mxGeometry x="198" y="1" width="430" height="199" as="geometry">
            <mxRectangle width="430" height="199" as="alternateBounds" />
          </mxGeometry>
        </mxCell>
        <mxCell id="oWKiz5bsHW4lTqZeQ6K0-31" value="" style="edgeStyle=orthogonalEdgeStyle;rounded=0;orthogonalLoop=1;jettySize=auto;html=1;dashed=1;exitX=1;exitY=0.5;exitDx=0;exitDy=0;shape=flexArrow;entryX=0;entryY=0.5;entryDx=0;entryDy=0;" edge="1" parent="TAoAWtX_m3iu3qA7PqV7-4" source="TAoAWtX_m3iu3qA7PqV7-7" target="TAoAWtX_m3iu3qA7PqV7-15">
          <mxGeometry relative="1" as="geometry">
            <mxPoint x="219" y="39" as="targetPoint" />
          </mxGeometry>
        </mxCell>
        <mxCell id="AdasjBB9pq6_NaWvRzlA-18" value="" style="edgeStyle=orthogonalEdgeStyle;rounded=0;orthogonalLoop=1;jettySize=auto;html=1;fontSize=11;" edge="1" parent="TAoAWtX_m3iu3qA7PqV7-4" source="TAoAWtX_m3iu3qA7PqV7-7" target="AdasjBB9pq6_NaWvRzlA-17">
          <mxGeometry relative="1" as="geometry" />
        </mxCell>
        <mxCell id="TAoAWtX_m3iu3qA7PqV7-7" value="&amp;nbsp; &amp;nbsp;Users set up reference log and desync log for each wellbore" style="whiteSpace=wrap;html=1;rounded=1;arcSize=50;" vertex="1" parent="TAoAWtX_m3iu3qA7PqV7-4">
          <mxGeometry x="49" y="8" width="131" height="61" as="geometry" />
        </mxCell>
        <mxCell id="TAoAWtX_m3iu3qA7PqV7-15" value="Users Run Dataiku Workflow" style="whiteSpace=wrap;html=1;rounded=1;arcSize=50;" vertex="1" parent="TAoAWtX_m3iu3qA7PqV7-4">
          <mxGeometry x="246" y="9" width="120" height="60" as="geometry" />
        </mxCell>
        <mxCell id="Nfhs9SFUBAPvRaXoZGoI-10" value="" style="line;strokeWidth=1;html=1;fillStyle=dots;strokeColor=default;fillColor=none;" vertex="1" parent="TAoAWtX_m3iu3qA7PqV7-4">
          <mxGeometry x="-181" y="-6" width="983" height="10" as="geometry" />
        </mxCell>
        <mxCell id="oWKiz5bsHW4lTqZeQ6K0-27" value="Trigger" style="text;html=1;strokeColor=none;fillColor=none;align=center;verticalAlign=middle;whiteSpace=wrap;rounded=0;fillStyle=dots;strokeWidth=1;rotation=0;" vertex="1" parent="TAoAWtX_m3iu3qA7PqV7-4">
          <mxGeometry x="227" y="126" width="54" height="25" as="geometry" />
        </mxCell>
        <mxCell id="oWKiz5bsHW4lTqZeQ6K0-62" value="" style="edgeStyle=orthogonalEdgeStyle;rounded=0;orthogonalLoop=1;jettySize=auto;html=1;entryX=0.5;entryY=0;entryDx=0;entryDy=0;exitX=0.458;exitY=1;exitDx=0;exitDy=0;exitPerimeter=0;" edge="1" parent="TAoAWtX_m3iu3qA7PqV7-4">
          <mxGeometry relative="1" as="geometry">
            <mxPoint x="275" y="260" as="targetPoint" />
            <mxPoint x="274.96000000000004" y="70" as="sourcePoint" />
            <Array as="points" />
          </mxGeometry>
        </mxCell>
        <mxCell id="AdasjBB9pq6_NaWvRzlA-3" value="File Parser" style="text;html=1;strokeColor=none;fillColor=none;align=center;verticalAlign=middle;whiteSpace=wrap;rounded=0;fillStyle=dots;strokeWidth=1;rotation=0;" vertex="1" parent="TAoAWtX_m3iu3qA7PqV7-4">
          <mxGeometry x="85" y="142.5" width="54" height="25" as="geometry" />
        </mxCell>
        <mxCell id="AdasjBB9pq6_NaWvRzlA-17" value="" style="shape=hexagon;perimeter=hexagonPerimeter2;whiteSpace=wrap;html=1;fixedSize=1;shadow=0;glass=0;sketch=0;fillStyle=solid;strokeColor=default;strokeWidth=1;fontSize=11;fillColor=none;" vertex="1" parent="TAoAWtX_m3iu3qA7PqV7-4">
          <mxGeometry x="70" y="111" width="90" height="62" as="geometry" />
        </mxCell>
        <mxCell id="oWKiz5bsHW4lTqZeQ6K0-26" value="Upload to Dataiku" style="text;html=1;strokeColor=none;fillColor=none;align=center;verticalAlign=middle;whiteSpace=wrap;rounded=0;fillStyle=dots;strokeWidth=1;rotation=0;" vertex="1" parent="TAoAWtX_m3iu3qA7PqV7-4">
          <mxGeometry x="112" y="194" width="80" height="24" as="geometry" />
        </mxCell>
        <mxCell id="TAoAWtX_m3iu3qA7PqV7-16" value="" style="swimlane;swimlaneHead=0;swimlaneBody=0;connectable=0;fillColor=none;startSize=18;collapsible=0;recursiveResize=0;expand=0;fontStyle=1;opacity=0;swimlaneLine=0;" vertex="1" parent="TAoAWtX_m3iu3qA7PqV7-1">
          <mxGeometry x="613" width="148" height="199" as="geometry">
            <mxRectangle width="148" height="199" as="alternateBounds" />
          </mxGeometry>
        </mxCell>
        <mxCell id="TAoAWtX_m3iu3qA7PqV7-19" value="Users Download depth matched logs" style="whiteSpace=wrap;html=1;rounded=1;arcSize=50;" vertex="1" parent="TAoAWtX_m3iu3qA7PqV7-16">
          <mxGeometry x="47" y="11" width="135" height="59" as="geometry" />
        </mxCell>
        <mxCell id="oWKiz5bsHW4lTqZeQ6K0-35" value="" style="edgeStyle=orthogonalEdgeStyle;rounded=0;orthogonalLoop=1;jettySize=auto;html=1;entryX=0.5;entryY=0;entryDx=0;entryDy=0;" edge="1" parent="TAoAWtX_m3iu3qA7PqV7-16">
          <mxGeometry relative="1" as="geometry">
            <mxPoint x="88" y="265" as="targetPoint" />
            <mxPoint x="88" y="79" as="sourcePoint" />
            <Array as="points">
              <mxPoint x="89" y="79" />
              <mxPoint x="89" y="166" />
              <mxPoint x="88" y="166" />
            </Array>
          </mxGeometry>
        </mxCell>
        <mxCell id="oWKiz5bsHW4lTqZeQ6K0-36" value="Trigger" style="text;html=1;strokeColor=none;fillColor=none;align=center;verticalAlign=middle;whiteSpace=wrap;rounded=0;fillStyle=dots;strokeWidth=1;rotation=0;" vertex="1" parent="TAoAWtX_m3iu3qA7PqV7-16">
          <mxGeometry x="42" y="125" width="54" height="25" as="geometry" />
        </mxCell>
        <mxCell id="oWKiz5bsHW4lTqZeQ6K0-32" value="" style="edgeStyle=orthogonalEdgeStyle;rounded=0;orthogonalLoop=1;jettySize=auto;html=1;dashed=1;shape=flexArrow;" edge="1" parent="TAoAWtX_m3iu3qA7PqV7-1" source="TAoAWtX_m3iu3qA7PqV7-15" target="TAoAWtX_m3iu3qA7PqV7-19">
          <mxGeometry relative="1" as="geometry" />
        </mxCell>
        <mxCell id="Nfhs9SFUBAPvRaXoZGoI-1" value="Dataiku" style="shape=tableRow;horizontal=0;swimlaneHead=0;swimlaneBody=0;top=0;left=0;bottom=0;right=0;fillColor=none;points=[[0,0.5],[1,0.5]];portConstraint=eastwest;startSize=40;collapsible=0;recursiveResize=0;expand=0;fontStyle=1;" vertex="1" parent="1">
          <mxGeometry x="32" y="668" width="771" height="164" as="geometry" />
        </mxCell>
        <mxCell id="Nfhs9SFUBAPvRaXoZGoI-2" value="" style="swimlane;swimlaneHead=0;swimlaneBody=0;connectable=0;fillColor=none;startSize=0;collapsible=0;recursiveResize=0;expand=0;fontStyle=1;" vertex="1" parent="Nfhs9SFUBAPvRaXoZGoI-1">
          <mxGeometry x="40" width="143" height="144" as="geometry">
            <mxRectangle width="143" height="144" as="alternateBounds" />
          </mxGeometry>
        </mxCell>
        <mxCell id="Nfhs9SFUBAPvRaXoZGoI-3" value="" style="swimlane;swimlaneHead=0;swimlaneBody=0;connectable=0;fillColor=none;startSize=0;collapsible=0;recursiveResize=0;expand=0;fontStyle=1;" vertex="1" parent="Nfhs9SFUBAPvRaXoZGoI-1">
          <mxGeometry x="184" y="6" width="430" height="144" as="geometry">
            <mxRectangle width="430" height="144" as="alternateBounds" />
          </mxGeometry>
        </mxCell>
        <mxCell id="tvreD9w-iVbyFF1-U2Bg-1" value="" style="line;strokeWidth=1;html=1;fillStyle=dots;strokeColor=default;fillColor=none;" vertex="1" parent="Nfhs9SFUBAPvRaXoZGoI-3">
          <mxGeometry x="-180.5" y="10" width="981.5" height="10" as="geometry" />
        </mxCell>
        <mxCell id="oWKiz5bsHW4lTqZeQ6K0-2" value="Dataiku Folder" style="rounded=0;whiteSpace=wrap;html=1;" vertex="1" parent="Nfhs9SFUBAPvRaXoZGoI-3">
          <mxGeometry x="73" y="75" width="101" height="48" as="geometry" />
        </mxCell>
        <mxCell id="oWKiz5bsHW4lTqZeQ6K0-63" value="" style="endArrow=classic;html=1;rounded=0;fontSize=11;dashed=1;" edge="1" parent="Nfhs9SFUBAPvRaXoZGoI-3">
          <mxGeometry width="50" height="50" relative="1" as="geometry">
            <mxPoint x="177" y="107" as="sourcePoint" />
            <mxPoint x="260" y="107" as="targetPoint" />
          </mxGeometry>
        </mxCell>
        <mxCell id="oWKiz5bsHW4lTqZeQ6K0-65" value="" style="endArrow=classic;html=1;rounded=0;fontSize=11;dashed=1;" edge="1" parent="Nfhs9SFUBAPvRaXoZGoI-3">
          <mxGeometry width="50" height="50" relative="1" as="geometry">
            <mxPoint x="316" y="115" as="sourcePoint" />
            <mxPoint x="346" y="115" as="targetPoint" />
            <Array as="points" />
          </mxGeometry>
        </mxCell>
        <mxCell id="AdasjBB9pq6_NaWvRzlA-8" value="Parquet Files" style="text;html=1;strokeColor=none;fillColor=none;align=center;verticalAlign=middle;whiteSpace=wrap;rounded=0;shadow=0;glass=0;sketch=0;fillStyle=solid;strokeWidth=1;fontSize=11;" vertex="1" parent="Nfhs9SFUBAPvRaXoZGoI-3">
          <mxGeometry x="198" y="70" width="60" height="30" as="geometry" />
        </mxCell>
        <mxCell id="Nfhs9SFUBAPvRaXoZGoI-6" value="" style="swimlane;swimlaneHead=0;swimlaneBody=0;connectable=0;fillColor=none;startSize=0;collapsible=0;recursiveResize=0;expand=0;fontStyle=1;" vertex="1" parent="Nfhs9SFUBAPvRaXoZGoI-1">
          <mxGeometry x="613" width="148" height="144" as="geometry">
            <mxRectangle width="148" height="144" as="alternateBounds" />
          </mxGeometry>
        </mxCell>
        <mxCell id="oWKiz5bsHW4lTqZeQ6K0-37" value="&lt;font style=&quot;border-color: var(--border-color);&quot;&gt;&lt;br style=&quot;border-color: var(--border-color);&quot;&gt;&lt;br style=&quot;border-color: var(--border-color);&quot;&gt;Scenario:&amp;nbsp;&lt;span style=&quot;border-color: var(--border-color);&quot;&gt;generating synced logs, shift table,&lt;/span&gt;&lt;br style=&quot;border-color: var(--border-color);&quot;&gt;&lt;span style=&quot;border-color: var(--border-color);&quot;&gt;and sending email notification&lt;/span&gt;&lt;/font&gt;&lt;br style=&quot;border-color: var(--border-color); font-size: 12px;&quot;&gt;&lt;span style=&quot;font-size: 12px;&quot;&gt;&amp;nbsp;&lt;/span&gt;&lt;span style=&quot;border-color: var(--border-color); color: rgba(0, 0, 0, 0); font-family: monospace; font-size: 0px; text-align: start;&quot;&gt;%3CmxGraphModel%3E%3Croot%3E%3CmxCell%20id%3D%220%22%2F%3E%3CmxCell%20id%3D%221%22%20parent%3D%220%22%2F%3E%3CmxCell%20id%3D%222%22%20value%3D%22Output%20Folder%22%20style%3D%22shape%3Ddocument%3BwhiteSpace%3Dwrap%3Bhtml%3D1%3BboundedLbl%3D1%3B%22%20vertex%3D%221%22%20parent%3D%221%22%3E%3CmxGeometry%20x%3D%22678%22%20y%3D%22716%22%20width%3D%22103%22%20height%3D%2269%22%20as%3D%22geometry%22%2F%3E%3C%2FmxCell%3E%3C%2Froot%3E%3C%2FmxGraphModel%3E&lt;/span&gt;" style="shape=hexagon;perimeter=hexagonPerimeter2;whiteSpace=wrap;html=1;fixedSize=1;fillStyle=dots;strokeColor=default;strokeWidth=1;fontSize=11;fillColor=none;" vertex="1" parent="Nfhs9SFUBAPvRaXoZGoI-6">
          <mxGeometry x="-161" y="63" width="121" height="83" as="geometry" />
        </mxCell>
        <mxCell id="AdasjBB9pq6_NaWvRzlA-9" value="Datasets: synced logs and shift table" style="text;whiteSpace=wrap;html=1;fontSize=11;" vertex="1" parent="Nfhs9SFUBAPvRaXoZGoI-6">
          <mxGeometry x="-33" y="78" width="111" height="35" as="geometry" />
        </mxCell>
        <mxCell id="oWKiz5bsHW4lTqZeQ6K0-38" value="&lt;font style=&quot;border-color: var(--border-color);&quot;&gt;&lt;br style=&quot;border-color: var(--border-color);&quot;&gt;&lt;br style=&quot;border-color: var(--border-color);&quot;&gt;&amp;nbsp; Scenario:&amp;nbsp; compressing Dataiku datasets into parquet files&lt;/font&gt;&lt;br style=&quot;border-color: var(--border-color); font-size: 12px;&quot;&gt;&lt;span style=&quot;font-size: 12px;&quot;&gt;&amp;nbsp;&lt;/span&gt;&lt;span style=&quot;border-color: var(--border-color); color: rgba(0, 0, 0, 0); font-family: monospace; font-size: 0px; text-align: start;&quot;&gt;%3CmxGraphModel%3E%3Croot%3E%3CmxCell%20id%3D%220%22%2F%3E%3CmxCell%20id%3D%221%22%20parent%3D%220%22%2F%3E%3CmxCell%20id%3D%222%22%20value%3D%22Output%20Folder%22%20style%3D%22shape%3Ddocument%3BwhiteSpace%3Dwrap%3Bhtml%3D1%3BboundedLbl%3D1%3B%22%20vertex%3D%221%22%20parent%3D%221%22%3E%3CmxGeometry%20x%3D%22678%22%20y%3D%22716%22%20width%3D%22103%22%20height%3D%2269%22%20as%3D%22geometry%22%2F%3E%3C%2FmxCell%3E%3C%2Froot%3E%3C%2FmxGraphModel%3E&lt;/span&gt;" style="shape=hexagon;perimeter=hexagonPerimeter2;whiteSpace=wrap;html=1;fixedSize=1;fillStyle=dots;strokeColor=default;strokeWidth=1;fontSize=11;fillColor=none;" vertex="1" parent="Nfhs9SFUBAPvRaXoZGoI-1">
          <mxGeometry x="685" y="70" width="120" height="80" as="geometry" />
        </mxCell>
        <mxCell id="oWKiz5bsHW4lTqZeQ6K0-66" value="" style="endArrow=classic;html=1;rounded=0;fontSize=11;dashed=1;exitX=1;exitY=0.75;exitDx=0;exitDy=0;" edge="1" parent="Nfhs9SFUBAPvRaXoZGoI-1" source="oWKiz5bsHW4lTqZeQ6K0-37">
          <mxGeometry width="50" height="50" relative="1" as="geometry">
            <mxPoint x="621" y="122" as="sourcePoint" />
            <mxPoint x="683" y="122" as="targetPoint" />
            <Array as="points">
              <mxPoint x="655" y="122" />
            </Array>
          </mxGeometry>
        </mxCell>
        <mxCell id="oWKiz5bsHW4lTqZeQ6K0-1" value="&lt;span style=&quot;font-weight: 700;&quot;&gt;Log QC Solution - Auto Depth Matching Workflow&lt;/span&gt;" style="text;html=1;strokeColor=none;fillColor=none;align=center;verticalAlign=middle;whiteSpace=wrap;rounded=0;fillStyle=dots;strokeWidth=1;" vertex="1" parent="1">
          <mxGeometry x="333" y="439" width="408" height="30" as="geometry" />
        </mxCell>
        <mxCell id="oWKiz5bsHW4lTqZeQ6K0-55" value="" style="edgeStyle=orthogonalEdgeStyle;rounded=0;orthogonalLoop=1;jettySize=auto;html=1;fontSize=11;entryX=0.5;entryY=1;entryDx=0;entryDy=0;" edge="1" parent="1" target="oWKiz5bsHW4lTqZeQ6K0-49">
          <mxGeometry x="-0.2793" y="-5" relative="1" as="geometry">
            <mxPoint x="941" y="744" as="sourcePoint" />
            <Array as="points" />
            <mxPoint x="1" as="offset" />
          </mxGeometry>
        </mxCell>
        <mxCell id="oWKiz5bsHW4lTqZeQ6K0-6" value="Dataiku Folder" style="whiteSpace=wrap;html=1;" vertex="1" parent="1">
          <mxGeometry x="891" y="757" width="101" height="49" as="geometry" />
        </mxCell>
        <mxCell id="oWKiz5bsHW4lTqZeQ6K0-47" value="Parquet Files" style="whiteSpace=wrap;html=1;" vertex="1" parent="1">
          <mxGeometry x="881" y="593" width="101" height="47" as="geometry" />
        </mxCell>
        <mxCell id="oWKiz5bsHW4lTqZeQ6K0-58" value="" style="edgeStyle=orthogonalEdgeStyle;rounded=0;orthogonalLoop=1;jettySize=auto;html=1;fontSize=11;" edge="1" parent="1" target="oWKiz5bsHW4lTqZeQ6K0-57">
          <mxGeometry relative="1" as="geometry">
            <mxPoint x="941" y="589" as="sourcePoint" />
            <Array as="points">
              <mxPoint x="941" y="567" />
              <mxPoint x="941" y="567" />
            </Array>
          </mxGeometry>
        </mxCell>
        <mxCell id="oWKiz5bsHW4lTqZeQ6K0-49" value="Parquet Files" style="whiteSpace=wrap;html=1;" vertex="1" parent="1">
          <mxGeometry x="891" y="602" width="101" height="49" as="geometry" />
        </mxCell>
        <mxCell id="oWKiz5bsHW4lTqZeQ6K0-54" value="" style="endArrow=classic;html=1;rounded=0;fontSize=11;dashed=1;" edge="1" parent="1">
          <mxGeometry width="50" height="50" relative="1" as="geometry">
            <mxPoint x="815.75" y="789" as="sourcePoint" />
            <mxPoint x="887.75" y="789" as="targetPoint" />
          </mxGeometry>
        </mxCell>
        <mxCell id="oWKiz5bsHW4lTqZeQ6K0-56" value="Download from Dataiku" style="text;html=1;strokeColor=none;fillColor=none;align=center;verticalAlign=middle;whiteSpace=wrap;rounded=0;fillStyle=dots;strokeWidth=1;rotation=0;" vertex="1" parent="1">
          <mxGeometry x="864" y="658" width="72" height="27" as="geometry" />
        </mxCell>
        <mxCell id="oWKiz5bsHW4lTqZeQ6K0-57" value="&amp;nbsp;Synced logs and shift tables automatically appear in Wellbores" style="ellipse;whiteSpace=wrap;html=1;" vertex="1" parent="1">
          <mxGeometry x="888" y="472" width="119" height="86" as="geometry" />
        </mxCell>
        <mxCell id="AdasjBB9pq6_NaWvRzlA-4" value="Parse" style="text;html=1;strokeColor=none;fillColor=none;align=center;verticalAlign=middle;whiteSpace=wrap;rounded=0;fillStyle=dots;strokeWidth=1;rotation=0;" vertex="1" parent="1">
          <mxGeometry x="888" y="562" width="53" height="26" as="geometry" />
        </mxCell>
        <mxCell id="AdasjBB9pq6_NaWvRzlA-15" value="" style="shape=flexArrow;endArrow=classic;html=1;rounded=0;dashed=1;fontSize=11;" edge="1" parent="1" target="TAoAWtX_m3iu3qA7PqV7-7">
          <mxGeometry width="50" height="50" relative="1" as="geometry">
            <mxPoint x="198" y="508" as="sourcePoint" />
            <mxPoint x="248" y="461" as="targetPoint" />
            <Array as="points" />
          </mxGeometry>
        </mxCell>
        <mxCell id="AdasjBB9pq6_NaWvRzlA-19" value="" style="edgeStyle=orthogonalEdgeStyle;rounded=0;orthogonalLoop=1;jettySize=auto;html=1;fontSize=11;" edge="1" parent="1" source="AdasjBB9pq6_NaWvRzlA-17" target="oWKiz5bsHW4lTqZeQ6K0-2">
          <mxGeometry relative="1" as="geometry">
            <Array as="points">
              <mxPoint x="345" y="722" />
              <mxPoint x="345" y="722" />
            </Array>
          </mxGeometry>
        </mxCell>
        <mxCell id="jyPi0tdEBOoCSFYBMO9k-4" value="" style="edgeStyle=orthogonalEdgeStyle;rounded=0;orthogonalLoop=1;jettySize=auto;html=1;fontSize=11;fontColor=none;" edge="1" parent="1" source="AdasjBB9pq6_NaWvRzlA-21" target="jyPi0tdEBOoCSFYBMO9k-12">
          <mxGeometry relative="1" as="geometry">
            <mxPoint x="248" y="1164" as="targetPoint" />
            <Array as="points">
              <mxPoint x="163" y="1169" />
              <mxPoint x="163" y="1169" />
            </Array>
          </mxGeometry>
        </mxCell>
        <mxCell id="AdasjBB9pq6_NaWvRzlA-21" value="Actor" style="shape=umlActor;verticalLabelPosition=bottom;verticalAlign=top;html=1;outlineConnect=0;shadow=0;glass=0;sketch=0;fillStyle=solid;strokeColor=default;strokeWidth=1;fontSize=11;fillColor=none;fontColor=none;noLabel=1;" vertex="1" parent="1">
          <mxGeometry x="55" y="1136" width="34" height="56" as="geometry" />
        </mxCell>
        <mxCell id="5ELwXX_UnFFXWlYy34Mo-2" value="&lt;p&gt;;&lt;/p&gt;" style="rounded=0;whiteSpace=wrap;html=1;shadow=0;glass=0;sketch=0;fillStyle=solid;strokeColor=default;strokeWidth=1;fontSize=11;fontColor=none;fillColor=none;align=left;dashed=1;" vertex="1" parent="1">
          <mxGeometry x="240" y="1081" width="238" height="196.5" as="geometry" />
        </mxCell>
        <mxCell id="5ELwXX_UnFFXWlYy34Mo-4" value="Techlog" style="text;html=1;strokeColor=none;fillColor=none;align=center;verticalAlign=middle;whiteSpace=wrap;rounded=0;shadow=0;glass=0;sketch=0;fillStyle=solid;strokeWidth=1;fontSize=11;fontColor=none;" vertex="1" parent="1">
          <mxGeometry x="242" y="1086" width="60" height="30" as="geometry" />
        </mxCell>
        <mxCell id="jyPi0tdEBOoCSFYBMO9k-5" value="Run Workflow" style="text;html=1;strokeColor=none;fillColor=none;align=center;verticalAlign=middle;whiteSpace=wrap;rounded=0;shadow=0;glass=0;sketch=0;fillStyle=solid;strokeWidth=1;fontSize=11;fontColor=none;" vertex="1" parent="1">
          <mxGeometry x="101" y="1126" width="141" height="29" as="geometry" />
        </mxCell>
        <mxCell id="jyPi0tdEBOoCSFYBMO9k-7" value="" style="edgeStyle=orthogonalEdgeStyle;rounded=0;orthogonalLoop=1;jettySize=auto;html=1;fontSize=11;fontColor=none;entryX=-0.006;entryY=0.603;entryDx=0;entryDy=0;entryPerimeter=0;" edge="1" parent="1" source="jyPi0tdEBOoCSFYBMO9k-8" target="jyPi0tdEBOoCSFYBMO9k-13">
          <mxGeometry relative="1" as="geometry">
            <mxPoint x="441" y="1466" as="targetPoint" />
            <Array as="points">
              <mxPoint x="327" y="1474" />
              <mxPoint x="327" y="1474" />
            </Array>
          </mxGeometry>
        </mxCell>
        <mxCell id="jyPi0tdEBOoCSFYBMO9k-8" value="Actor" style="shape=umlActor;verticalLabelPosition=bottom;verticalAlign=top;html=1;outlineConnect=0;shadow=0;glass=0;sketch=0;fillStyle=solid;strokeColor=default;strokeWidth=1;fontSize=11;fillColor=none;fontColor=none;noLabel=1;" vertex="1" parent="1">
          <mxGeometry x="248" y="1438" width="34" height="56" as="geometry" />
        </mxCell>
        <mxCell id="jyPi0tdEBOoCSFYBMO9k-9" value="&lt;p&gt;;&lt;/p&gt;" style="rounded=0;whiteSpace=wrap;html=1;shadow=0;glass=0;sketch=0;fillStyle=solid;strokeColor=default;strokeWidth=1;fontSize=11;fontColor=none;fillColor=none;align=left;dashed=1;" vertex="1" parent="1">
          <mxGeometry x="433" y="1383" width="238" height="196.5" as="geometry" />
        </mxCell>
        <mxCell id="jyPi0tdEBOoCSFYBMO9k-10" value="Config Dataiku&amp;nbsp;" style="text;html=1;strokeColor=none;fillColor=none;align=center;verticalAlign=middle;whiteSpace=wrap;rounded=0;shadow=0;glass=0;sketch=0;fillStyle=solid;strokeWidth=1;fontSize=11;fontColor=none;" vertex="1" parent="1">
          <mxGeometry x="294" y="1428" width="141" height="29" as="geometry" />
        </mxCell>
        <mxCell id="jyPi0tdEBOoCSFYBMO9k-11" value="Techlog" style="text;html=1;strokeColor=none;fillColor=none;align=center;verticalAlign=middle;whiteSpace=wrap;rounded=0;shadow=0;glass=0;sketch=0;fillStyle=solid;strokeWidth=1;fontSize=11;fontColor=none;" vertex="1" parent="1">
          <mxGeometry x="433" y="1383" width="60" height="30" as="geometry" />
        </mxCell>
        <mxCell id="qs7FjD40Ol53RuQo5PRx-4" value="" style="edgeStyle=orthogonalEdgeStyle;rounded=0;orthogonalLoop=1;jettySize=auto;html=1;fontSize=11;fontColor=none;entryX=0;entryY=0.5;entryDx=0;entryDy=0;" edge="1" parent="1" source="jyPi0tdEBOoCSFYBMO9k-12" target="qs7FjD40Ol53RuQo5PRx-1">
          <mxGeometry relative="1" as="geometry">
            <mxPoint x="509" y="1169" as="targetPoint" />
            <Array as="points">
              <mxPoint x="474" y="1164" />
              <mxPoint x="474" y="1164" />
            </Array>
          </mxGeometry>
        </mxCell>
        <mxCell id="jyPi0tdEBOoCSFYBMO9k-12" value="Trigger Script" style="ellipse;whiteSpace=wrap;html=1;shadow=0;glass=0;sketch=0;fillStyle=solid;strokeColor=default;strokeWidth=1;fontSize=11;fontColor=none;fillColor=none;" vertex="1" parent="1">
          <mxGeometry x="289" y="1129" width="120" height="80" as="geometry" />
        </mxCell>
        <mxCell id="jyPi0tdEBOoCSFYBMO9k-13" value="Configure Setting Script" style="ellipse;whiteSpace=wrap;html=1;shadow=0;glass=0;sketch=0;fillStyle=solid;strokeColor=default;strokeWidth=1;fontSize=11;fontColor=none;fillColor=none;" vertex="1" parent="1">
          <mxGeometry x="471" y="1426" width="120" height="80" as="geometry" />
        </mxCell>
        <mxCell id="jyPi0tdEBOoCSFYBMO9k-14" value="&lt;p&gt;;&lt;/p&gt;" style="rounded=0;whiteSpace=wrap;html=1;shadow=0;glass=0;sketch=0;fillStyle=solid;strokeColor=default;strokeWidth=1;fontSize=11;fontColor=none;fillColor=none;align=left;dashed=1;" vertex="1" parent="1">
          <mxGeometry x="558" y="1081" width="238" height="196.5" as="geometry" />
        </mxCell>
        <mxCell id="jyPi0tdEBOoCSFYBMO9k-15" value="Dataiku" style="text;html=1;strokeColor=none;fillColor=none;align=center;verticalAlign=middle;whiteSpace=wrap;rounded=0;shadow=0;glass=0;sketch=0;fillStyle=solid;strokeWidth=1;fontSize=11;fontColor=none;" vertex="1" parent="1">
          <mxGeometry x="577" y="1093" width="60" height="30" as="geometry" />
        </mxCell>
        <mxCell id="qs7FjD40Ol53RuQo5PRx-1" value="&lt;font style=&quot;border-color: var(--border-color);&quot;&gt;&lt;br style=&quot;border-color: var(--border-color);&quot;&gt;&lt;br style=&quot;border-color: var(--border-color);&quot;&gt;Scenario:&amp;nbsp;&lt;span style=&quot;border-color: var(--border-color);&quot;&gt;generating synced logs, shift table,&lt;/span&gt;&lt;br style=&quot;border-color: var(--border-color);&quot;&gt;&lt;span style=&quot;border-color: var(--border-color);&quot;&gt;and sending email notification&lt;/span&gt;&lt;/font&gt;&lt;br style=&quot;border-color: var(--border-color); font-size: 12px;&quot;&gt;&lt;span style=&quot;font-size: 12px;&quot;&gt;&amp;nbsp;&lt;/span&gt;&lt;span style=&quot;border-color: var(--border-color); color: rgba(0, 0, 0, 0); font-family: monospace; font-size: 0px; text-align: start;&quot;&gt;%3CmxGraphModel%3E%3Croot%3E%3CmxCell%20id%3D%220%22%2F%3E%3CmxCell%20id%3D%221%22%20parent%3D%220%22%2F%3E%3CmxCell%20id%3D%222%22%20value%3D%22Output%20Folder%22%20style%3D%22shape%3Ddocument%3BwhiteSpace%3Dwrap%3Bhtml%3D1%3BboundedLbl%3D1%3B%22%20vertex%3D%221%22%20parent%3D%221%22%3E%3CmxGeometry%20x%3D%22678%22%20y%3D%22716%22%20width%3D%22103%22%20height%3D%2269%22%20as%3D%22geometry%22%2F%3E%3C%2FmxCell%3E%3C%2Froot%3E%3C%2FmxGraphModel%3E&lt;/span&gt;" style="shape=hexagon;perimeter=hexagonPerimeter2;whiteSpace=wrap;html=1;fixedSize=1;fillStyle=dots;strokeColor=default;strokeWidth=1;fontSize=11;fillColor=none;" vertex="1" parent="1">
          <mxGeometry x="667" y="1122.5" width="121" height="83" as="geometry" />
        </mxCell>
        <mxCell id="zTlk73MJ0J8sTEkpcRCo-4" value="" style="edgeStyle=orthogonalEdgeStyle;rounded=0;orthogonalLoop=1;jettySize=auto;html=1;fontSize=11;fontColor=none;" edge="1" parent="1" source="qs7FjD40Ol53RuQo5PRx-2" target="qs7FjD40Ol53RuQo5PRx-1">
          <mxGeometry relative="1" as="geometry">
            <Array as="points">
              <mxPoint x="740" y="1235" />
            </Array>
          </mxGeometry>
        </mxCell>
        <mxCell id="qs7FjD40Ol53RuQo5PRx-2" value="Wellbore Data Storage" style="shape=cylinder3;whiteSpace=wrap;html=1;boundedLbl=1;backgroundOutline=1;size=15;shadow=0;glass=0;sketch=0;fillStyle=solid;strokeColor=default;strokeWidth=1;fontSize=11;fontColor=none;fillColor=none;" vertex="1" parent="1">
          <mxGeometry x="571" y="1195" width="60" height="80" as="geometry" />
        </mxCell>
        <mxCell id="qs7FjD40Ol53RuQo5PRx-6" value="Trigger" style="text;html=1;strokeColor=none;fillColor=none;align=center;verticalAlign=middle;whiteSpace=wrap;rounded=0;shadow=0;glass=0;sketch=0;fillStyle=solid;strokeWidth=1;fontSize=11;fontColor=none;" vertex="1" parent="1">
          <mxGeometry x="487" y="1132" width="60" height="30" as="geometry" />
        </mxCell>
        <mxCell id="IjUl0D-bycez6A-leVOT-1" value="Users upload Wellbores, &lt;br&gt;Datasets and logs" style="shape=step;perimeter=stepPerimeter;whiteSpace=wrap;html=1;fixedSize=1;shadow=0;glass=0;labelBackgroundColor=#FFFFFF;sketch=0;fillStyle=solid;strokeColor=#00000F;strokeWidth=1;fontSize=11;fontColor=#00000F;fillColor=#FFFFFF;" vertex="1" parent="1">
          <mxGeometry x="498" y="16" width="173" height="80" as="geometry" />
        </mxCell>
        <mxCell id="IjUl0D-bycez6A-leVOT-2" value="&amp;nbsp;Users Run Dataiku Workflow" style="shape=step;perimeter=stepPerimeter;whiteSpace=wrap;html=1;fixedSize=1;shadow=0;glass=0;labelBackgroundColor=#FFFFFF;sketch=0;fillStyle=solid;strokeColor=#00000F;strokeWidth=1;fontSize=11;fontColor=#00000F;fillColor=#FFFFFF;" vertex="1" parent="1">
          <mxGeometry x="720" y="34" width="190" height="80" as="geometry" />
        </mxCell>
        <mxCell id="IjUl0D-bycez6A-leVOT-3" value="Users download depth matched logs" style="shape=step;perimeter=stepPerimeter;whiteSpace=wrap;html=1;fixedSize=1;shadow=0;glass=0;labelBackgroundColor=#FFFFFF;sketch=0;fillStyle=solid;strokeColor=#00000F;strokeWidth=1;fontSize=11;fontColor=#00000F;fillColor=#FFFFFF;" vertex="1" parent="1">
          <mxGeometry x="853" y="112" width="226" height="68" as="geometry" />
        </mxCell>
        <mxCell id="8iJGgzaJsvT6Nrws7daA-1" value="Users set up reference log and desync log" style="text;html=1;strokeColor=none;fillColor=none;align=center;verticalAlign=middle;whiteSpace=wrap;rounded=0;shadow=0;glass=0;labelBackgroundColor=#FFFFFF;sketch=0;fillStyle=solid;strokeWidth=1;fontSize=11;fontColor=#FFFFFF;" vertex="1" parent="1">
          <mxGeometry x="507" y="282" width="126" height="30" as="geometry" />
        </mxCell>
      </root>
    </mxGraphModel>
  </diagram>
  <diagram name="first step" id="3XYKaTTA981nDIO4W6EX">
    <mxGraphModel dx="743" dy="475" grid="0" gridSize="10" guides="1" tooltips="1" connect="1" arrows="1" fold="1" page="1" pageScale="1" pageWidth="1169" pageHeight="1654" math="0" shadow="0">
      <root>
        <mxCell id="ib6p0KzZ9A0hSwNpb73h-0" />
        <mxCell id="ib6p0KzZ9A0hSwNpb73h-1" parent="ib6p0KzZ9A0hSwNpb73h-0" />
        <mxCell id="ib6p0KzZ9A0hSwNpb73h-2" value="" style="rounded=1;whiteSpace=wrap;html=1;fillStyle=solid;strokeColor=#6c8ebf;strokeWidth=1;fontSize=11;fillColor=#dae8fc;shadow=0;glass=0;" vertex="1" parent="ib6p0KzZ9A0hSwNpb73h-1">
          <mxGeometry x="80" y="473" width="748" height="74" as="geometry" />
        </mxCell>
        <mxCell id="ib6p0KzZ9A0hSwNpb73h-3" value="Wells, Datasets and logs" style="rounded=1;whiteSpace=wrap;html=1;arcSize=50;" vertex="1" parent="ib6p0KzZ9A0hSwNpb73h-1">
          <mxGeometry x="100" y="113" width="110" height="60" as="geometry" />
        </mxCell>
        <mxCell id="ib6p0KzZ9A0hSwNpb73h-4" value="Parquet Files" style="rounded=0;whiteSpace=wrap;html=1;" vertex="1" parent="ib6p0KzZ9A0hSwNpb73h-1">
          <mxGeometry x="258" y="213" width="90" height="40" as="geometry" />
        </mxCell>
        <mxCell id="ib6p0KzZ9A0hSwNpb73h-5" value="Set up reference log and to-sync log for each well" style="whiteSpace=wrap;html=1;rounded=1;arcSize=50;" vertex="1" parent="ib6p0KzZ9A0hSwNpb73h-1">
          <mxGeometry x="248" y="113" width="124" height="63" as="geometry" />
        </mxCell>
        <mxCell id="ib6p0KzZ9A0hSwNpb73h-6" value="Input Folder" style="shape=document;whiteSpace=wrap;html=1;boundedLbl=1;" vertex="1" parent="ib6p0KzZ9A0hSwNpb73h-1">
          <mxGeometry x="260" y="278" width="90" height="60" as="geometry" />
        </mxCell>
        <mxCell id="ib6p0KzZ9A0hSwNpb73h-7" value="Trigger the scenario generating synced logs, shift table,&lt;br&gt;and sending email notification" style="text;html=1;align=center;verticalAlign=middle;resizable=0;points=[];autosize=1;strokeColor=none;fillColor=none;" vertex="1" parent="ib6p0KzZ9A0hSwNpb73h-1">
          <mxGeometry x="364" y="271" width="312" height="41" as="geometry" />
        </mxCell>
        <mxCell id="ib6p0KzZ9A0hSwNpb73h-8" value="Output Folder" style="shape=document;whiteSpace=wrap;html=1;boundedLbl=1;" vertex="1" parent="ib6p0KzZ9A0hSwNpb73h-1">
          <mxGeometry x="700" y="271" width="90" height="60" as="geometry" />
        </mxCell>
        <mxCell id="ib6p0KzZ9A0hSwNpb73h-9" value="Parquet Files" style="whiteSpace=wrap;html=1;" vertex="1" parent="ib6p0KzZ9A0hSwNpb73h-1">
          <mxGeometry x="676" y="211" width="120" height="60" as="geometry" />
        </mxCell>
        <mxCell id="ib6p0KzZ9A0hSwNpb73h-10" value="Download depth matched logs" style="whiteSpace=wrap;html=1;rounded=1;arcSize=50;" vertex="1" parent="ib6p0KzZ9A0hSwNpb73h-1">
          <mxGeometry x="676" y="113" width="120" height="60" as="geometry" />
        </mxCell>
        <mxCell id="ib6p0KzZ9A0hSwNpb73h-11" value="Run Dataiku Workflow" style="whiteSpace=wrap;html=1;rounded=1;arcSize=50;" vertex="1" parent="ib6p0KzZ9A0hSwNpb73h-1">
          <mxGeometry x="448" y="113" width="120" height="60" as="geometry" />
        </mxCell>
        <mxCell id="ib6p0KzZ9A0hSwNpb73h-12" value="Techlog" style="shape=tableRow;horizontal=0;swimlaneHead=0;swimlaneBody=0;top=0;left=0;bottom=0;right=0;fillColor=none;points=[[0,0.5],[1,0.5]];portConstraint=eastwest;startSize=40;collapsible=0;recursiveResize=0;expand=0;fontStyle=1;" vertex="1" parent="ib6p0KzZ9A0hSwNpb73h-1">
          <mxGeometry x="33" y="468" width="761" height="199" as="geometry" />
        </mxCell>
        <mxCell id="ib6p0KzZ9A0hSwNpb73h-13" value="" style="swimlane;swimlaneHead=0;swimlaneBody=0;connectable=0;fillColor=none;startSize=18;collapsible=0;recursiveResize=0;expand=0;fontStyle=1;opacity=0;" vertex="1" parent="ib6p0KzZ9A0hSwNpb73h-12">
          <mxGeometry x="40" width="143" height="199" as="geometry">
            <mxRectangle width="143" height="199" as="alternateBounds" />
          </mxGeometry>
        </mxCell>
        <mxCell id="J1uIO6jE7GZyl3HjFFQV-10" value="&lt;font color=&quot;#ffffff&quot; style=&quot;font-size: 14px;&quot;&gt;&amp;nbsp; Configure Setting Script&lt;/font&gt;" style="shape=hexagon;perimeter=hexagonPerimeter2;whiteSpace=wrap;html=1;fixedSize=1;shadow=0;glass=0;sketch=0;fillStyle=solid;strokeColor=#00000F;strokeWidth=1;fontSize=11;fontColor=none;fillColor=#0014DB;" vertex="1" parent="ib6p0KzZ9A0hSwNpb73h-13">
          <mxGeometry x="43" y="118" width="98" height="72" as="geometry" />
        </mxCell>
        <mxCell id="ib6p0KzZ9A0hSwNpb73h-15" value="" style="swimlane;swimlaneHead=0;swimlaneBody=0;connectable=0;fillColor=none;startSize=18;collapsible=0;recursiveResize=0;expand=0;fontStyle=1;opacity=0;" vertex="1" parent="ib6p0KzZ9A0hSwNpb73h-12">
          <mxGeometry x="204" y="1" width="430" height="199" as="geometry">
            <mxRectangle width="430" height="199" as="alternateBounds" />
          </mxGeometry>
        </mxCell>
        <mxCell id="ib6p0KzZ9A0hSwNpb73h-17" value="" style="edgeStyle=orthogonalEdgeStyle;rounded=0;orthogonalLoop=1;jettySize=auto;html=1;fontSize=11;" edge="1" parent="ib6p0KzZ9A0hSwNpb73h-15" target="ib6p0KzZ9A0hSwNpb73h-24">
          <mxGeometry relative="1" as="geometry">
            <mxPoint x="114.5" y="69" as="sourcePoint" />
          </mxGeometry>
        </mxCell>
        <mxCell id="J1uIO6jE7GZyl3HjFFQV-1" value="" style="edgeStyle=orthogonalEdgeStyle;rounded=0;orthogonalLoop=1;jettySize=auto;html=1;fontSize=11;fontColor=none;" edge="1" parent="ib6p0KzZ9A0hSwNpb73h-15" target="25bx5u8crARNHQsKS58g-8">
          <mxGeometry relative="1" as="geometry">
            <mxPoint x="304" y="69" as="sourcePoint" />
            <Array as="points">
              <mxPoint x="304" y="80" />
              <mxPoint x="304" y="80" />
            </Array>
          </mxGeometry>
        </mxCell>
        <mxCell id="ib6p0KzZ9A0hSwNpb73h-20" value="" style="line;strokeWidth=1;html=1;fillStyle=dots;strokeColor=default;fillColor=none;" vertex="1" parent="ib6p0KzZ9A0hSwNpb73h-15">
          <mxGeometry x="-193" y="-6" width="1004" height="10" as="geometry" />
        </mxCell>
        <mxCell id="ib6p0KzZ9A0hSwNpb73h-21" value="Trigger" style="text;html=1;strokeColor=none;fillColor=none;align=center;verticalAlign=middle;whiteSpace=wrap;rounded=0;fillStyle=dots;strokeWidth=1;rotation=0;" vertex="1" parent="ib6p0KzZ9A0hSwNpb73h-15">
          <mxGeometry x="250" y="193" width="54" height="25" as="geometry" />
        </mxCell>
        <mxCell id="ib6p0KzZ9A0hSwNpb73h-24" value="&lt;font color=&quot;#00000f&quot; style=&quot;font-size: 11px;&quot;&gt;Uploader &lt;br&gt;Script&lt;/font&gt;" style="shape=hexagon;perimeter=hexagonPerimeter2;whiteSpace=wrap;html=1;fixedSize=1;shadow=0;glass=0;sketch=0;fillStyle=solid;strokeColor=default;strokeWidth=1;fontSize=11;fillColor=#FFFFFF;" vertex="1" parent="ib6p0KzZ9A0hSwNpb73h-15">
          <mxGeometry x="75" y="114" width="77.5" height="69" as="geometry" />
        </mxCell>
        <mxCell id="ib6p0KzZ9A0hSwNpb73h-25" value="Upload to Dataiku" style="text;html=1;strokeColor=none;fillColor=none;align=center;verticalAlign=middle;whiteSpace=wrap;rounded=0;fillStyle=dots;strokeWidth=1;rotation=0;" vertex="1" parent="ib6p0KzZ9A0hSwNpb73h-15">
          <mxGeometry x="112" y="194" width="80" height="24" as="geometry" />
        </mxCell>
        <mxCell id="25bx5u8crARNHQsKS58g-8" value="Trigger Workflow Script" style="shape=hexagon;perimeter=hexagonPerimeter2;whiteSpace=wrap;html=1;fixedSize=1;shadow=0;glass=0;sketch=0;fillStyle=solid;strokeColor=default;strokeWidth=1;fontSize=11;fillColor=none;" vertex="1" parent="ib6p0KzZ9A0hSwNpb73h-15">
          <mxGeometry x="254" y="108" width="94.5" height="64" as="geometry" />
        </mxCell>
        <mxCell id="wjdmTbVCPJc3N9-ZUtgg-0" value="User runs Dataiku workflow" style="shape=step;perimeter=stepPerimeter;whiteSpace=wrap;html=1;fixedSize=1;shadow=0;glass=0;labelBackgroundColor=#FFFFFF;sketch=0;fillStyle=solid;strokeColor=#00000F;strokeWidth=1;fontSize=11;fontColor=#00000F;fillColor=#FFFFFF;" vertex="1" parent="ib6p0KzZ9A0hSwNpb73h-15">
          <mxGeometry x="228" y="19" width="193" height="47" as="geometry" />
        </mxCell>
        <mxCell id="ib6p0KzZ9A0hSwNpb73h-26" value="" style="swimlane;swimlaneHead=0;swimlaneBody=0;connectable=0;fillColor=none;startSize=18;collapsible=0;recursiveResize=0;expand=0;fontStyle=1;opacity=0;swimlaneLine=0;" vertex="1" parent="ib6p0KzZ9A0hSwNpb73h-12">
          <mxGeometry x="613" width="148" height="199" as="geometry">
            <mxRectangle width="148" height="199" as="alternateBounds" />
          </mxGeometry>
        </mxCell>
        <mxCell id="ib6p0KzZ9A0hSwNpb73h-29" value="Trigger" style="text;html=1;strokeColor=none;fillColor=none;align=center;verticalAlign=middle;whiteSpace=wrap;rounded=0;fillStyle=dots;strokeWidth=1;rotation=0;" vertex="1" parent="ib6p0KzZ9A0hSwNpb73h-26">
          <mxGeometry x="55" y="191" width="54" height="25" as="geometry" />
        </mxCell>
        <mxCell id="AY_XUNuMYYIId_M4sqdd-0" value="User downloads&lt;br&gt;depth matched logs" style="shape=step;perimeter=stepPerimeter;whiteSpace=wrap;html=1;fixedSize=1;shadow=0;glass=0;labelBackgroundColor=#FFFFFF;sketch=0;fillStyle=solid;strokeColor=#00000F;strokeWidth=1;fontSize=11;fontColor=#00000F;fillColor=#FFFFFF;" vertex="1" parent="ib6p0KzZ9A0hSwNpb73h-26">
          <mxGeometry x="9" y="20" width="168" height="46" as="geometry" />
        </mxCell>
        <mxCell id="ib6p0KzZ9A0hSwNpb73h-31" value="Dataiku" style="shape=tableRow;horizontal=0;swimlaneHead=0;swimlaneBody=0;top=0;left=0;bottom=0;right=0;fillColor=none;points=[[0,0.5],[1,0.5]];portConstraint=eastwest;startSize=40;collapsible=0;recursiveResize=0;expand=0;fontStyle=1;" vertex="1" parent="ib6p0KzZ9A0hSwNpb73h-1">
          <mxGeometry x="33" y="667" width="771" height="164" as="geometry" />
        </mxCell>
        <mxCell id="ib6p0KzZ9A0hSwNpb73h-32" value="" style="swimlane;swimlaneHead=0;swimlaneBody=0;connectable=0;fillColor=none;startSize=0;collapsible=0;recursiveResize=0;expand=0;fontStyle=1;" vertex="1" parent="ib6p0KzZ9A0hSwNpb73h-31">
          <mxGeometry x="82" width="101" height="144" as="geometry">
            <mxRectangle width="143" height="144" as="alternateBounds" />
          </mxGeometry>
        </mxCell>
        <mxCell id="ib6p0KzZ9A0hSwNpb73h-33" value="" style="swimlane;swimlaneHead=0;swimlaneBody=0;connectable=0;fillColor=none;startSize=0;collapsible=0;recursiveResize=0;expand=0;fontStyle=1;" vertex="1" parent="ib6p0KzZ9A0hSwNpb73h-31">
          <mxGeometry x="184" y="6" width="430" height="144" as="geometry">
            <mxRectangle width="430" height="144" as="alternateBounds" />
          </mxGeometry>
        </mxCell>
        <mxCell id="ib6p0KzZ9A0hSwNpb73h-36" value="" style="endArrow=classic;html=1;rounded=0;fontSize=11;dashed=1;" edge="1" parent="ib6p0KzZ9A0hSwNpb73h-33">
          <mxGeometry width="50" height="50" relative="1" as="geometry">
            <mxPoint x="177" y="107" as="sourcePoint" />
            <mxPoint x="260" y="107" as="targetPoint" />
          </mxGeometry>
        </mxCell>
        <mxCell id="ib6p0KzZ9A0hSwNpb73h-38" value="Parquet Files" style="text;html=1;strokeColor=none;fillColor=none;align=center;verticalAlign=middle;whiteSpace=wrap;rounded=0;shadow=0;glass=0;sketch=0;fillStyle=solid;strokeWidth=1;fontSize=11;" vertex="1" parent="ib6p0KzZ9A0hSwNpb73h-33">
          <mxGeometry x="185" y="69" width="60" height="30" as="geometry" />
        </mxCell>
        <mxCell id="ib6p0KzZ9A0hSwNpb73h-40" value="&lt;font style=&quot;border-color: var(--border-color);&quot;&gt;&lt;br style=&quot;border-color: var(--border-color);&quot;&gt;&lt;br style=&quot;border-color: var(--border-color);&quot;&gt;Scenario:&amp;nbsp;&lt;span style=&quot;border-color: var(--border-color);&quot;&gt;generating synced logs, shift table,&lt;/span&gt;&lt;br style=&quot;border-color: var(--border-color);&quot;&gt;&lt;span style=&quot;border-color: var(--border-color);&quot;&gt;and sending email notification&lt;/span&gt;&lt;/font&gt;&lt;br style=&quot;border-color: var(--border-color); font-size: 12px;&quot;&gt;&lt;span style=&quot;font-size: 12px;&quot;&gt;&amp;nbsp;&lt;/span&gt;&lt;span style=&quot;border-color: var(--border-color); color: rgba(0, 0, 0, 0); font-family: monospace; font-size: 0px; text-align: start;&quot;&gt;%3CmxGraphModel%3E%3Croot%3E%3CmxCell%20id%3D%220%22%2F%3E%3CmxCell%20id%3D%221%22%20parent%3D%220%22%2F%3E%3CmxCell%20id%3D%222%22%20value%3D%22Output%20Folder%22%20style%3D%22shape%3Ddocument%3BwhiteSpace%3Dwrap%3Bhtml%3D1%3BboundedLbl%3D1%3B%22%20vertex%3D%221%22%20parent%3D%221%22%3E%3CmxGeometry%20x%3D%22678%22%20y%3D%22716%22%20width%3D%22103%22%20height%3D%2269%22%20as%3D%22geometry%22%2F%3E%3C%2FmxCell%3E%3C%2Froot%3E%3C%2FmxGraphModel%3E&lt;/span&gt;" style="shape=hexagon;perimeter=hexagonPerimeter2;whiteSpace=wrap;html=1;fixedSize=1;fillStyle=dots;strokeColor=default;strokeWidth=1;fontSize=11;fillColor=none;" vertex="1" parent="ib6p0KzZ9A0hSwNpb73h-33">
          <mxGeometry x="267" y="57" width="121" height="83" as="geometry" />
        </mxCell>
        <mxCell id="B6D3NoQiOxeU08qP-7CJ-0" value="" style="shape=cylinder3;whiteSpace=wrap;html=1;boundedLbl=1;backgroundOutline=1;size=15;shadow=0;glass=0;sketch=0;fillStyle=solid;strokeColor=default;strokeWidth=1;fontSize=11;fontColor=none;fillColor=#FFFFFF;" vertex="1" parent="ib6p0KzZ9A0hSwNpb73h-33">
          <mxGeometry x="97" y="59" width="59" height="85" as="geometry" />
        </mxCell>
        <mxCell id="B6D3NoQiOxeU08qP-7CJ-1" value="&lt;font color=&quot;#00000f&quot; style=&quot;font-size: 11px;&quot;&gt;Wellbore data&lt;/font&gt;" style="text;html=1;strokeColor=none;fillColor=none;align=center;verticalAlign=middle;whiteSpace=wrap;rounded=0;shadow=0;glass=0;sketch=0;fillStyle=solid;strokeWidth=1;fontSize=11;fontColor=none;" vertex="1" parent="ib6p0KzZ9A0hSwNpb73h-33">
          <mxGeometry x="98" y="92" width="60" height="36" as="geometry" />
        </mxCell>
        <mxCell id="ib6p0KzZ9A0hSwNpb73h-39" value="" style="swimlane;swimlaneHead=0;swimlaneBody=0;connectable=0;fillColor=none;startSize=0;collapsible=0;recursiveResize=0;expand=0;fontStyle=1;" vertex="1" parent="ib6p0KzZ9A0hSwNpb73h-31">
          <mxGeometry x="613" width="148" height="144" as="geometry">
            <mxRectangle width="148" height="144" as="alternateBounds" />
          </mxGeometry>
        </mxCell>
        <mxCell id="ib6p0KzZ9A0hSwNpb73h-41" value="Datasets: synced logs and shift table" style="text;whiteSpace=wrap;html=1;fontSize=11;" vertex="1" parent="ib6p0KzZ9A0hSwNpb73h-39">
          <mxGeometry x="-32" y="70" width="111" height="35" as="geometry" />
        </mxCell>
        <mxCell id="J1uIO6jE7GZyl3HjFFQV-9" value="" style="endArrow=classic;html=1;rounded=0;fontSize=11;fontColor=none;entryX=0.667;entryY=1;entryDx=0;entryDy=0;entryPerimeter=0;" edge="1" parent="ib6p0KzZ9A0hSwNpb73h-39" target="25bx5u8crARNHQsKS58g-6">
          <mxGeometry width="50" height="50" relative="1" as="geometry">
            <mxPoint x="147" y="70" as="sourcePoint" />
            <mxPoint x="147" y="-19" as="targetPoint" />
            <Array as="points" />
          </mxGeometry>
        </mxCell>
        <mxCell id="ib6p0KzZ9A0hSwNpb73h-43" value="" style="endArrow=classic;html=1;rounded=0;fontSize=11;dashed=1;" edge="1" parent="ib6p0KzZ9A0hSwNpb73h-39">
          <mxGeometry width="50" height="50" relative="1" as="geometry">
            <mxPoint x="-32" y="115" as="sourcePoint" />
            <mxPoint x="67" y="115" as="targetPoint" />
            <Array as="points">
              <mxPoint x="6" y="115" />
              <mxPoint x="39" y="115" />
            </Array>
          </mxGeometry>
        </mxCell>
        <mxCell id="ib6p0KzZ9A0hSwNpb73h-42" value="&lt;font style=&quot;border-color: var(--border-color);&quot;&gt;&lt;br style=&quot;border-color: var(--border-color);&quot;&gt;&lt;br style=&quot;border-color: var(--border-color);&quot;&gt;&amp;nbsp; Scenario:&amp;nbsp; converting Dataiku datasets into parquet files&lt;/font&gt;&lt;br style=&quot;border-color: var(--border-color); font-size: 12px;&quot;&gt;&lt;span style=&quot;font-size: 12px;&quot;&gt;&amp;nbsp;&lt;/span&gt;&lt;span style=&quot;border-color: var(--border-color); color: rgba(0, 0, 0, 0); font-family: monospace; font-size: 0px; text-align: start;&quot;&gt;%3CmxGraphModel%3E%3Croot%3E%3CmxCell%20id%3D%220%22%2F%3E%3CmxCell%20id%3D%221%22%20parent%3D%220%22%2F%3E%3CmxCell%20id%3D%222%22%20value%3D%22Output%20Folder%22%20style%3D%22shape%3Ddocument%3BwhiteSpace%3Dwrap%3Bhtml%3D1%3BboundedLbl%3D1%3B%22%20vertex%3D%221%22%20parent%3D%221%22%3E%3CmxGeometry%20x%3D%22678%22%20y%3D%22716%22%20width%3D%22103%22%20height%3D%2269%22%20as%3D%22geometry%22%2F%3E%3C%2FmxCell%3E%3C%2Froot%3E%3C%2FmxGraphModel%3E&lt;/span&gt;" style="shape=hexagon;perimeter=hexagonPerimeter2;whiteSpace=wrap;html=1;fixedSize=1;fillStyle=dots;strokeColor=default;strokeWidth=1;fontSize=11;fillColor=none;" vertex="1" parent="ib6p0KzZ9A0hSwNpb73h-31">
          <mxGeometry x="685" y="70" width="120" height="80" as="geometry" />
        </mxCell>
        <mxCell id="ib6p0KzZ9A0hSwNpb73h-44" value="&lt;span style=&quot;font-weight: 700;&quot;&gt;Log QC Solution - Auto Depth Matching Workflow&lt;/span&gt;" style="text;html=1;strokeColor=none;fillColor=none;align=center;verticalAlign=middle;whiteSpace=wrap;rounded=0;fillStyle=dots;strokeWidth=1;" vertex="1" parent="ib6p0KzZ9A0hSwNpb73h-1">
          <mxGeometry x="304" y="439" width="408" height="30" as="geometry" />
        </mxCell>
        <mxCell id="ib6p0KzZ9A0hSwNpb73h-51" value="Download from Dataiku" style="text;html=1;strokeColor=none;fillColor=none;align=center;verticalAlign=middle;whiteSpace=wrap;rounded=0;fillStyle=dots;strokeWidth=1;rotation=0;" vertex="1" parent="ib6p0KzZ9A0hSwNpb73h-1">
          <mxGeometry x="796" y="660" width="72" height="27" as="geometry" />
        </mxCell>
        <mxCell id="ib6p0KzZ9A0hSwNpb73h-52" value="&amp;nbsp;Synced logs and shift tables automatically appear in Wellbores" style="ellipse;whiteSpace=wrap;html=1;" vertex="1" parent="ib6p0KzZ9A0hSwNpb73h-1">
          <mxGeometry x="902" y="567" width="119" height="86" as="geometry" />
        </mxCell>
        <mxCell id="ib6p0KzZ9A0hSwNpb73h-55" value="" style="verticalLabelPosition=bottom;verticalAlign=top;html=1;shape=mxgraph.basic.rect;fillColor2=none;strokeWidth=1;size=20;indent=5;fillStyle=dots;strokeColor=default;fillColor=none;" vertex="1" parent="ib6p0KzZ9A0hSwNpb73h-1">
          <mxGeometry x="44" y="431" width="1007" height="400" as="geometry" />
        </mxCell>
        <mxCell id="ib6p0KzZ9A0hSwNpb73h-57" value="" style="edgeStyle=orthogonalEdgeStyle;rounded=0;orthogonalLoop=1;jettySize=auto;html=1;fontSize=11;" edge="1" parent="ib6p0KzZ9A0hSwNpb73h-1" source="ib6p0KzZ9A0hSwNpb73h-24">
          <mxGeometry relative="1" as="geometry">
            <mxPoint x="345" y="727" as="targetPoint" />
            <Array as="points">
              <mxPoint x="345" y="722" />
              <mxPoint x="345" y="722" />
            </Array>
          </mxGeometry>
        </mxCell>
        <mxCell id="25bx5u8crARNHQsKS58g-0" value="" style="edgeStyle=orthogonalEdgeStyle;rounded=0;orthogonalLoop=1;jettySize=auto;html=1;fontSize=11;fontColor=none;entryX=0.436;entryY=-0.02;entryDx=0;entryDy=0;entryPerimeter=0;" edge="1" parent="ib6p0KzZ9A0hSwNpb73h-1" target="ib6p0KzZ9A0hSwNpb73h-40">
          <mxGeometry relative="1" as="geometry">
            <mxPoint x="536" y="644" as="sourcePoint" />
            <Array as="points" />
          </mxGeometry>
        </mxCell>
        <mxCell id="J1uIO6jE7GZyl3HjFFQV-5" value="" style="edgeStyle=orthogonalEdgeStyle;rounded=0;orthogonalLoop=1;jettySize=auto;html=1;fontSize=11;fontColor=none;" edge="1" parent="ib6p0KzZ9A0hSwNpb73h-1" source="25bx5u8crARNHQsKS58g-6" target="ib6p0KzZ9A0hSwNpb73h-52">
          <mxGeometry relative="1" as="geometry" />
        </mxCell>
        <mxCell id="ib6p0KzZ9A0hSwNpb73h-34" value="" style="line;strokeWidth=1;html=1;fillStyle=dots;strokeColor=default;fillColor=none;" vertex="1" parent="ib6p0KzZ9A0hSwNpb73h-1">
          <mxGeometry x="44" y="691" width="1004" height="10" as="geometry" />
        </mxCell>
        <mxCell id="J1uIO6jE7GZyl3HjFFQV-7" value="" style="edgeStyle=orthogonalEdgeStyle;rounded=0;orthogonalLoop=1;jettySize=auto;html=1;fontSize=11;fontColor=none;entryX=0.5;entryY=0;entryDx=0;entryDy=0;" edge="1" parent="ib6p0KzZ9A0hSwNpb73h-1" source="25bx5u8crARNHQsKS58g-6" target="ib6p0KzZ9A0hSwNpb73h-42">
          <mxGeometry relative="1" as="geometry">
            <Array as="points">
              <mxPoint x="778" y="663" />
              <mxPoint x="778" y="663" />
            </Array>
          </mxGeometry>
        </mxCell>
        <mxCell id="25bx5u8crARNHQsKS58g-6" value="Downloader Script" style="shape=hexagon;perimeter=hexagonPerimeter2;whiteSpace=wrap;html=1;fixedSize=1;shadow=0;glass=0;sketch=0;fillStyle=solid;strokeColor=default;strokeWidth=1;fontSize=11;fillColor=none;" vertex="1" parent="ib6p0KzZ9A0hSwNpb73h-1">
          <mxGeometry x="732" y="579" width="90" height="62" as="geometry" />
        </mxCell>
        <mxCell id="J1uIO6jE7GZyl3HjFFQV-2" value="&lt;br&gt;&lt;br&gt;&lt;br&gt;" style="edgeStyle=orthogonalEdgeStyle;rounded=0;orthogonalLoop=1;jettySize=auto;html=1;fontSize=11;fontColor=none;" edge="1" parent="ib6p0KzZ9A0hSwNpb73h-1" target="25bx5u8crARNHQsKS58g-6">
          <mxGeometry relative="1" as="geometry">
            <mxPoint x="778" y="539" as="sourcePoint" />
            <Array as="points">
              <mxPoint x="778" y="549" />
              <mxPoint x="778" y="549" />
            </Array>
          </mxGeometry>
        </mxCell>
        <mxCell id="I5T7V1_r9KswML8QU9xK-3" value="User sets up reference log&lt;br&gt;&amp;nbsp;and desync log" style="shape=step;perimeter=stepPerimeter;whiteSpace=wrap;html=1;fixedSize=1;shadow=0;glass=0;labelBackgroundColor=#FFFFFF;sketch=0;fillStyle=solid;strokeColor=#00000F;strokeWidth=1;fontSize=11;fontColor=#00000F;fillColor=#FFFFFF;" vertex="1" parent="ib6p0KzZ9A0hSwNpb73h-1">
          <mxGeometry x="271" y="488" width="200" height="47" as="geometry" />
        </mxCell>
        <mxCell id="ryKPn8Yjy82iz4mnmP0n-0" value="" style="edgeStyle=orthogonalEdgeStyle;rounded=0;orthogonalLoop=1;jettySize=auto;html=1;fontSize=14;fontColor=#00000F;" edge="1" parent="ib6p0KzZ9A0hSwNpb73h-1" source="I5T7V1_r9KswML8QU9xK-2" target="J1uIO6jE7GZyl3HjFFQV-10">
          <mxGeometry relative="1" as="geometry">
            <Array as="points">
              <mxPoint x="156" y="545" />
              <mxPoint x="156" y="545" />
            </Array>
          </mxGeometry>
        </mxCell>
        <mxCell id="I5T7V1_r9KswML8QU9xK-2" value="&lt;font style=&quot;font-size: 14px;&quot;&gt;User uploads Wellbores,&lt;br&gt;Datasets and logs&amp;nbsp;&lt;/font&gt;" style="shape=step;perimeter=stepPerimeter;whiteSpace=wrap;html=1;fixedSize=1;shadow=0;glass=0;labelBackgroundColor=#0014DB;sketch=0;fillStyle=solid;strokeColor=#0014DB;strokeWidth=1;fontSize=11;fontColor=#FFFFFF;fillColor=#0014DB;" vertex="1" parent="ib6p0KzZ9A0hSwNpb73h-1">
          <mxGeometry x="89" y="486" width="188" height="49.75" as="geometry" />
        </mxCell>
        <mxCell id="mNzFZ7bSZeCnAW20qklw-1" value="User upload Wellbores,&lt;br&gt;Datasets and logs" style="shape=step;perimeter=stepPerimeter;whiteSpace=wrap;html=1;fixedSize=1;shadow=0;glass=0;labelBackgroundColor=#FFFFFF;sketch=0;fillStyle=solid;strokeColor=#00000F;strokeWidth=1;fontSize=11;fontColor=#00000F;fillColor=#FFFFFF;" vertex="1" parent="ib6p0KzZ9A0hSwNpb73h-1">
          <mxGeometry x="326" y="339" width="183" height="63" as="geometry" />
        </mxCell>
      </root>
    </mxGraphModel>
  </diagram>
  <diagram name="second step" id="cNSUQoiQLeOLr5BLjagN">
    <mxGraphModel dx="1972" dy="1089" grid="0" gridSize="10" guides="1" tooltips="1" connect="1" arrows="1" fold="1" page="1" pageScale="1" pageWidth="1169" pageHeight="1654" math="0" shadow="0">
      <root>
        <mxCell id="bd-juwX5bpUbbKbC0hWI-0" />
        <mxCell id="bd-juwX5bpUbbKbC0hWI-1" parent="bd-juwX5bpUbbKbC0hWI-0" />
        <mxCell id="bd-juwX5bpUbbKbC0hWI-2" value="" style="rounded=1;whiteSpace=wrap;html=1;fillStyle=solid;strokeColor=#6c8ebf;strokeWidth=1;fontSize=11;fillColor=#dae8fc;shadow=0;glass=0;" vertex="1" parent="bd-juwX5bpUbbKbC0hWI-1">
          <mxGeometry x="80" y="473" width="748" height="74" as="geometry" />
        </mxCell>
        <mxCell id="bd-juwX5bpUbbKbC0hWI-3" value="Wells, Datasets and logs" style="rounded=1;whiteSpace=wrap;html=1;arcSize=50;" vertex="1" parent="bd-juwX5bpUbbKbC0hWI-1">
          <mxGeometry x="100" y="113" width="110" height="60" as="geometry" />
        </mxCell>
        <mxCell id="bd-juwX5bpUbbKbC0hWI-4" value="Parquet Files" style="rounded=0;whiteSpace=wrap;html=1;" vertex="1" parent="bd-juwX5bpUbbKbC0hWI-1">
          <mxGeometry x="258" y="213" width="90" height="40" as="geometry" />
        </mxCell>
        <mxCell id="bd-juwX5bpUbbKbC0hWI-5" value="Set up reference log and to-sync log for each well" style="whiteSpace=wrap;html=1;rounded=1;arcSize=50;" vertex="1" parent="bd-juwX5bpUbbKbC0hWI-1">
          <mxGeometry x="248" y="113" width="124" height="63" as="geometry" />
        </mxCell>
        <mxCell id="bd-juwX5bpUbbKbC0hWI-6" value="Input Folder" style="shape=document;whiteSpace=wrap;html=1;boundedLbl=1;" vertex="1" parent="bd-juwX5bpUbbKbC0hWI-1">
          <mxGeometry x="260" y="278" width="90" height="60" as="geometry" />
        </mxCell>
        <mxCell id="bd-juwX5bpUbbKbC0hWI-7" value="Trigger the scenario generating synced logs, shift table,&lt;br&gt;and sending email notification" style="text;html=1;align=center;verticalAlign=middle;resizable=0;points=[];autosize=1;strokeColor=none;fillColor=none;" vertex="1" parent="bd-juwX5bpUbbKbC0hWI-1">
          <mxGeometry x="364" y="271" width="312" height="41" as="geometry" />
        </mxCell>
        <mxCell id="bd-juwX5bpUbbKbC0hWI-8" value="Output Folder" style="shape=document;whiteSpace=wrap;html=1;boundedLbl=1;" vertex="1" parent="bd-juwX5bpUbbKbC0hWI-1">
          <mxGeometry x="700" y="271" width="90" height="60" as="geometry" />
        </mxCell>
        <mxCell id="bd-juwX5bpUbbKbC0hWI-9" value="Parquet Files" style="whiteSpace=wrap;html=1;" vertex="1" parent="bd-juwX5bpUbbKbC0hWI-1">
          <mxGeometry x="676" y="211" width="120" height="60" as="geometry" />
        </mxCell>
        <mxCell id="bd-juwX5bpUbbKbC0hWI-10" value="Download depth matched logs" style="whiteSpace=wrap;html=1;rounded=1;arcSize=50;" vertex="1" parent="bd-juwX5bpUbbKbC0hWI-1">
          <mxGeometry x="676" y="113" width="120" height="60" as="geometry" />
        </mxCell>
        <mxCell id="bd-juwX5bpUbbKbC0hWI-11" value="Run Dataiku Workflow" style="whiteSpace=wrap;html=1;rounded=1;arcSize=50;" vertex="1" parent="bd-juwX5bpUbbKbC0hWI-1">
          <mxGeometry x="448" y="113" width="120" height="60" as="geometry" />
        </mxCell>
        <mxCell id="bd-juwX5bpUbbKbC0hWI-12" value="Techlog" style="shape=tableRow;horizontal=0;swimlaneHead=0;swimlaneBody=0;top=0;left=0;bottom=0;right=0;fillColor=none;points=[[0,0.5],[1,0.5]];portConstraint=eastwest;startSize=40;collapsible=0;recursiveResize=0;expand=0;fontStyle=1;" vertex="1" parent="bd-juwX5bpUbbKbC0hWI-1">
          <mxGeometry x="33" y="468" width="761" height="199" as="geometry" />
        </mxCell>
        <mxCell id="bd-juwX5bpUbbKbC0hWI-13" value="" style="swimlane;swimlaneHead=0;swimlaneBody=0;connectable=0;fillColor=none;startSize=18;collapsible=0;recursiveResize=0;expand=0;fontStyle=1;opacity=0;" vertex="1" parent="bd-juwX5bpUbbKbC0hWI-12">
          <mxGeometry x="40" width="143" height="199" as="geometry">
            <mxRectangle width="143" height="199" as="alternateBounds" />
          </mxGeometry>
        </mxCell>
        <mxCell id="bd-juwX5bpUbbKbC0hWI-15" value="&lt;font color=&quot;#00000f&quot; style=&quot;font-size: 11px;&quot;&gt;&amp;nbsp; Configure Setting Script&lt;/font&gt;" style="shape=hexagon;perimeter=hexagonPerimeter2;whiteSpace=wrap;html=1;fixedSize=1;shadow=0;glass=0;sketch=0;fillStyle=solid;strokeColor=#00000F;strokeWidth=1;fontSize=11;fontColor=none;fillColor=#FFFFFF;" vertex="1" parent="bd-juwX5bpUbbKbC0hWI-13">
          <mxGeometry x="43" y="118" width="80" height="66" as="geometry" />
        </mxCell>
        <mxCell id="bd-juwX5bpUbbKbC0hWI-17" value="" style="swimlane;swimlaneHead=0;swimlaneBody=0;connectable=0;fillColor=none;startSize=18;collapsible=0;recursiveResize=0;expand=0;fontStyle=1;opacity=0;" vertex="1" parent="bd-juwX5bpUbbKbC0hWI-12">
          <mxGeometry x="204" y="1" width="430" height="199" as="geometry">
            <mxRectangle width="430" height="199" as="alternateBounds" />
          </mxGeometry>
        </mxCell>
        <mxCell id="bd-juwX5bpUbbKbC0hWI-18" value="" style="edgeStyle=orthogonalEdgeStyle;rounded=0;orthogonalLoop=1;jettySize=auto;html=1;fontSize=11;" edge="1" parent="bd-juwX5bpUbbKbC0hWI-17" target="bd-juwX5bpUbbKbC0hWI-22">
          <mxGeometry relative="1" as="geometry">
            <mxPoint x="114.5" y="69" as="sourcePoint" />
          </mxGeometry>
        </mxCell>
        <mxCell id="bd-juwX5bpUbbKbC0hWI-19" value="" style="edgeStyle=orthogonalEdgeStyle;rounded=0;orthogonalLoop=1;jettySize=auto;html=1;fontSize=11;fontColor=none;" edge="1" parent="bd-juwX5bpUbbKbC0hWI-17" target="bd-juwX5bpUbbKbC0hWI-24">
          <mxGeometry relative="1" as="geometry">
            <mxPoint x="304" y="69" as="sourcePoint" />
            <Array as="points">
              <mxPoint x="304" y="80" />
              <mxPoint x="304" y="80" />
            </Array>
          </mxGeometry>
        </mxCell>
        <mxCell id="bd-juwX5bpUbbKbC0hWI-20" value="" style="line;strokeWidth=1;html=1;fillStyle=dots;strokeColor=default;fillColor=none;" vertex="1" parent="bd-juwX5bpUbbKbC0hWI-17">
          <mxGeometry x="-193" y="-6" width="1004" height="10" as="geometry" />
        </mxCell>
        <mxCell id="bd-juwX5bpUbbKbC0hWI-21" value="Trigger" style="text;html=1;strokeColor=none;fillColor=none;align=center;verticalAlign=middle;whiteSpace=wrap;rounded=0;fillStyle=dots;strokeWidth=1;rotation=0;" vertex="1" parent="bd-juwX5bpUbbKbC0hWI-17">
          <mxGeometry x="250" y="193" width="54" height="25" as="geometry" />
        </mxCell>
        <mxCell id="bd-juwX5bpUbbKbC0hWI-22" value="&lt;font color=&quot;#ffffff&quot; style=&quot;font-size: 14px;&quot;&gt;Uploader &lt;br&gt;Script&lt;/font&gt;" style="shape=hexagon;perimeter=hexagonPerimeter2;whiteSpace=wrap;html=1;fixedSize=1;shadow=0;glass=0;sketch=0;fillStyle=solid;strokeColor=default;strokeWidth=1;fontSize=11;fillColor=#0014DB;" vertex="1" parent="bd-juwX5bpUbbKbC0hWI-17">
          <mxGeometry x="69.5" y="112" width="88.5" height="75" as="geometry" />
        </mxCell>
        <mxCell id="bd-juwX5bpUbbKbC0hWI-24" value="Trigger Workflow Script" style="shape=hexagon;perimeter=hexagonPerimeter2;whiteSpace=wrap;html=1;fixedSize=1;shadow=0;glass=0;sketch=0;fillStyle=solid;strokeColor=default;strokeWidth=1;fontSize=11;fillColor=none;" vertex="1" parent="bd-juwX5bpUbbKbC0hWI-17">
          <mxGeometry x="254" y="108" width="94.5" height="64" as="geometry" />
        </mxCell>
        <mxCell id="bd-juwX5bpUbbKbC0hWI-25" value="User runs Dataiku workflow" style="shape=step;perimeter=stepPerimeter;whiteSpace=wrap;html=1;fixedSize=1;shadow=0;glass=0;labelBackgroundColor=#FFFFFF;sketch=0;fillStyle=solid;strokeColor=#00000F;strokeWidth=1;fontSize=11;fontColor=#00000F;fillColor=#FFFFFF;" vertex="1" parent="bd-juwX5bpUbbKbC0hWI-17">
          <mxGeometry x="228" y="16" width="193" height="47" as="geometry" />
        </mxCell>
        <mxCell id="bd-juwX5bpUbbKbC0hWI-26" value="" style="swimlane;swimlaneHead=0;swimlaneBody=0;connectable=0;fillColor=none;startSize=18;collapsible=0;recursiveResize=0;expand=0;fontStyle=1;opacity=0;swimlaneLine=0;" vertex="1" parent="bd-juwX5bpUbbKbC0hWI-12">
          <mxGeometry x="613" width="148" height="199" as="geometry">
            <mxRectangle width="148" height="199" as="alternateBounds" />
          </mxGeometry>
        </mxCell>
        <mxCell id="bd-juwX5bpUbbKbC0hWI-27" value="Trigger" style="text;html=1;strokeColor=none;fillColor=none;align=center;verticalAlign=middle;whiteSpace=wrap;rounded=0;fillStyle=dots;strokeWidth=1;rotation=0;" vertex="1" parent="bd-juwX5bpUbbKbC0hWI-26">
          <mxGeometry x="55" y="191" width="54" height="25" as="geometry" />
        </mxCell>
        <mxCell id="bd-juwX5bpUbbKbC0hWI-28" value="User downloads&lt;br&gt;depth matched logs" style="shape=step;perimeter=stepPerimeter;whiteSpace=wrap;html=1;fixedSize=1;shadow=0;glass=0;labelBackgroundColor=#FFFFFF;sketch=0;fillStyle=solid;strokeColor=#00000F;strokeWidth=1;fontSize=11;fontColor=#00000F;fillColor=#FFFFFF;" vertex="1" parent="bd-juwX5bpUbbKbC0hWI-26">
          <mxGeometry x="9" y="18" width="168" height="45" as="geometry" />
        </mxCell>
        <mxCell id="bd-juwX5bpUbbKbC0hWI-29" value="Dataiku" style="shape=tableRow;horizontal=0;swimlaneHead=0;swimlaneBody=0;top=0;left=0;bottom=0;right=0;fillColor=none;points=[[0,0.5],[1,0.5]];portConstraint=eastwest;startSize=40;collapsible=0;recursiveResize=0;expand=0;fontStyle=1;" vertex="1" parent="bd-juwX5bpUbbKbC0hWI-1">
          <mxGeometry x="33" y="667" width="771" height="164" as="geometry" />
        </mxCell>
        <mxCell id="bd-juwX5bpUbbKbC0hWI-30" value="" style="swimlane;swimlaneHead=0;swimlaneBody=0;connectable=0;fillColor=none;startSize=0;collapsible=0;recursiveResize=0;expand=0;fontStyle=1;" vertex="1" parent="bd-juwX5bpUbbKbC0hWI-29">
          <mxGeometry x="82" width="101" height="144" as="geometry">
            <mxRectangle width="143" height="144" as="alternateBounds" />
          </mxGeometry>
        </mxCell>
        <mxCell id="bd-juwX5bpUbbKbC0hWI-31" value="" style="swimlane;swimlaneHead=0;swimlaneBody=0;connectable=0;fillColor=none;startSize=0;collapsible=0;recursiveResize=0;expand=0;fontStyle=1;" vertex="1" parent="bd-juwX5bpUbbKbC0hWI-29">
          <mxGeometry x="184" y="6" width="430" height="144" as="geometry">
            <mxRectangle width="430" height="144" as="alternateBounds" />
          </mxGeometry>
        </mxCell>
        <mxCell id="bd-juwX5bpUbbKbC0hWI-32" value="" style="endArrow=classic;html=1;rounded=0;fontSize=11;dashed=1;" edge="1" parent="bd-juwX5bpUbbKbC0hWI-31">
          <mxGeometry width="50" height="50" relative="1" as="geometry">
            <mxPoint x="177" y="107" as="sourcePoint" />
            <mxPoint x="260" y="107" as="targetPoint" />
          </mxGeometry>
        </mxCell>
        <mxCell id="bd-juwX5bpUbbKbC0hWI-33" value="Parquet Files" style="text;html=1;strokeColor=none;fillColor=none;align=center;verticalAlign=middle;whiteSpace=wrap;rounded=0;shadow=0;glass=0;sketch=0;fillStyle=solid;strokeWidth=1;fontSize=11;" vertex="1" parent="bd-juwX5bpUbbKbC0hWI-31">
          <mxGeometry x="179" y="73" width="60" height="30" as="geometry" />
        </mxCell>
        <mxCell id="bd-juwX5bpUbbKbC0hWI-34" value="" style="shape=cylinder3;whiteSpace=wrap;html=1;boundedLbl=1;backgroundOutline=1;size=15;shadow=0;glass=0;sketch=0;fillStyle=solid;strokeColor=default;strokeWidth=1;fontSize=11;fontColor=none;fillColor=#0014DB;" vertex="1" parent="bd-juwX5bpUbbKbC0hWI-31">
          <mxGeometry x="107" y="61" width="61" height="93" as="geometry" />
        </mxCell>
        <mxCell id="bd-juwX5bpUbbKbC0hWI-35" value="&lt;font style=&quot;border-color: var(--border-color);&quot;&gt;&lt;br style=&quot;border-color: var(--border-color);&quot;&gt;&lt;br style=&quot;border-color: var(--border-color);&quot;&gt;Scenario:&amp;nbsp;&lt;span style=&quot;border-color: var(--border-color);&quot;&gt;generating synced logs, shift table,&lt;/span&gt;&lt;br style=&quot;border-color: var(--border-color);&quot;&gt;&lt;span style=&quot;border-color: var(--border-color);&quot;&gt;and sending email notification&lt;/span&gt;&lt;/font&gt;&lt;br style=&quot;border-color: var(--border-color); font-size: 12px;&quot;&gt;&lt;span style=&quot;font-size: 12px;&quot;&gt;&amp;nbsp;&lt;/span&gt;&lt;span style=&quot;border-color: var(--border-color); color: rgba(0, 0, 0, 0); font-family: monospace; font-size: 0px; text-align: start;&quot;&gt;%3CmxGraphModel%3E%3Croot%3E%3CmxCell%20id%3D%220%22%2F%3E%3CmxCell%20id%3D%221%22%20parent%3D%220%22%2F%3E%3CmxCell%20id%3D%222%22%20value%3D%22Output%20Folder%22%20style%3D%22shape%3Ddocument%3BwhiteSpace%3Dwrap%3Bhtml%3D1%3BboundedLbl%3D1%3B%22%20vertex%3D%221%22%20parent%3D%221%22%3E%3CmxGeometry%20x%3D%22678%22%20y%3D%22716%22%20width%3D%22103%22%20height%3D%2269%22%20as%3D%22geometry%22%2F%3E%3C%2FmxCell%3E%3C%2Froot%3E%3C%2FmxGraphModel%3E&lt;/span&gt;" style="shape=hexagon;perimeter=hexagonPerimeter2;whiteSpace=wrap;html=1;fixedSize=1;fillStyle=dots;strokeColor=default;strokeWidth=1;fontSize=11;fillColor=none;" vertex="1" parent="bd-juwX5bpUbbKbC0hWI-31">
          <mxGeometry x="266" y="58" width="121" height="83" as="geometry" />
        </mxCell>
        <mxCell id="bd-juwX5bpUbbKbC0hWI-36" value="&lt;font style=&quot;font-size: 14px;&quot; color=&quot;#ffffff&quot;&gt;Wellbore data&lt;/font&gt;" style="text;html=1;strokeColor=none;fillColor=none;align=center;verticalAlign=middle;whiteSpace=wrap;rounded=0;shadow=0;glass=0;sketch=0;fillStyle=solid;strokeWidth=1;fontSize=11;fontColor=none;" vertex="1" parent="bd-juwX5bpUbbKbC0hWI-31">
          <mxGeometry x="107" y="100" width="60" height="33" as="geometry" />
        </mxCell>
        <mxCell id="bd-juwX5bpUbbKbC0hWI-23" value="Upload to Dataiku" style="text;html=1;strokeColor=none;fillColor=none;align=center;verticalAlign=middle;whiteSpace=wrap;rounded=0;fillStyle=dots;strokeWidth=1;rotation=0;" vertex="1" parent="bd-juwX5bpUbbKbC0hWI-31">
          <mxGeometry x="134" y="-3" width="80" height="22" as="geometry" />
        </mxCell>
        <mxCell id="bd-juwX5bpUbbKbC0hWI-37" value="" style="swimlane;swimlaneHead=0;swimlaneBody=0;connectable=0;fillColor=none;startSize=0;collapsible=0;recursiveResize=0;expand=0;fontStyle=1;" vertex="1" parent="bd-juwX5bpUbbKbC0hWI-29">
          <mxGeometry x="613" width="148" height="144" as="geometry">
            <mxRectangle width="148" height="144" as="alternateBounds" />
          </mxGeometry>
        </mxCell>
        <mxCell id="bd-juwX5bpUbbKbC0hWI-38" value="Datasets: synced logs and shift table" style="text;whiteSpace=wrap;html=1;fontSize=11;" vertex="1" parent="bd-juwX5bpUbbKbC0hWI-37">
          <mxGeometry x="-33" y="78" width="111" height="35" as="geometry" />
        </mxCell>
        <mxCell id="bd-juwX5bpUbbKbC0hWI-39" value="" style="endArrow=classic;html=1;rounded=0;fontSize=11;fontColor=none;entryX=0.667;entryY=1;entryDx=0;entryDy=0;entryPerimeter=0;" edge="1" parent="bd-juwX5bpUbbKbC0hWI-37" target="bd-juwX5bpUbbKbC0hWI-51">
          <mxGeometry width="50" height="50" relative="1" as="geometry">
            <mxPoint x="147" y="70" as="sourcePoint" />
            <mxPoint x="147" y="-19" as="targetPoint" />
            <Array as="points" />
          </mxGeometry>
        </mxCell>
        <mxCell id="bd-juwX5bpUbbKbC0hWI-40" value="&lt;font style=&quot;border-color: var(--border-color);&quot;&gt;&lt;br style=&quot;border-color: var(--border-color);&quot;&gt;&lt;br style=&quot;border-color: var(--border-color);&quot;&gt;&amp;nbsp; Scenario:&amp;nbsp; converting Dataiku datasets into parquet files&lt;/font&gt;&lt;br style=&quot;border-color: var(--border-color); font-size: 12px;&quot;&gt;&lt;span style=&quot;font-size: 12px;&quot;&gt;&amp;nbsp;&lt;/span&gt;&lt;span style=&quot;border-color: var(--border-color); color: rgba(0, 0, 0, 0); font-family: monospace; font-size: 0px; text-align: start;&quot;&gt;%3CmxGraphModel%3E%3Croot%3E%3CmxCell%20id%3D%220%22%2F%3E%3CmxCell%20id%3D%221%22%20parent%3D%220%22%2F%3E%3CmxCell%20id%3D%222%22%20value%3D%22Output%20Folder%22%20style%3D%22shape%3Ddocument%3BwhiteSpace%3Dwrap%3Bhtml%3D1%3BboundedLbl%3D1%3B%22%20vertex%3D%221%22%20parent%3D%221%22%3E%3CmxGeometry%20x%3D%22678%22%20y%3D%22716%22%20width%3D%22103%22%20height%3D%2269%22%20as%3D%22geometry%22%2F%3E%3C%2FmxCell%3E%3C%2Froot%3E%3C%2FmxGraphModel%3E&lt;/span&gt;" style="shape=hexagon;perimeter=hexagonPerimeter2;whiteSpace=wrap;html=1;fixedSize=1;fillStyle=dots;strokeColor=default;strokeWidth=1;fontSize=11;fillColor=none;" vertex="1" parent="bd-juwX5bpUbbKbC0hWI-29">
          <mxGeometry x="685" y="70" width="120" height="80" as="geometry" />
        </mxCell>
        <mxCell id="bd-juwX5bpUbbKbC0hWI-41" value="" style="endArrow=classic;html=1;rounded=0;fontSize=11;dashed=1;entryX=0.9;entryY=1.017;entryDx=0;entryDy=0;entryPerimeter=0;" edge="1" parent="bd-juwX5bpUbbKbC0hWI-29" target="bd-juwX5bpUbbKbC0hWI-38">
          <mxGeometry width="50" height="50" relative="1" as="geometry">
            <mxPoint x="578" y="115" as="sourcePoint" />
            <mxPoint x="683" y="122" as="targetPoint" />
            <Array as="points" />
          </mxGeometry>
        </mxCell>
        <mxCell id="bd-juwX5bpUbbKbC0hWI-42" value="&lt;span style=&quot;font-weight: 700;&quot;&gt;Log QC Solution - Auto Depth Matching Workflow&lt;/span&gt;" style="text;html=1;strokeColor=none;fillColor=none;align=center;verticalAlign=middle;whiteSpace=wrap;rounded=0;fillStyle=dots;strokeWidth=1;" vertex="1" parent="bd-juwX5bpUbbKbC0hWI-1">
          <mxGeometry x="304" y="439" width="408" height="30" as="geometry" />
        </mxCell>
        <mxCell id="bd-juwX5bpUbbKbC0hWI-43" value="Download from Dataiku" style="text;html=1;strokeColor=none;fillColor=none;align=center;verticalAlign=middle;whiteSpace=wrap;rounded=0;fillStyle=dots;strokeWidth=1;rotation=0;" vertex="1" parent="bd-juwX5bpUbbKbC0hWI-1">
          <mxGeometry x="796" y="660" width="72" height="27" as="geometry" />
        </mxCell>
        <mxCell id="bd-juwX5bpUbbKbC0hWI-44" value="&amp;nbsp;Synced logs and shift tables automatically appear in Wellbores" style="ellipse;whiteSpace=wrap;html=1;" vertex="1" parent="bd-juwX5bpUbbKbC0hWI-1">
          <mxGeometry x="902" y="567" width="119" height="86" as="geometry" />
        </mxCell>
        <mxCell id="bd-juwX5bpUbbKbC0hWI-45" value="" style="verticalLabelPosition=bottom;verticalAlign=top;html=1;shape=mxgraph.basic.rect;fillColor2=none;strokeWidth=1;size=20;indent=5;fillStyle=dots;strokeColor=default;fillColor=none;" vertex="1" parent="bd-juwX5bpUbbKbC0hWI-1">
          <mxGeometry x="41" y="431" width="1007" height="400" as="geometry" />
        </mxCell>
        <mxCell id="bd-juwX5bpUbbKbC0hWI-47" value="" style="edgeStyle=orthogonalEdgeStyle;rounded=0;orthogonalLoop=1;jettySize=auto;html=1;fontSize=11;fontColor=none;entryX=0.436;entryY=-0.02;entryDx=0;entryDy=0;entryPerimeter=0;" edge="1" parent="bd-juwX5bpUbbKbC0hWI-1" target="bd-juwX5bpUbbKbC0hWI-35">
          <mxGeometry relative="1" as="geometry">
            <mxPoint x="536" y="644" as="sourcePoint" />
            <Array as="points" />
          </mxGeometry>
        </mxCell>
        <mxCell id="bd-juwX5bpUbbKbC0hWI-48" value="" style="edgeStyle=orthogonalEdgeStyle;rounded=0;orthogonalLoop=1;jettySize=auto;html=1;fontSize=11;fontColor=none;" edge="1" parent="bd-juwX5bpUbbKbC0hWI-1" source="bd-juwX5bpUbbKbC0hWI-51" target="bd-juwX5bpUbbKbC0hWI-44">
          <mxGeometry relative="1" as="geometry" />
        </mxCell>
        <mxCell id="bd-juwX5bpUbbKbC0hWI-49" value="" style="line;strokeWidth=1;html=1;fillStyle=dots;strokeColor=default;fillColor=none;" vertex="1" parent="bd-juwX5bpUbbKbC0hWI-1">
          <mxGeometry x="44" y="691" width="1004" height="10" as="geometry" />
        </mxCell>
        <mxCell id="bd-juwX5bpUbbKbC0hWI-50" value="" style="edgeStyle=orthogonalEdgeStyle;rounded=0;orthogonalLoop=1;jettySize=auto;html=1;fontSize=11;fontColor=none;entryX=0.5;entryY=0;entryDx=0;entryDy=0;" edge="1" parent="bd-juwX5bpUbbKbC0hWI-1" source="bd-juwX5bpUbbKbC0hWI-51" target="bd-juwX5bpUbbKbC0hWI-40">
          <mxGeometry relative="1" as="geometry">
            <Array as="points">
              <mxPoint x="778" y="663" />
              <mxPoint x="778" y="663" />
            </Array>
          </mxGeometry>
        </mxCell>
        <mxCell id="bd-juwX5bpUbbKbC0hWI-51" value="Downloader Script" style="shape=hexagon;perimeter=hexagonPerimeter2;whiteSpace=wrap;html=1;fixedSize=1;shadow=0;glass=0;sketch=0;fillStyle=solid;strokeColor=default;strokeWidth=1;fontSize=11;fillColor=none;" vertex="1" parent="bd-juwX5bpUbbKbC0hWI-1">
          <mxGeometry x="732" y="579" width="90" height="62" as="geometry" />
        </mxCell>
        <mxCell id="bd-juwX5bpUbbKbC0hWI-52" value="&lt;br&gt;&lt;br&gt;&lt;br&gt;" style="edgeStyle=orthogonalEdgeStyle;rounded=0;orthogonalLoop=1;jettySize=auto;html=1;fontSize=11;fontColor=none;" edge="1" parent="bd-juwX5bpUbbKbC0hWI-1" target="bd-juwX5bpUbbKbC0hWI-51">
          <mxGeometry relative="1" as="geometry">
            <mxPoint x="778" y="539" as="sourcePoint" />
            <Array as="points">
              <mxPoint x="778" y="549" />
              <mxPoint x="778" y="549" />
            </Array>
          </mxGeometry>
        </mxCell>
        <mxCell id="bd-juwX5bpUbbKbC0hWI-53" value="User set up reference log&lt;br&gt;&amp;nbsp;and desync log" style="shape=step;perimeter=stepPerimeter;whiteSpace=wrap;html=1;fixedSize=1;shadow=0;glass=0;labelBackgroundColor=#FFFFFF;sketch=0;fillStyle=solid;strokeColor=#00000F;strokeWidth=1;fontSize=11;fontColor=#00000F;fillColor=#FFFFFF;" vertex="1" parent="bd-juwX5bpUbbKbC0hWI-1">
          <mxGeometry x="299" y="317" width="200" height="63" as="geometry" />
        </mxCell>
        <mxCell id="bd-juwX5bpUbbKbC0hWI-54" value="&lt;span style=&quot;font-size: 14px;&quot;&gt;User sets up reference&lt;br&gt;&lt;/span&gt;&lt;font style=&quot;font-size: 14px;&quot;&gt;log and desync log&lt;/font&gt;" style="shape=step;perimeter=stepPerimeter;whiteSpace=wrap;html=1;fixedSize=1;shadow=0;glass=0;labelBackgroundColor=#0014DB;sketch=0;fillStyle=solid;strokeColor=#0014DB;strokeWidth=1;fontSize=11;fontColor=#FFFFFF;fillColor=#0014DB;" vertex="1" parent="bd-juwX5bpUbbKbC0hWI-1">
          <mxGeometry x="268" y="485" width="205" height="48" as="geometry" />
        </mxCell>
        <mxCell id="bd-juwX5bpUbbKbC0hWI-55" value="&lt;font style=&quot;font-size: 14px;&quot;&gt;User upload Wellbores,&lt;br&gt;Datasets and logs&amp;nbsp;&lt;/font&gt;" style="shape=step;perimeter=stepPerimeter;whiteSpace=wrap;html=1;fixedSize=1;shadow=0;glass=0;labelBackgroundColor=#0014DB;sketch=0;fillStyle=solid;strokeColor=#0014DB;strokeWidth=1;fontSize=11;fontColor=#FFFFFF;fillColor=#0014DB;" vertex="1" parent="bd-juwX5bpUbbKbC0hWI-1">
          <mxGeometry x="70" y="331" width="188" height="62" as="geometry" />
        </mxCell>
        <mxCell id="bd-juwX5bpUbbKbC0hWI-16" value="User uploads Wellbores,&lt;br&gt;Datasets and logs" style="shape=step;perimeter=stepPerimeter;whiteSpace=wrap;html=1;fixedSize=1;shadow=0;glass=0;labelBackgroundColor=#FFFFFF;sketch=0;fillStyle=solid;strokeColor=#00000F;strokeWidth=1;fontSize=11;fontColor=#00000F;fillColor=#FFFFFF;" vertex="1" parent="bd-juwX5bpUbbKbC0hWI-1">
          <mxGeometry x="85" y="485" width="183" height="48" as="geometry" />
        </mxCell>
        <mxCell id="3m_C6Y6Qs-LlSyxxgegi-3" value="" style="edgeStyle=orthogonalEdgeStyle;rounded=0;orthogonalLoop=1;jettySize=auto;html=1;fontSize=12;fontColor=#FFFFFF;" edge="1" parent="bd-juwX5bpUbbKbC0hWI-1" source="bd-juwX5bpUbbKbC0hWI-22">
          <mxGeometry relative="1" as="geometry">
            <mxPoint x="351" y="728" as="targetPoint" />
          </mxGeometry>
        </mxCell>
      </root>
    </mxGraphModel>
  </diagram>
  <diagram name="third step" id="NiiplqMKeEMEHOrjKU5t">
    <mxGraphModel dx="1972" dy="1089" grid="0" gridSize="10" guides="1" tooltips="1" connect="1" arrows="1" fold="1" page="1" pageScale="1" pageWidth="1169" pageHeight="1654" math="0" shadow="0">
      <root>
        <mxCell id="UT4fuU30Fto-XNaSkWgp-0" />
        <mxCell id="UT4fuU30Fto-XNaSkWgp-1" parent="UT4fuU30Fto-XNaSkWgp-0" />
        <mxCell id="UT4fuU30Fto-XNaSkWgp-2" value="" style="rounded=1;whiteSpace=wrap;html=1;fillStyle=solid;strokeColor=#6c8ebf;strokeWidth=1;fontSize=11;fillColor=#dae8fc;shadow=0;glass=0;" vertex="1" parent="UT4fuU30Fto-XNaSkWgp-1">
          <mxGeometry x="80" y="473" width="748" height="74" as="geometry" />
        </mxCell>
        <mxCell id="UT4fuU30Fto-XNaSkWgp-3" value="Wells, Datasets and logs" style="rounded=1;whiteSpace=wrap;html=1;arcSize=50;" vertex="1" parent="UT4fuU30Fto-XNaSkWgp-1">
          <mxGeometry x="100" y="113" width="110" height="60" as="geometry" />
        </mxCell>
        <mxCell id="UT4fuU30Fto-XNaSkWgp-4" value="Parquet Files" style="rounded=0;whiteSpace=wrap;html=1;" vertex="1" parent="UT4fuU30Fto-XNaSkWgp-1">
          <mxGeometry x="258" y="213" width="90" height="40" as="geometry" />
        </mxCell>
        <mxCell id="UT4fuU30Fto-XNaSkWgp-5" value="Set up reference log and to-sync log for each well" style="whiteSpace=wrap;html=1;rounded=1;arcSize=50;" vertex="1" parent="UT4fuU30Fto-XNaSkWgp-1">
          <mxGeometry x="248" y="113" width="124" height="63" as="geometry" />
        </mxCell>
        <mxCell id="UT4fuU30Fto-XNaSkWgp-6" value="Input Folder" style="shape=document;whiteSpace=wrap;html=1;boundedLbl=1;" vertex="1" parent="UT4fuU30Fto-XNaSkWgp-1">
          <mxGeometry x="260" y="278" width="90" height="60" as="geometry" />
        </mxCell>
        <mxCell id="UT4fuU30Fto-XNaSkWgp-7" value="Trigger the scenario generating synced logs, shift table,&lt;br&gt;and sending email notification" style="text;html=1;align=center;verticalAlign=middle;resizable=0;points=[];autosize=1;strokeColor=none;fillColor=none;" vertex="1" parent="UT4fuU30Fto-XNaSkWgp-1">
          <mxGeometry x="364" y="271" width="312" height="41" as="geometry" />
        </mxCell>
        <mxCell id="UT4fuU30Fto-XNaSkWgp-8" value="Output Folder" style="shape=document;whiteSpace=wrap;html=1;boundedLbl=1;" vertex="1" parent="UT4fuU30Fto-XNaSkWgp-1">
          <mxGeometry x="700" y="271" width="90" height="60" as="geometry" />
        </mxCell>
        <mxCell id="UT4fuU30Fto-XNaSkWgp-9" value="Parquet Files" style="whiteSpace=wrap;html=1;" vertex="1" parent="UT4fuU30Fto-XNaSkWgp-1">
          <mxGeometry x="676" y="211" width="120" height="60" as="geometry" />
        </mxCell>
        <mxCell id="UT4fuU30Fto-XNaSkWgp-10" value="Download depth matched logs" style="whiteSpace=wrap;html=1;rounded=1;arcSize=50;" vertex="1" parent="UT4fuU30Fto-XNaSkWgp-1">
          <mxGeometry x="676" y="113" width="120" height="60" as="geometry" />
        </mxCell>
        <mxCell id="UT4fuU30Fto-XNaSkWgp-11" value="Run Dataiku Workflow" style="whiteSpace=wrap;html=1;rounded=1;arcSize=50;" vertex="1" parent="UT4fuU30Fto-XNaSkWgp-1">
          <mxGeometry x="448" y="113" width="120" height="60" as="geometry" />
        </mxCell>
        <mxCell id="UT4fuU30Fto-XNaSkWgp-12" value="Techlog" style="shape=tableRow;horizontal=0;swimlaneHead=0;swimlaneBody=0;top=0;left=0;bottom=0;right=0;fillColor=none;points=[[0,0.5],[1,0.5]];portConstraint=eastwest;startSize=40;collapsible=0;recursiveResize=0;expand=0;fontStyle=1;" vertex="1" parent="UT4fuU30Fto-XNaSkWgp-1">
          <mxGeometry x="33" y="468" width="761" height="199" as="geometry" />
        </mxCell>
        <mxCell id="UT4fuU30Fto-XNaSkWgp-13" value="" style="swimlane;swimlaneHead=0;swimlaneBody=0;connectable=0;fillColor=none;startSize=18;collapsible=0;recursiveResize=0;expand=0;fontStyle=1;opacity=0;" vertex="1" parent="UT4fuU30Fto-XNaSkWgp-12">
          <mxGeometry x="40" width="143" height="199" as="geometry">
            <mxRectangle width="143" height="199" as="alternateBounds" />
          </mxGeometry>
        </mxCell>
        <mxCell id="UT4fuU30Fto-XNaSkWgp-14" value="&lt;font color=&quot;#00000f&quot; style=&quot;font-size: 11px;&quot;&gt;&amp;nbsp; Configure Setting Script&lt;/font&gt;" style="shape=hexagon;perimeter=hexagonPerimeter2;whiteSpace=wrap;html=1;fixedSize=1;shadow=0;glass=0;sketch=0;fillStyle=solid;strokeColor=#00000F;strokeWidth=1;fontSize=11;fontColor=none;fillColor=#FFFFFF;" vertex="1" parent="UT4fuU30Fto-XNaSkWgp-13">
          <mxGeometry x="43" y="118" width="80" height="66" as="geometry" />
        </mxCell>
        <mxCell id="UT4fuU30Fto-XNaSkWgp-15" value="" style="swimlane;swimlaneHead=0;swimlaneBody=0;connectable=0;fillColor=none;startSize=18;collapsible=0;recursiveResize=0;expand=0;fontStyle=1;opacity=0;" vertex="1" parent="UT4fuU30Fto-XNaSkWgp-12">
          <mxGeometry x="204" y="1" width="430" height="199" as="geometry">
            <mxRectangle width="430" height="199" as="alternateBounds" />
          </mxGeometry>
        </mxCell>
        <mxCell id="UT4fuU30Fto-XNaSkWgp-16" value="" style="edgeStyle=orthogonalEdgeStyle;rounded=0;orthogonalLoop=1;jettySize=auto;html=1;fontSize=11;exitX=0.365;exitY=0.992;exitDx=0;exitDy=0;exitPerimeter=0;" edge="1" parent="UT4fuU30Fto-XNaSkWgp-15" target="UT4fuU30Fto-XNaSkWgp-20" source="UT4fuU30Fto-XNaSkWgp-51">
          <mxGeometry relative="1" as="geometry">
            <mxPoint x="114.5" y="69" as="sourcePoint" />
            <Array as="points">
              <mxPoint x="109" y="64" />
            </Array>
          </mxGeometry>
        </mxCell>
        <mxCell id="UT4fuU30Fto-XNaSkWgp-17" value="" style="edgeStyle=orthogonalEdgeStyle;rounded=0;orthogonalLoop=1;jettySize=auto;html=1;fontSize=11;fontColor=none;" edge="1" parent="UT4fuU30Fto-XNaSkWgp-15" target="UT4fuU30Fto-XNaSkWgp-22">
          <mxGeometry relative="1" as="geometry">
            <mxPoint x="304" y="69" as="sourcePoint" />
            <Array as="points">
              <mxPoint x="304" y="80" />
              <mxPoint x="304" y="80" />
            </Array>
          </mxGeometry>
        </mxCell>
        <mxCell id="UT4fuU30Fto-XNaSkWgp-18" value="" style="line;strokeWidth=1;html=1;fillStyle=dots;strokeColor=default;fillColor=none;" vertex="1" parent="UT4fuU30Fto-XNaSkWgp-15">
          <mxGeometry x="-193" y="-6" width="1004" height="10" as="geometry" />
        </mxCell>
        <mxCell id="UT4fuU30Fto-XNaSkWgp-19" value="Trigger" style="text;html=1;strokeColor=none;fillColor=none;align=center;verticalAlign=middle;whiteSpace=wrap;rounded=0;fillStyle=dots;strokeWidth=1;rotation=0;" vertex="1" parent="UT4fuU30Fto-XNaSkWgp-15">
          <mxGeometry x="250" y="193" width="54" height="25" as="geometry" />
        </mxCell>
        <mxCell id="UT4fuU30Fto-XNaSkWgp-20" value="&lt;font color=&quot;#00000f&quot; style=&quot;font-size: 11px;&quot;&gt;Uploader &lt;br&gt;Script&lt;/font&gt;" style="shape=hexagon;perimeter=hexagonPerimeter2;whiteSpace=wrap;html=1;fixedSize=1;shadow=0;glass=0;sketch=0;fillStyle=solid;strokeColor=default;strokeWidth=1;fontSize=11;fillColor=#FFFFFF;" vertex="1" parent="UT4fuU30Fto-XNaSkWgp-15">
          <mxGeometry x="72" y="112" width="86.5" height="62" as="geometry" />
        </mxCell>
        <mxCell id="UT4fuU30Fto-XNaSkWgp-21" value="Upload to Dataiku" style="text;html=1;strokeColor=none;fillColor=none;align=center;verticalAlign=middle;whiteSpace=wrap;rounded=0;fillStyle=dots;strokeWidth=1;rotation=0;" vertex="1" parent="UT4fuU30Fto-XNaSkWgp-15">
          <mxGeometry x="112" y="194" width="80" height="24" as="geometry" />
        </mxCell>
        <mxCell id="UT4fuU30Fto-XNaSkWgp-22" value="&lt;font color=&quot;#ffffff&quot; style=&quot;font-size: 13px;&quot;&gt;Trigger Workflow Script&lt;/font&gt;" style="shape=hexagon;perimeter=hexagonPerimeter2;whiteSpace=wrap;html=1;fixedSize=1;shadow=0;glass=0;sketch=0;fillStyle=solid;strokeColor=default;strokeWidth=1;fontSize=11;fillColor=#0014DB;" vertex="1" parent="UT4fuU30Fto-XNaSkWgp-15">
          <mxGeometry x="247" y="104" width="111" height="77" as="geometry" />
        </mxCell>
        <mxCell id="UT4fuU30Fto-XNaSkWgp-51" value="User sets up reference log&lt;br&gt;&amp;nbsp;and desync log" style="shape=step;perimeter=stepPerimeter;whiteSpace=wrap;html=1;fixedSize=1;shadow=0;glass=0;labelBackgroundColor=#FFFFFF;sketch=0;fillStyle=solid;strokeColor=#00000F;strokeWidth=1;fontSize=11;fontColor=#00000F;fillColor=#FFFFFF;" vertex="1" parent="UT4fuU30Fto-XNaSkWgp-15">
          <mxGeometry x="31" y="17" width="200" height="47" as="geometry" />
        </mxCell>
        <mxCell id="UT4fuU30Fto-XNaSkWgp-52" value="&lt;span style=&quot;font-size: 14px;&quot;&gt;User runs&lt;br&gt;Dataiku workflow&lt;br&gt;&lt;/span&gt;" style="shape=step;perimeter=stepPerimeter;whiteSpace=wrap;html=1;fixedSize=1;shadow=0;glass=0;labelBackgroundColor=#0014DB;sketch=0;fillStyle=solid;strokeColor=#0014DB;strokeWidth=1;fontSize=11;fontColor=#FFFFFF;fillColor=#0014DB;" vertex="1" parent="UT4fuU30Fto-XNaSkWgp-15">
          <mxGeometry x="220" y="16" width="205" height="48" as="geometry" />
        </mxCell>
        <mxCell id="UT4fuU30Fto-XNaSkWgp-24" value="" style="swimlane;swimlaneHead=0;swimlaneBody=0;connectable=0;fillColor=none;startSize=18;collapsible=0;recursiveResize=0;expand=0;fontStyle=1;opacity=0;swimlaneLine=0;" vertex="1" parent="UT4fuU30Fto-XNaSkWgp-12">
          <mxGeometry x="613" width="148" height="199" as="geometry">
            <mxRectangle width="148" height="199" as="alternateBounds" />
          </mxGeometry>
        </mxCell>
        <mxCell id="UT4fuU30Fto-XNaSkWgp-25" value="Trigger" style="text;html=1;strokeColor=none;fillColor=none;align=center;verticalAlign=middle;whiteSpace=wrap;rounded=0;fillStyle=dots;strokeWidth=1;rotation=0;" vertex="1" parent="UT4fuU30Fto-XNaSkWgp-24">
          <mxGeometry x="55" y="191" width="54" height="25" as="geometry" />
        </mxCell>
        <mxCell id="UT4fuU30Fto-XNaSkWgp-26" value="User downloads&lt;br&gt;depth matched logs" style="shape=step;perimeter=stepPerimeter;whiteSpace=wrap;html=1;fixedSize=1;shadow=0;glass=0;labelBackgroundColor=#FFFFFF;sketch=0;fillStyle=solid;strokeColor=#00000F;strokeWidth=1;fontSize=11;fontColor=#00000F;fillColor=#FFFFFF;" vertex="1" parent="UT4fuU30Fto-XNaSkWgp-24">
          <mxGeometry x="9" y="18" width="168" height="45" as="geometry" />
        </mxCell>
        <mxCell id="UT4fuU30Fto-XNaSkWgp-27" value="Dataiku" style="shape=tableRow;horizontal=0;swimlaneHead=0;swimlaneBody=0;top=0;left=0;bottom=0;right=0;fillColor=none;points=[[0,0.5],[1,0.5]];portConstraint=eastwest;startSize=40;collapsible=0;recursiveResize=0;expand=0;fontStyle=1;" vertex="1" parent="UT4fuU30Fto-XNaSkWgp-1">
          <mxGeometry x="33" y="667" width="771" height="164" as="geometry" />
        </mxCell>
        <mxCell id="UT4fuU30Fto-XNaSkWgp-28" value="" style="swimlane;swimlaneHead=0;swimlaneBody=0;connectable=0;fillColor=none;startSize=0;collapsible=0;recursiveResize=0;expand=0;fontStyle=1;" vertex="1" parent="UT4fuU30Fto-XNaSkWgp-27">
          <mxGeometry x="82" width="101" height="144" as="geometry">
            <mxRectangle width="143" height="144" as="alternateBounds" />
          </mxGeometry>
        </mxCell>
        <mxCell id="UT4fuU30Fto-XNaSkWgp-29" value="" style="swimlane;swimlaneHead=0;swimlaneBody=0;connectable=0;fillColor=none;startSize=0;collapsible=0;recursiveResize=0;expand=0;fontStyle=1;" vertex="1" parent="UT4fuU30Fto-XNaSkWgp-27">
          <mxGeometry x="184" y="10" width="430" height="144" as="geometry">
            <mxRectangle width="430" height="144" as="alternateBounds" />
          </mxGeometry>
        </mxCell>
        <mxCell id="UT4fuU30Fto-XNaSkWgp-30" value="" style="endArrow=classic;html=1;rounded=0;fontSize=11;dashed=1;" edge="1" parent="UT4fuU30Fto-XNaSkWgp-29">
          <mxGeometry width="50" height="50" relative="1" as="geometry">
            <mxPoint x="177" y="107" as="sourcePoint" />
            <mxPoint x="260" y="107" as="targetPoint" />
          </mxGeometry>
        </mxCell>
        <mxCell id="UT4fuU30Fto-XNaSkWgp-31" value="Parquet Files" style="text;html=1;strokeColor=none;fillColor=none;align=center;verticalAlign=middle;whiteSpace=wrap;rounded=0;shadow=0;glass=0;sketch=0;fillStyle=solid;strokeWidth=1;fontSize=11;" vertex="1" parent="UT4fuU30Fto-XNaSkWgp-29">
          <mxGeometry x="180" y="69" width="60" height="30" as="geometry" />
        </mxCell>
        <mxCell id="UT4fuU30Fto-XNaSkWgp-33" value="&lt;font color=&quot;#ffffff&quot;&gt;&lt;font style=&quot;border-color: var(--border-color);&quot;&gt;&lt;br style=&quot;border-color: var(--border-color);&quot;&gt;&lt;br style=&quot;border-color: var(--border-color);&quot;&gt;Scenario:&amp;nbsp;&lt;span style=&quot;border-color: var(--border-color);&quot;&gt;generating synced logs, shift table,&lt;/span&gt;&lt;br style=&quot;border-color: var(--border-color);&quot;&gt;&lt;span style=&quot;border-color: var(--border-color);&quot;&gt;and sending email notification&lt;/span&gt;&lt;/font&gt;&lt;br style=&quot;border-color: var(--border-color); font-size: 12px;&quot;&gt;&lt;span style=&quot;font-size: 12px;&quot;&gt;&amp;nbsp;&lt;/span&gt;&lt;span style=&quot;border-color: var(--border-color); font-family: monospace; font-size: 0px; text-align: start;&quot;&gt;%3CmxGraphModel%3E%3Croot%3E%3CmxCell%20id%3D%220%22%2F%3E%3CmxCell%20id%3D%221%22%20parent%3D%220%22%2F%3E%3CmxCell%20id%3D%222%22%20value%3D%22Output%20Folder%22%20style%3D%22shape%3Ddocument%3BwhiteSpace%3Dwrap%3Bhtml%3D1%3BboundedLbl%3D1%3B%22%20vertex%3D%221%22%20parent%3D%221%22%3E%3CmxGeometry%20x%3D%22678%22%20y%3D%22716%22%20width%3D%22103%22%20height%3D%2269%22%20as%3D%22geometry%22%2F%3E%3C%2FmxCell%3E%3C%2Froot%3E%3C%2FmxGraphModel%3E&lt;/span&gt;&lt;/font&gt;" style="shape=hexagon;perimeter=hexagonPerimeter2;whiteSpace=wrap;html=1;fixedSize=1;fillStyle=auto;strokeColor=default;strokeWidth=1;fontSize=11;fillColor=#0014DB;" vertex="1" parent="UT4fuU30Fto-XNaSkWgp-29">
          <mxGeometry x="267" y="57" width="121" height="83" as="geometry" />
        </mxCell>
        <mxCell id="SxZgULmniB1Bv_fwCvn3-0" value="" style="shape=cylinder3;whiteSpace=wrap;html=1;boundedLbl=1;backgroundOutline=1;size=15;shadow=0;glass=0;sketch=0;fillStyle=solid;strokeColor=default;strokeWidth=1;fontSize=11;fontColor=none;fillColor=#FFFFFF;" vertex="1" parent="UT4fuU30Fto-XNaSkWgp-29">
          <mxGeometry x="100" y="57" width="57" height="89" as="geometry" />
        </mxCell>
        <mxCell id="SxZgULmniB1Bv_fwCvn3-1" value="&lt;font color=&quot;#00000f&quot; style=&quot;font-size: 11px;&quot;&gt;Wellbore data&lt;/font&gt;" style="text;html=1;strokeColor=none;fillColor=none;align=center;verticalAlign=middle;whiteSpace=wrap;rounded=0;shadow=0;glass=0;sketch=0;fillStyle=solid;strokeWidth=1;fontSize=11;fontColor=none;" vertex="1" parent="UT4fuU30Fto-XNaSkWgp-29">
          <mxGeometry x="100" y="94" width="60" height="36" as="geometry" />
        </mxCell>
        <mxCell id="UT4fuU30Fto-XNaSkWgp-35" value="" style="swimlane;swimlaneHead=0;swimlaneBody=0;connectable=0;fillColor=none;startSize=0;collapsible=0;recursiveResize=0;expand=0;fontStyle=1;" vertex="1" parent="UT4fuU30Fto-XNaSkWgp-27">
          <mxGeometry x="613" width="148" height="144" as="geometry">
            <mxRectangle width="148" height="144" as="alternateBounds" />
          </mxGeometry>
        </mxCell>
        <mxCell id="UT4fuU30Fto-XNaSkWgp-36" value="Datasets: synced logs and shift table" style="text;whiteSpace=wrap;html=1;fontSize=11;" vertex="1" parent="UT4fuU30Fto-XNaSkWgp-35">
          <mxGeometry x="-32" y="68" width="111" height="35" as="geometry" />
        </mxCell>
        <mxCell id="UT4fuU30Fto-XNaSkWgp-37" value="" style="endArrow=classic;html=1;rounded=0;fontSize=11;fontColor=none;entryX=0.667;entryY=1;entryDx=0;entryDy=0;entryPerimeter=0;" edge="1" parent="UT4fuU30Fto-XNaSkWgp-35" target="UT4fuU30Fto-XNaSkWgp-49">
          <mxGeometry width="50" height="50" relative="1" as="geometry">
            <mxPoint x="147" y="70" as="sourcePoint" />
            <mxPoint x="147" y="-19" as="targetPoint" />
            <Array as="points" />
          </mxGeometry>
        </mxCell>
        <mxCell id="UT4fuU30Fto-XNaSkWgp-39" value="" style="endArrow=classic;html=1;rounded=0;fontSize=11;dashed=1;" edge="1" parent="UT4fuU30Fto-XNaSkWgp-35">
          <mxGeometry width="50" height="50" relative="1" as="geometry">
            <mxPoint x="-30" y="115" as="sourcePoint" />
            <mxPoint x="70" y="115" as="targetPoint" />
            <Array as="points">
              <mxPoint x="9" y="115" />
              <mxPoint x="42" y="115" />
            </Array>
          </mxGeometry>
        </mxCell>
        <mxCell id="UT4fuU30Fto-XNaSkWgp-38" value="&lt;font style=&quot;border-color: var(--border-color);&quot;&gt;&lt;br style=&quot;border-color: var(--border-color);&quot;&gt;&lt;br style=&quot;border-color: var(--border-color);&quot;&gt;&amp;nbsp; Scenario:&amp;nbsp; converting Dataiku datasets into parquet files&lt;/font&gt;&lt;br style=&quot;border-color: var(--border-color); font-size: 12px;&quot;&gt;&lt;span style=&quot;font-size: 12px;&quot;&gt;&amp;nbsp;&lt;/span&gt;&lt;span style=&quot;border-color: var(--border-color); color: rgba(0, 0, 0, 0); font-family: monospace; font-size: 0px; text-align: start;&quot;&gt;%3CmxGraphModel%3E%3Croot%3E%3CmxCell%20id%3D%220%22%2F%3E%3CmxCell%20id%3D%221%22%20parent%3D%220%22%2F%3E%3CmxCell%20id%3D%222%22%20value%3D%22Output%20Folder%22%20style%3D%22shape%3Ddocument%3BwhiteSpace%3Dwrap%3Bhtml%3D1%3BboundedLbl%3D1%3B%22%20vertex%3D%221%22%20parent%3D%221%22%3E%3CmxGeometry%20x%3D%22678%22%20y%3D%22716%22%20width%3D%22103%22%20height%3D%2269%22%20as%3D%22geometry%22%2F%3E%3C%2FmxCell%3E%3C%2Froot%3E%3C%2FmxGraphModel%3E&lt;/span&gt;" style="shape=hexagon;perimeter=hexagonPerimeter2;whiteSpace=wrap;html=1;fixedSize=1;fillStyle=dots;strokeColor=default;strokeWidth=1;fontSize=11;fillColor=none;" vertex="1" parent="UT4fuU30Fto-XNaSkWgp-27">
          <mxGeometry x="685" y="70" width="120" height="80" as="geometry" />
        </mxCell>
        <mxCell id="UT4fuU30Fto-XNaSkWgp-40" value="&lt;span style=&quot;font-weight: 700;&quot;&gt;Log QC Solution - Auto Depth Matching Workflow&lt;/span&gt;" style="text;html=1;strokeColor=none;fillColor=none;align=center;verticalAlign=middle;whiteSpace=wrap;rounded=0;fillStyle=dots;strokeWidth=1;" vertex="1" parent="UT4fuU30Fto-XNaSkWgp-1">
          <mxGeometry x="304" y="439" width="408" height="30" as="geometry" />
        </mxCell>
        <mxCell id="UT4fuU30Fto-XNaSkWgp-41" value="Download from Dataiku" style="text;html=1;strokeColor=none;fillColor=none;align=center;verticalAlign=middle;whiteSpace=wrap;rounded=0;fillStyle=dots;strokeWidth=1;rotation=0;" vertex="1" parent="UT4fuU30Fto-XNaSkWgp-1">
          <mxGeometry x="796" y="660" width="72" height="27" as="geometry" />
        </mxCell>
        <mxCell id="UT4fuU30Fto-XNaSkWgp-42" value="&amp;nbsp;Synced logs and shift tables automatically appear in Wellbores" style="ellipse;whiteSpace=wrap;html=1;" vertex="1" parent="UT4fuU30Fto-XNaSkWgp-1">
          <mxGeometry x="902" y="567" width="119" height="86" as="geometry" />
        </mxCell>
        <mxCell id="UT4fuU30Fto-XNaSkWgp-43" value="" style="verticalLabelPosition=bottom;verticalAlign=top;html=1;shape=mxgraph.basic.rect;fillColor2=none;strokeWidth=1;size=20;indent=5;fillStyle=dots;strokeColor=default;fillColor=none;" vertex="1" parent="UT4fuU30Fto-XNaSkWgp-1">
          <mxGeometry x="44" y="431" width="1007" height="400" as="geometry" />
        </mxCell>
        <mxCell id="UT4fuU30Fto-XNaSkWgp-44" value="" style="edgeStyle=orthogonalEdgeStyle;rounded=0;orthogonalLoop=1;jettySize=auto;html=1;fontSize=11;" edge="1" parent="UT4fuU30Fto-XNaSkWgp-1" source="UT4fuU30Fto-XNaSkWgp-20">
          <mxGeometry relative="1" as="geometry">
            <mxPoint x="345" y="730" as="targetPoint" />
            <Array as="points">
              <mxPoint x="345" y="722" />
              <mxPoint x="345" y="722" />
            </Array>
          </mxGeometry>
        </mxCell>
        <mxCell id="UT4fuU30Fto-XNaSkWgp-45" value="" style="edgeStyle=orthogonalEdgeStyle;rounded=0;orthogonalLoop=1;jettySize=auto;html=1;fontSize=11;fontColor=none;entryX=0.436;entryY=-0.02;entryDx=0;entryDy=0;entryPerimeter=0;" edge="1" parent="UT4fuU30Fto-XNaSkWgp-1" target="UT4fuU30Fto-XNaSkWgp-33">
          <mxGeometry relative="1" as="geometry">
            <mxPoint x="536" y="644" as="sourcePoint" />
            <Array as="points" />
          </mxGeometry>
        </mxCell>
        <mxCell id="UT4fuU30Fto-XNaSkWgp-46" value="" style="edgeStyle=orthogonalEdgeStyle;rounded=0;orthogonalLoop=1;jettySize=auto;html=1;fontSize=11;fontColor=none;" edge="1" parent="UT4fuU30Fto-XNaSkWgp-1" source="UT4fuU30Fto-XNaSkWgp-49" target="UT4fuU30Fto-XNaSkWgp-42">
          <mxGeometry relative="1" as="geometry" />
        </mxCell>
        <mxCell id="UT4fuU30Fto-XNaSkWgp-47" value="" style="line;strokeWidth=1;html=1;fillStyle=dots;strokeColor=default;fillColor=none;" vertex="1" parent="UT4fuU30Fto-XNaSkWgp-1">
          <mxGeometry x="44" y="691" width="1004" height="10" as="geometry" />
        </mxCell>
        <mxCell id="UT4fuU30Fto-XNaSkWgp-48" value="" style="edgeStyle=orthogonalEdgeStyle;rounded=0;orthogonalLoop=1;jettySize=auto;html=1;fontSize=11;fontColor=none;entryX=0.5;entryY=0;entryDx=0;entryDy=0;" edge="1" parent="UT4fuU30Fto-XNaSkWgp-1" source="UT4fuU30Fto-XNaSkWgp-49" target="UT4fuU30Fto-XNaSkWgp-38">
          <mxGeometry relative="1" as="geometry">
            <Array as="points">
              <mxPoint x="778" y="663" />
              <mxPoint x="778" y="663" />
            </Array>
          </mxGeometry>
        </mxCell>
        <mxCell id="UT4fuU30Fto-XNaSkWgp-49" value="Downloader Script" style="shape=hexagon;perimeter=hexagonPerimeter2;whiteSpace=wrap;html=1;fixedSize=1;shadow=0;glass=0;sketch=0;fillStyle=solid;strokeColor=default;strokeWidth=1;fontSize=11;fillColor=none;" vertex="1" parent="UT4fuU30Fto-XNaSkWgp-1">
          <mxGeometry x="732" y="579" width="90" height="62" as="geometry" />
        </mxCell>
        <mxCell id="UT4fuU30Fto-XNaSkWgp-50" value="&lt;br&gt;&lt;br&gt;&lt;br&gt;" style="edgeStyle=orthogonalEdgeStyle;rounded=0;orthogonalLoop=1;jettySize=auto;html=1;fontSize=11;fontColor=none;" edge="1" parent="UT4fuU30Fto-XNaSkWgp-1" target="UT4fuU30Fto-XNaSkWgp-49">
          <mxGeometry relative="1" as="geometry">
            <mxPoint x="778" y="539" as="sourcePoint" />
            <Array as="points">
              <mxPoint x="778" y="549" />
              <mxPoint x="778" y="549" />
            </Array>
          </mxGeometry>
        </mxCell>
        <mxCell id="UT4fuU30Fto-XNaSkWgp-53" value="&lt;font style=&quot;font-size: 14px;&quot;&gt;User upload Wellbores,&lt;br&gt;Datasets and logs&amp;nbsp;&lt;/font&gt;" style="shape=step;perimeter=stepPerimeter;whiteSpace=wrap;html=1;fixedSize=1;shadow=0;glass=0;labelBackgroundColor=#0014DB;sketch=0;fillStyle=solid;strokeColor=#0014DB;strokeWidth=1;fontSize=11;fontColor=#FFFFFF;fillColor=#0014DB;" vertex="1" parent="UT4fuU30Fto-XNaSkWgp-1">
          <mxGeometry x="67" y="305" width="188" height="62" as="geometry" />
        </mxCell>
        <mxCell id="EyH-xhpGMrCpvSLlc49X-0" value="" style="edgeStyle=orthogonalEdgeStyle;rounded=0;orthogonalLoop=1;jettySize=auto;html=1;fontSize=14;fontColor=#FFFFFF;" edge="1" parent="UT4fuU30Fto-XNaSkWgp-1" source="UT4fuU30Fto-XNaSkWgp-54" target="UT4fuU30Fto-XNaSkWgp-14">
          <mxGeometry relative="1" as="geometry">
            <Array as="points">
              <mxPoint x="156" y="548" />
              <mxPoint x="156" y="548" />
            </Array>
          </mxGeometry>
        </mxCell>
        <mxCell id="UT4fuU30Fto-XNaSkWgp-54" value="User uploads Wellbores,&lt;br&gt;Datasets and logs" style="shape=step;perimeter=stepPerimeter;whiteSpace=wrap;html=1;fixedSize=1;shadow=0;glass=0;labelBackgroundColor=#FFFFFF;sketch=0;fillStyle=solid;strokeColor=#00000F;strokeWidth=1;fontSize=11;fontColor=#00000F;fillColor=#FFFFFF;" vertex="1" parent="UT4fuU30Fto-XNaSkWgp-1">
          <mxGeometry x="85" y="485" width="183" height="48" as="geometry" />
        </mxCell>
        <mxCell id="UT4fuU30Fto-XNaSkWgp-23" value="Users Run Dataiku Workflow" style="shape=step;perimeter=stepPerimeter;whiteSpace=wrap;html=1;fixedSize=1;shadow=0;glass=0;labelBackgroundColor=#FFFFFF;sketch=0;fillStyle=solid;strokeColor=#00000F;strokeWidth=1;fontSize=11;fontColor=#00000F;fillColor=#FFFFFF;" vertex="1" parent="UT4fuU30Fto-XNaSkWgp-1">
          <mxGeometry x="776" y="305" width="193" height="47" as="geometry" />
        </mxCell>
      </root>
    </mxGraphModel>
  </diagram>
  <diagram name="fourth step" id="ETsTgWWAIEL9sJa_N8__">
    <mxGraphModel dx="1972" dy="1089" grid="0" gridSize="10" guides="1" tooltips="1" connect="1" arrows="1" fold="1" page="1" pageScale="1" pageWidth="1169" pageHeight="1654" math="0" shadow="0">
      <root>
        <mxCell id="2QMXrJjkgTMu1Tanbwcy-0" />
        <mxCell id="2QMXrJjkgTMu1Tanbwcy-1" parent="2QMXrJjkgTMu1Tanbwcy-0" />
        <mxCell id="2QMXrJjkgTMu1Tanbwcy-2" value="" style="rounded=1;whiteSpace=wrap;html=1;fillStyle=solid;strokeColor=#6c8ebf;strokeWidth=1;fontSize=11;fillColor=#dae8fc;shadow=0;glass=0;" vertex="1" parent="2QMXrJjkgTMu1Tanbwcy-1">
          <mxGeometry x="80" y="473" width="748" height="74" as="geometry" />
        </mxCell>
        <mxCell id="2QMXrJjkgTMu1Tanbwcy-3" value="Wells, Datasets and logs" style="rounded=1;whiteSpace=wrap;html=1;arcSize=50;" vertex="1" parent="2QMXrJjkgTMu1Tanbwcy-1">
          <mxGeometry x="100" y="113" width="110" height="60" as="geometry" />
        </mxCell>
        <mxCell id="2QMXrJjkgTMu1Tanbwcy-4" value="Parquet Files" style="rounded=0;whiteSpace=wrap;html=1;" vertex="1" parent="2QMXrJjkgTMu1Tanbwcy-1">
          <mxGeometry x="258" y="213" width="90" height="40" as="geometry" />
        </mxCell>
        <mxCell id="2QMXrJjkgTMu1Tanbwcy-5" value="Set up reference log and to-sync log for each well" style="whiteSpace=wrap;html=1;rounded=1;arcSize=50;" vertex="1" parent="2QMXrJjkgTMu1Tanbwcy-1">
          <mxGeometry x="248" y="113" width="124" height="63" as="geometry" />
        </mxCell>
        <mxCell id="2QMXrJjkgTMu1Tanbwcy-6" value="Input Folder" style="shape=document;whiteSpace=wrap;html=1;boundedLbl=1;" vertex="1" parent="2QMXrJjkgTMu1Tanbwcy-1">
          <mxGeometry x="260" y="278" width="90" height="60" as="geometry" />
        </mxCell>
        <mxCell id="2QMXrJjkgTMu1Tanbwcy-7" value="Trigger the scenario generating synced logs, shift table,&lt;br&gt;and sending email notification" style="text;html=1;align=center;verticalAlign=middle;resizable=0;points=[];autosize=1;strokeColor=none;fillColor=none;" vertex="1" parent="2QMXrJjkgTMu1Tanbwcy-1">
          <mxGeometry x="364" y="271" width="312" height="41" as="geometry" />
        </mxCell>
        <mxCell id="2QMXrJjkgTMu1Tanbwcy-8" value="Output Folder" style="shape=document;whiteSpace=wrap;html=1;boundedLbl=1;" vertex="1" parent="2QMXrJjkgTMu1Tanbwcy-1">
          <mxGeometry x="700" y="271" width="90" height="60" as="geometry" />
        </mxCell>
        <mxCell id="2QMXrJjkgTMu1Tanbwcy-9" value="Parquet Files" style="whiteSpace=wrap;html=1;" vertex="1" parent="2QMXrJjkgTMu1Tanbwcy-1">
          <mxGeometry x="676" y="211" width="120" height="60" as="geometry" />
        </mxCell>
        <mxCell id="2QMXrJjkgTMu1Tanbwcy-10" value="Download depth matched logs" style="whiteSpace=wrap;html=1;rounded=1;arcSize=50;" vertex="1" parent="2QMXrJjkgTMu1Tanbwcy-1">
          <mxGeometry x="676" y="113" width="120" height="60" as="geometry" />
        </mxCell>
        <mxCell id="2QMXrJjkgTMu1Tanbwcy-11" value="Run Dataiku Workflow" style="whiteSpace=wrap;html=1;rounded=1;arcSize=50;" vertex="1" parent="2QMXrJjkgTMu1Tanbwcy-1">
          <mxGeometry x="448" y="113" width="120" height="60" as="geometry" />
        </mxCell>
        <mxCell id="2QMXrJjkgTMu1Tanbwcy-12" value="Techlog" style="shape=tableRow;horizontal=0;swimlaneHead=0;swimlaneBody=0;top=0;left=0;bottom=0;right=0;fillColor=none;points=[[0,0.5],[1,0.5]];portConstraint=eastwest;startSize=40;collapsible=0;recursiveResize=0;expand=0;fontStyle=1;" vertex="1" parent="2QMXrJjkgTMu1Tanbwcy-1">
          <mxGeometry x="33" y="468" width="761" height="199" as="geometry" />
        </mxCell>
        <mxCell id="2QMXrJjkgTMu1Tanbwcy-13" value="" style="swimlane;swimlaneHead=0;swimlaneBody=0;connectable=0;fillColor=none;startSize=18;collapsible=0;recursiveResize=0;expand=0;fontStyle=1;opacity=0;" vertex="1" parent="2QMXrJjkgTMu1Tanbwcy-12">
          <mxGeometry x="40" width="143" height="199" as="geometry">
            <mxRectangle width="143" height="199" as="alternateBounds" />
          </mxGeometry>
        </mxCell>
        <mxCell id="2QMXrJjkgTMu1Tanbwcy-14" value="&lt;font color=&quot;#00000f&quot; style=&quot;font-size: 11px;&quot;&gt;&amp;nbsp; Configure Setting Script&lt;/font&gt;" style="shape=hexagon;perimeter=hexagonPerimeter2;whiteSpace=wrap;html=1;fixedSize=1;shadow=0;glass=0;sketch=0;fillStyle=solid;strokeColor=#00000F;strokeWidth=1;fontSize=11;fontColor=none;fillColor=#FFFFFF;" vertex="1" parent="2QMXrJjkgTMu1Tanbwcy-13">
          <mxGeometry x="43" y="118" width="80" height="66" as="geometry" />
        </mxCell>
        <mxCell id="2QMXrJjkgTMu1Tanbwcy-15" value="" style="swimlane;swimlaneHead=0;swimlaneBody=0;connectable=0;fillColor=none;startSize=18;collapsible=0;recursiveResize=0;expand=0;fontStyle=1;opacity=0;" vertex="1" parent="2QMXrJjkgTMu1Tanbwcy-12">
          <mxGeometry x="204" y="1" width="430" height="199" as="geometry">
            <mxRectangle width="430" height="199" as="alternateBounds" />
          </mxGeometry>
        </mxCell>
        <mxCell id="2QMXrJjkgTMu1Tanbwcy-17" value="" style="edgeStyle=orthogonalEdgeStyle;rounded=0;orthogonalLoop=1;jettySize=auto;html=1;fontSize=11;fontColor=none;" edge="1" parent="2QMXrJjkgTMu1Tanbwcy-15" target="2QMXrJjkgTMu1Tanbwcy-22">
          <mxGeometry relative="1" as="geometry">
            <mxPoint x="304" y="69" as="sourcePoint" />
            <Array as="points">
              <mxPoint x="304" y="80" />
              <mxPoint x="304" y="80" />
            </Array>
          </mxGeometry>
        </mxCell>
        <mxCell id="2QMXrJjkgTMu1Tanbwcy-18" value="" style="line;strokeWidth=1;html=1;fillStyle=dots;strokeColor=default;fillColor=none;" vertex="1" parent="2QMXrJjkgTMu1Tanbwcy-15">
          <mxGeometry x="-193" y="-6" width="1004" height="10" as="geometry" />
        </mxCell>
        <mxCell id="2QMXrJjkgTMu1Tanbwcy-19" value="Trigger" style="text;html=1;strokeColor=none;fillColor=none;align=center;verticalAlign=middle;whiteSpace=wrap;rounded=0;fillStyle=dots;strokeWidth=1;rotation=0;" vertex="1" parent="2QMXrJjkgTMu1Tanbwcy-15">
          <mxGeometry x="250" y="193" width="54" height="25" as="geometry" />
        </mxCell>
        <mxCell id="2QMXrJjkgTMu1Tanbwcy-20" value="&lt;font color=&quot;#00000f&quot; style=&quot;font-size: 11px;&quot;&gt;Uploader &lt;br&gt;Script&lt;/font&gt;" style="shape=hexagon;perimeter=hexagonPerimeter2;whiteSpace=wrap;html=1;fixedSize=1;shadow=0;glass=0;sketch=0;fillStyle=solid;strokeColor=default;strokeWidth=1;fontSize=11;fillColor=#FFFFFF;" vertex="1" parent="2QMXrJjkgTMu1Tanbwcy-15">
          <mxGeometry x="72" y="112" width="86.5" height="62" as="geometry" />
        </mxCell>
        <mxCell id="2QMXrJjkgTMu1Tanbwcy-21" value="Upload to Dataiku" style="text;html=1;strokeColor=none;fillColor=none;align=center;verticalAlign=middle;whiteSpace=wrap;rounded=0;fillStyle=dots;strokeWidth=1;rotation=0;" vertex="1" parent="2QMXrJjkgTMu1Tanbwcy-15">
          <mxGeometry x="112" y="194" width="80" height="24" as="geometry" />
        </mxCell>
        <mxCell id="2QMXrJjkgTMu1Tanbwcy-22" value="&lt;font color=&quot;#00000f&quot; style=&quot;font-size: 11px;&quot;&gt;Trigger Workflow Script&lt;/font&gt;" style="shape=hexagon;perimeter=hexagonPerimeter2;whiteSpace=wrap;html=1;fixedSize=1;shadow=0;glass=0;sketch=0;fillStyle=solid;strokeColor=default;strokeWidth=1;fontSize=11;fillColor=#FFFFFF;" vertex="1" parent="2QMXrJjkgTMu1Tanbwcy-15">
          <mxGeometry x="254" y="113" width="94" height="61" as="geometry" />
        </mxCell>
        <mxCell id="OQl7e9AIJgTfZbxaCcTW-2" value="" style="edgeStyle=orthogonalEdgeStyle;rounded=0;orthogonalLoop=1;jettySize=auto;html=1;fontSize=12;fontColor=#FFFFFF;" edge="1" parent="2QMXrJjkgTMu1Tanbwcy-15" source="2QMXrJjkgTMu1Tanbwcy-23" target="2QMXrJjkgTMu1Tanbwcy-20">
          <mxGeometry relative="1" as="geometry">
            <Array as="points">
              <mxPoint x="115" y="69" />
              <mxPoint x="115" y="69" />
            </Array>
          </mxGeometry>
        </mxCell>
        <mxCell id="2QMXrJjkgTMu1Tanbwcy-23" value="User set up reference log&lt;br&gt;&amp;nbsp;and desync log" style="shape=step;perimeter=stepPerimeter;whiteSpace=wrap;html=1;fixedSize=1;shadow=0;glass=0;labelBackgroundColor=#FFFFFF;sketch=0;fillStyle=solid;strokeColor=#00000F;strokeWidth=1;fontSize=11;fontColor=#00000F;fillColor=#FFFFFF;" vertex="1" parent="2QMXrJjkgTMu1Tanbwcy-15">
          <mxGeometry x="31" y="17" width="200" height="47" as="geometry" />
        </mxCell>
        <mxCell id="2QMXrJjkgTMu1Tanbwcy-55" value="Users Run Dataiku Workflow" style="shape=step;perimeter=stepPerimeter;whiteSpace=wrap;html=1;fixedSize=1;shadow=0;glass=0;labelBackgroundColor=#FFFFFF;sketch=0;fillStyle=solid;strokeColor=#00000F;strokeWidth=1;fontSize=11;fontColor=#00000F;fillColor=#FFFFFF;" vertex="1" parent="2QMXrJjkgTMu1Tanbwcy-15">
          <mxGeometry x="221" y="17" width="193" height="47" as="geometry" />
        </mxCell>
        <mxCell id="2QMXrJjkgTMu1Tanbwcy-25" value="" style="swimlane;swimlaneHead=0;swimlaneBody=0;connectable=0;fillColor=none;startSize=18;collapsible=0;recursiveResize=0;expand=0;fontStyle=1;opacity=0;swimlaneLine=0;" vertex="1" parent="2QMXrJjkgTMu1Tanbwcy-12">
          <mxGeometry x="613" width="148" height="199" as="geometry">
            <mxRectangle width="148" height="199" as="alternateBounds" />
          </mxGeometry>
        </mxCell>
        <mxCell id="2QMXrJjkgTMu1Tanbwcy-26" value="Trigger" style="text;html=1;strokeColor=none;fillColor=none;align=center;verticalAlign=middle;whiteSpace=wrap;rounded=0;fillStyle=dots;strokeWidth=1;rotation=0;" vertex="1" parent="2QMXrJjkgTMu1Tanbwcy-25">
          <mxGeometry x="55" y="191" width="54" height="25" as="geometry" />
        </mxCell>
        <mxCell id="2QMXrJjkgTMu1Tanbwcy-52" value="&lt;span style=&quot;font-size: 14px;&quot;&gt;Users download&lt;br&gt;&lt;/span&gt;&lt;font style=&quot;font-size: 14px;&quot;&gt;depth matched logs&lt;/font&gt;" style="shape=step;perimeter=stepPerimeter;whiteSpace=wrap;html=1;fixedSize=1;shadow=0;glass=0;labelBackgroundColor=#0014DB;sketch=0;fillStyle=solid;strokeColor=#0014DB;strokeWidth=1;fontSize=11;fontColor=#FFFFFF;fillColor=#0014DB;" vertex="1" parent="2QMXrJjkgTMu1Tanbwcy-25">
          <mxGeometry x="-4" y="20" width="182" height="47" as="geometry" />
        </mxCell>
        <mxCell id="2QMXrJjkgTMu1Tanbwcy-28" value="Dataiku" style="shape=tableRow;horizontal=0;swimlaneHead=0;swimlaneBody=0;top=0;left=0;bottom=0;right=0;fillColor=none;points=[[0,0.5],[1,0.5]];portConstraint=eastwest;startSize=40;collapsible=0;recursiveResize=0;expand=0;fontStyle=1;" vertex="1" parent="2QMXrJjkgTMu1Tanbwcy-1">
          <mxGeometry x="33" y="667" width="771" height="164" as="geometry" />
        </mxCell>
        <mxCell id="2QMXrJjkgTMu1Tanbwcy-29" value="" style="swimlane;swimlaneHead=0;swimlaneBody=0;connectable=0;fillColor=none;startSize=0;collapsible=0;recursiveResize=0;expand=0;fontStyle=1;" vertex="1" parent="2QMXrJjkgTMu1Tanbwcy-28">
          <mxGeometry x="82" width="101" height="144" as="geometry">
            <mxRectangle width="143" height="144" as="alternateBounds" />
          </mxGeometry>
        </mxCell>
        <mxCell id="2QMXrJjkgTMu1Tanbwcy-30" value="" style="swimlane;swimlaneHead=0;swimlaneBody=0;connectable=0;fillColor=none;startSize=0;collapsible=0;recursiveResize=0;expand=0;fontStyle=1;" vertex="1" parent="2QMXrJjkgTMu1Tanbwcy-28">
          <mxGeometry x="184" y="6" width="430" height="144" as="geometry">
            <mxRectangle width="430" height="144" as="alternateBounds" />
          </mxGeometry>
        </mxCell>
        <mxCell id="2QMXrJjkgTMu1Tanbwcy-31" value="" style="endArrow=classic;html=1;rounded=0;fontSize=11;dashed=1;" edge="1" parent="2QMXrJjkgTMu1Tanbwcy-30">
          <mxGeometry width="50" height="50" relative="1" as="geometry">
            <mxPoint x="177" y="107" as="sourcePoint" />
            <mxPoint x="260" y="107" as="targetPoint" />
          </mxGeometry>
        </mxCell>
        <mxCell id="2QMXrJjkgTMu1Tanbwcy-32" value="Parquet Files" style="text;html=1;strokeColor=none;fillColor=none;align=center;verticalAlign=middle;whiteSpace=wrap;rounded=0;shadow=0;glass=0;sketch=0;fillStyle=solid;strokeWidth=1;fontSize=11;" vertex="1" parent="2QMXrJjkgTMu1Tanbwcy-30">
          <mxGeometry x="180" y="69" width="60" height="30" as="geometry" />
        </mxCell>
        <mxCell id="2QMXrJjkgTMu1Tanbwcy-34" value="&lt;font style=&quot;border-color: var(--border-color);&quot;&gt;&lt;br style=&quot;border-color: var(--border-color);&quot;&gt;&lt;br style=&quot;border-color: var(--border-color);&quot;&gt;Scenario:&amp;nbsp;&lt;span style=&quot;border-color: var(--border-color);&quot;&gt;generating synced logs, shift table,&lt;/span&gt;&lt;br style=&quot;border-color: var(--border-color);&quot;&gt;&lt;span style=&quot;border-color: var(--border-color);&quot;&gt;and sending email notification&lt;/span&gt;&lt;/font&gt;&lt;br style=&quot;border-color: var(--border-color); font-size: 12px;&quot;&gt;&lt;span style=&quot;font-size: 12px;&quot;&gt;&amp;nbsp;&lt;/span&gt;&lt;span style=&quot;border-color: var(--border-color); font-family: monospace; font-size: 0px; text-align: start;&quot;&gt;%3CmxGraphModel%3E%3Croot%3E%3CmxCell%20id%3D%220%22%2F%3E%3CmxCell%20id%3D%221%22%20parent%3D%220%22%2F%3E%3CmxCell%20id%3D%222%22%20value%3D%22Output%20Folder%22%20style%3D%22shape%3Ddocument%3BwhiteSpace%3Dwrap%3Bhtml%3D1%3BboundedLbl%3D1%3B%22%20vertex%3D%221%22%20parent%3D%221%22%3E%3CmxGeometry%20x%3D%22678%22%20y%3D%22716%22%20width%3D%22103%22%20height%3D%2269%22%20as%3D%22geometry%22%2F%3E%3C%2FmxCell%3E%3C%2Froot%3E%3C%2FmxGraphModel%3E&lt;/span&gt;" style="shape=hexagon;perimeter=hexagonPerimeter2;whiteSpace=wrap;html=1;fixedSize=1;fillStyle=auto;strokeColor=default;strokeWidth=1;fontSize=11;fillColor=#FFFFFF;" vertex="1" parent="2QMXrJjkgTMu1Tanbwcy-30">
          <mxGeometry x="267" y="57" width="121" height="83" as="geometry" />
        </mxCell>
        <mxCell id="OQl7e9AIJgTfZbxaCcTW-0" value="" style="shape=cylinder3;whiteSpace=wrap;html=1;boundedLbl=1;backgroundOutline=1;size=15;shadow=0;glass=0;sketch=0;fillStyle=solid;strokeColor=default;strokeWidth=1;fontSize=11;fontColor=none;fillColor=#FFFFFF;" vertex="1" parent="2QMXrJjkgTMu1Tanbwcy-30">
          <mxGeometry x="100" y="66" width="58" height="88" as="geometry" />
        </mxCell>
        <mxCell id="OQl7e9AIJgTfZbxaCcTW-1" value="&lt;font color=&quot;#00000f&quot; style=&quot;font-size: 11px;&quot;&gt;Wellbore data&lt;/font&gt;" style="text;html=1;strokeColor=none;fillColor=none;align=center;verticalAlign=middle;whiteSpace=wrap;rounded=0;shadow=0;glass=0;sketch=0;fillStyle=solid;strokeWidth=1;fontSize=11;fontColor=none;" vertex="1" parent="2QMXrJjkgTMu1Tanbwcy-30">
          <mxGeometry x="100" y="108" width="60" height="36" as="geometry" />
        </mxCell>
        <mxCell id="2QMXrJjkgTMu1Tanbwcy-36" value="" style="swimlane;swimlaneHead=0;swimlaneBody=0;connectable=0;fillColor=none;startSize=0;collapsible=0;recursiveResize=0;expand=0;fontStyle=1;" vertex="1" parent="2QMXrJjkgTMu1Tanbwcy-28">
          <mxGeometry x="613" width="148" height="144" as="geometry">
            <mxRectangle width="148" height="144" as="alternateBounds" />
          </mxGeometry>
        </mxCell>
        <mxCell id="2QMXrJjkgTMu1Tanbwcy-37" value="Datasets: synced logs and shift table" style="text;whiteSpace=wrap;html=1;fontSize=11;" vertex="1" parent="2QMXrJjkgTMu1Tanbwcy-36">
          <mxGeometry x="-34" y="73" width="111" height="35" as="geometry" />
        </mxCell>
        <mxCell id="2QMXrJjkgTMu1Tanbwcy-38" value="" style="endArrow=classic;html=1;rounded=0;fontSize=11;fontColor=none;entryX=0.667;entryY=1;entryDx=0;entryDy=0;entryPerimeter=0;" edge="1" parent="2QMXrJjkgTMu1Tanbwcy-36" target="2QMXrJjkgTMu1Tanbwcy-50">
          <mxGeometry width="50" height="50" relative="1" as="geometry">
            <mxPoint x="147" y="70" as="sourcePoint" />
            <mxPoint x="147" y="-19" as="targetPoint" />
            <Array as="points" />
          </mxGeometry>
        </mxCell>
        <mxCell id="2QMXrJjkgTMu1Tanbwcy-40" value="" style="endArrow=classic;html=1;rounded=0;fontSize=11;dashed=1;" edge="1" parent="2QMXrJjkgTMu1Tanbwcy-36">
          <mxGeometry width="50" height="50" relative="1" as="geometry">
            <mxPoint x="-26" y="115" as="sourcePoint" />
            <mxPoint x="61" y="115" as="targetPoint" />
            <Array as="points">
              <mxPoint y="115" />
              <mxPoint x="33" y="115" />
            </Array>
          </mxGeometry>
        </mxCell>
        <mxCell id="2QMXrJjkgTMu1Tanbwcy-41" value="&lt;span style=&quot;font-weight: 700;&quot;&gt;Log QC Solution - Auto Depth Matching Workflow&lt;/span&gt;" style="text;html=1;strokeColor=none;fillColor=none;align=center;verticalAlign=middle;whiteSpace=wrap;rounded=0;fillStyle=dots;strokeWidth=1;" vertex="1" parent="2QMXrJjkgTMu1Tanbwcy-1">
          <mxGeometry x="304" y="439" width="408" height="30" as="geometry" />
        </mxCell>
        <mxCell id="2QMXrJjkgTMu1Tanbwcy-42" value="Download from Dataiku" style="text;html=1;strokeColor=none;fillColor=none;align=center;verticalAlign=middle;whiteSpace=wrap;rounded=0;fillStyle=dots;strokeWidth=1;rotation=0;" vertex="1" parent="2QMXrJjkgTMu1Tanbwcy-1">
          <mxGeometry x="796" y="660" width="72" height="27" as="geometry" />
        </mxCell>
        <mxCell id="2QMXrJjkgTMu1Tanbwcy-43" value="&lt;font color=&quot;#ffffff&quot;&gt;&amp;nbsp;Synced logs and shift tables automatically appear in Wellbores&lt;/font&gt;" style="ellipse;whiteSpace=wrap;html=1;fillColor=#0014DB;" vertex="1" parent="2QMXrJjkgTMu1Tanbwcy-1">
          <mxGeometry x="902" y="567" width="119" height="86" as="geometry" />
        </mxCell>
        <mxCell id="2QMXrJjkgTMu1Tanbwcy-44" value="" style="verticalLabelPosition=bottom;verticalAlign=top;html=1;shape=mxgraph.basic.rect;fillColor2=none;strokeWidth=1;size=20;indent=74.84;fillStyle=dots;strokeColor=default;fillColor=none;" vertex="1" parent="2QMXrJjkgTMu1Tanbwcy-1">
          <mxGeometry x="42.5" y="434" width="1007" height="400" as="geometry" />
        </mxCell>
        <mxCell id="2QMXrJjkgTMu1Tanbwcy-46" value="" style="edgeStyle=orthogonalEdgeStyle;rounded=0;orthogonalLoop=1;jettySize=auto;html=1;fontSize=11;fontColor=none;entryX=0.436;entryY=-0.02;entryDx=0;entryDy=0;entryPerimeter=0;" edge="1" parent="2QMXrJjkgTMu1Tanbwcy-1" target="2QMXrJjkgTMu1Tanbwcy-34">
          <mxGeometry relative="1" as="geometry">
            <mxPoint x="536" y="644" as="sourcePoint" />
            <Array as="points" />
          </mxGeometry>
        </mxCell>
        <mxCell id="2QMXrJjkgTMu1Tanbwcy-47" value="" style="edgeStyle=orthogonalEdgeStyle;rounded=0;orthogonalLoop=1;jettySize=auto;html=1;fontSize=11;fontColor=none;" edge="1" parent="2QMXrJjkgTMu1Tanbwcy-1" source="2QMXrJjkgTMu1Tanbwcy-50" target="2QMXrJjkgTMu1Tanbwcy-43">
          <mxGeometry relative="1" as="geometry" />
        </mxCell>
        <mxCell id="2QMXrJjkgTMu1Tanbwcy-48" value="" style="line;strokeWidth=1;html=1;fillStyle=dots;strokeColor=default;fillColor=none;" vertex="1" parent="2QMXrJjkgTMu1Tanbwcy-1">
          <mxGeometry x="44" y="691" width="1004" height="10" as="geometry" />
        </mxCell>
        <mxCell id="2QMXrJjkgTMu1Tanbwcy-49" value="" style="edgeStyle=orthogonalEdgeStyle;rounded=0;orthogonalLoop=1;jettySize=auto;html=1;fontSize=11;fontColor=none;entryX=0.5;entryY=0;entryDx=0;entryDy=0;" edge="1" parent="2QMXrJjkgTMu1Tanbwcy-1" source="2QMXrJjkgTMu1Tanbwcy-50" target="2QMXrJjkgTMu1Tanbwcy-39">
          <mxGeometry relative="1" as="geometry">
            <Array as="points">
              <mxPoint x="778" y="663" />
              <mxPoint x="778" y="663" />
            </Array>
          </mxGeometry>
        </mxCell>
        <mxCell id="2QMXrJjkgTMu1Tanbwcy-50" value="&lt;font color=&quot;#ffffff&quot;&gt;Downloader Script&lt;/font&gt;" style="shape=hexagon;perimeter=hexagonPerimeter2;whiteSpace=wrap;html=1;fixedSize=1;shadow=0;glass=0;sketch=0;fillStyle=solid;strokeColor=default;strokeWidth=1;fontSize=11;fillColor=#0014DB;" vertex="1" parent="2QMXrJjkgTMu1Tanbwcy-1">
          <mxGeometry x="732" y="579" width="90" height="62" as="geometry" />
        </mxCell>
        <mxCell id="2QMXrJjkgTMu1Tanbwcy-51" value="&lt;br&gt;&lt;br&gt;&lt;br&gt;" style="edgeStyle=orthogonalEdgeStyle;rounded=0;orthogonalLoop=1;jettySize=auto;html=1;fontSize=11;fontColor=none;" edge="1" parent="2QMXrJjkgTMu1Tanbwcy-1" target="2QMXrJjkgTMu1Tanbwcy-50">
          <mxGeometry relative="1" as="geometry">
            <mxPoint x="778" y="539" as="sourcePoint" />
            <Array as="points">
              <mxPoint x="778" y="549" />
              <mxPoint x="778" y="549" />
            </Array>
          </mxGeometry>
        </mxCell>
        <mxCell id="2QMXrJjkgTMu1Tanbwcy-53" value="" style="edgeStyle=orthogonalEdgeStyle;rounded=0;orthogonalLoop=1;jettySize=auto;html=1;fontSize=14;fontColor=#FFFFFF;" edge="1" parent="2QMXrJjkgTMu1Tanbwcy-1" source="2QMXrJjkgTMu1Tanbwcy-54" target="2QMXrJjkgTMu1Tanbwcy-14">
          <mxGeometry relative="1" as="geometry">
            <Array as="points">
              <mxPoint x="156" y="548" />
              <mxPoint x="156" y="548" />
            </Array>
          </mxGeometry>
        </mxCell>
        <mxCell id="2QMXrJjkgTMu1Tanbwcy-54" value="User upload Wellbores,&lt;br&gt;Datasets and logs" style="shape=step;perimeter=stepPerimeter;whiteSpace=wrap;html=1;fixedSize=1;shadow=0;glass=0;labelBackgroundColor=#FFFFFF;sketch=0;fillStyle=solid;strokeColor=#00000F;strokeWidth=1;fontSize=11;fontColor=#00000F;fillColor=#FFFFFF;" vertex="1" parent="2QMXrJjkgTMu1Tanbwcy-1">
          <mxGeometry x="85" y="485" width="183" height="48" as="geometry" />
        </mxCell>
        <mxCell id="2QMXrJjkgTMu1Tanbwcy-24" value="&lt;span style=&quot;font-size: 14px;&quot;&gt;Users run &lt;br&gt;Dataiku workflow&lt;br&gt;&lt;/span&gt;" style="shape=step;perimeter=stepPerimeter;whiteSpace=wrap;html=1;fixedSize=1;shadow=0;glass=0;labelBackgroundColor=#0014DB;sketch=0;fillStyle=solid;strokeColor=#0014DB;strokeWidth=1;fontSize=11;fontColor=#FFFFFF;fillColor=#0014DB;" vertex="1" parent="2QMXrJjkgTMu1Tanbwcy-1">
          <mxGeometry x="462" y="346" width="205" height="48" as="geometry" />
        </mxCell>
        <mxCell id="2QMXrJjkgTMu1Tanbwcy-27" value="Users download &lt;br&gt;depth matched logs" style="shape=step;perimeter=stepPerimeter;whiteSpace=wrap;html=1;fixedSize=1;shadow=0;glass=0;labelBackgroundColor=#FFFFFF;sketch=0;fillStyle=solid;strokeColor=#00000F;strokeWidth=1;fontSize=11;fontColor=#00000F;fillColor=#FFFFFF;" vertex="1" parent="2QMXrJjkgTMu1Tanbwcy-1">
          <mxGeometry x="721" y="361" width="168" height="45" as="geometry" />
        </mxCell>
        <mxCell id="2QMXrJjkgTMu1Tanbwcy-39" value="&lt;font style=&quot;border-color: var(--border-color);&quot;&gt;&lt;br style=&quot;border-color: var(--border-color);&quot;&gt;&lt;br style=&quot;border-color: var(--border-color);&quot;&gt;&lt;font style=&quot;font-size: 12px;&quot; color=&quot;#ffffff&quot;&gt;&amp;nbsp; Scenario:&amp;nbsp; converting Dataiku datasets into parquet files&lt;/font&gt;&lt;/font&gt;&lt;font color=&quot;#ffffff&quot;&gt;&lt;br style=&quot;border-color: var(--border-color); font-size: 12px;&quot;&gt;&lt;/font&gt;&lt;span style=&quot;font-size: 12px;&quot;&gt;&amp;nbsp;&lt;/span&gt;&lt;span style=&quot;border-color: var(--border-color); color: rgba(0, 0, 0, 0); font-family: monospace; font-size: 0px; text-align: start;&quot;&gt;%3CmxGraphModel%3E%3Croot%3E%3CmxCell%20id%3D%220%22%2F%3E%3CmxCell%20id%3D%221%22%20parent%3D%220%22%2F%3E%3CmxCell%20id%3D%222%22%20value%3D%22Output%20Folder%22%20style%3D%22shape%3Ddocument%3BwhiteSpace%3Dwrap%3Bhtml%3D1%3BboundedLbl%3D1%3B%22%20vertex%3D%221%22%20parent%3D%221%22%3E%3CmxGeometry%20x%3D%22678%22%20y%3D%22716%22%20width%3D%22103%22%20height%3D%2269%22%20as%3D%22geometry%22%2F%3E%3C%2FmxCell%3E%3C%2Froot%3E%3C%2FmxGraphModel%3E&lt;/span&gt;" style="shape=hexagon;perimeter=hexagonPerimeter2;whiteSpace=wrap;html=1;fixedSize=1;fillStyle=auto;strokeColor=default;strokeWidth=1;fontSize=11;fillColor=#0014DB;" vertex="1" parent="2QMXrJjkgTMu1Tanbwcy-1">
          <mxGeometry x="712" y="741" width="132" height="83" as="geometry" />
        </mxCell>
        <mxCell id="DWnEbAUQfPW6F0DebKHZ-0" value="" style="edgeStyle=orthogonalEdgeStyle;rounded=0;orthogonalLoop=1;jettySize=auto;html=1;fontSize=12;fontColor=#FFFFFF;" edge="1" parent="2QMXrJjkgTMu1Tanbwcy-1" source="2QMXrJjkgTMu1Tanbwcy-20">
          <mxGeometry relative="1" as="geometry">
            <mxPoint x="352" y="736" as="targetPoint" />
            <Array as="points">
              <mxPoint x="352" y="714" />
              <mxPoint x="352" y="714" />
            </Array>
          </mxGeometry>
        </mxCell>
      </root>
    </mxGraphModel>
  </diagram>
</mxfile>
